<svg width="19" height="19" viewBox="0 0 19 19" fill="none" xmlns="http://www.w3.org/2000/svg">
<g id="icon/ic_attach_file1">
<path id="Path" d="M9.5 17.0832C7.07815 17.142 5.06543 15.2299 5 12.8082V5.1807C5.04502 3.43017 6.4968 2.04545 8.2475 2.0832C10.0011 2.04126 11.4575 3.42718 11.5025 5.1807V12.8157C11.4378 13.8721 10.5621 14.6957 9.50375 14.6957C8.44537 14.6957 7.56974 13.8721 7.505 12.8157V5.7732C7.505 5.35899 7.84079 5.0232 8.255 5.0232C8.66921 5.0232 9.005 5.35899 9.005 5.7732V12.8157C9.03595 13.0676 9.24992 13.2569 9.50375 13.2569C9.75758 13.2569 9.97155 13.0676 10.0025 12.8157V5.1807C9.95398 4.25731 9.17137 3.54494 8.2475 3.5832C7.32649 3.54916 6.54852 4.26035 6.5 5.1807V12.8082C6.565 14.4016 7.90637 15.6424 9.5 15.5832C11.0936 15.6424 12.435 14.4016 12.5 12.8082V5.1807C12.5 4.76649 12.8358 4.4307 13.25 4.4307C13.6642 4.4307 14 4.76649 14 5.1807V12.8082C13.9346 15.2299 11.9219 17.142 9.5 17.0832Z" fill="#637381"/>
</g>
</svg>
