<svg width="32" height="32" viewBox="0 0 32 32" fill="none" xmlns="http://www.w3.org/2000/svg">
<g id="icons/ic-eva:arrow-ios-forward-fill">
<path id="primary-shape" d="M13.3334 25.3333C13.0218 25.334 12.7199 25.2255 12.48 25.0267C12.2074 24.8006 12.0358 24.4753 12.0033 24.1226C11.9708 23.7699 12.08 23.4188 12.3067 23.1467L18.28 16L12.52 8.84001C12.2963 8.56455 12.1917 8.21129 12.2292 7.85843C12.2667 7.50558 12.4434 7.18224 12.72 6.96001C12.9989 6.71462 13.3675 6.59671 13.7371 6.63467C14.1066 6.67264 14.4435 6.86304 14.6667 7.16001L21.1067 15.16C21.5111 15.652 21.5111 16.3613 21.1067 16.8533L14.44 24.8533C14.1687 25.1806 13.7577 25.3589 13.3334 25.3333Z" fill="#637381"/>
</g>
</svg>
