<svg width="40" height="40" viewBox="0 0 40 40" fill="none" xmlns="http://www.w3.org/2000/svg">
<g id="material-symbols:assignment-return-outline-rounded">
<path id="Vector" d="M19.7083 21.6667H25C25.4722 21.6667 25.8683 21.5067 26.1883 21.1867C26.5083 20.8667 26.6678 20.4711 26.6667 20C26.6667 19.5278 26.5067 19.1317 26.1867 18.8117C25.8667 18.4917 25.4711 18.3322 25 18.3333H19.7083L21.2083 16.8333C21.5417 16.5278 21.7017 16.1455 21.6883 15.6867C21.675 15.2278 21.5011 14.8322 21.1667 14.5C20.8611 14.1944 20.4722 14.0417 20 14.0417C19.5278 14.0417 19.1389 14.1944 18.8333 14.5L14.5 18.8333C14.1944 19.1389 14.0417 19.5278 14.0417 20C14.0417 20.4722 14.1944 20.8611 14.5 21.1667L18.8333 25.5C19.1389 25.8055 19.5278 25.9583 20 25.9583C20.4722 25.9583 20.8611 25.8055 21.1667 25.5C21.4722 25.1944 21.625 24.8122 21.625 24.3533C21.625 23.8944 21.4722 23.4989 21.1667 23.1667L19.7083 21.6667ZM8.33334 31.6667H31.6667V8.33332H8.33334V31.6667ZM8.33334 35C7.41667 35 6.63167 34.6733 5.97834 34.02C5.325 33.3667 4.99889 32.5822 5 31.6667V8.33332C5 7.41666 5.32667 6.63166 5.98 5.97832C6.63334 5.32499 7.41778 4.99888 8.33334 4.99999H15.3333C15.6944 3.99999 16.2989 3.19443 17.1467 2.58332C17.9944 1.97221 18.9456 1.66666 20 1.66666C21.0556 1.66666 22.0072 1.97221 22.855 2.58332C23.7028 3.19443 24.3067 3.99999 24.6667 4.99999H31.6667C32.5833 4.99999 33.3683 5.32666 34.0217 5.97999C34.675 6.63332 35.0011 7.41777 35 8.33332V31.6667C35 32.5833 34.6733 33.3683 34.02 34.0217C33.3667 34.675 32.5822 35.0011 31.6667 35H8.33334ZM20 7.08332C20.3611 7.08332 20.6594 6.96499 20.895 6.72832C21.1306 6.49166 21.2489 6.19332 21.25 5.83332C21.25 5.47221 21.1317 5.17388 20.895 4.93832C20.6583 4.70277 20.36 4.58443 20 4.58332C19.6389 4.58332 19.3406 4.70166 19.105 4.93832C18.8694 5.17499 18.7511 5.47332 18.75 5.83332C18.75 6.19443 18.8683 6.49277 19.105 6.72832C19.3417 6.96388 19.64 7.08221 20 7.08332Z" fill="#919EAB"/>
</g>
</svg>
