<svg width="20" height="20" viewBox="0 0 20 20" fill="none" xmlns="http://www.w3.org/2000/svg">
<g id="ph:user-circle-light">
<path id="Vector" d="M10 2.03125C8.42393 2.03125 6.88326 2.49861 5.5728 3.37423C4.26235 4.24984 3.24097 5.49439 2.63784 6.95049C2.0347 8.40659 1.87689 10.0088 2.18437 11.5546C2.49185 13.1004 3.2508 14.5203 4.36525 15.6348C5.4797 16.7492 6.89959 17.5082 8.44538 17.8156C9.99116 18.1231 11.5934 17.9653 13.0495 17.3622C14.5056 16.759 15.7502 15.7377 16.6258 14.4272C17.5014 13.1167 17.9688 11.5761 17.9688 10C17.9663 7.88732 17.1259 5.86188 15.632 4.36798C14.1381 2.87409 12.1127 2.03373 10 2.03125ZM5.58125 15.4688C6.03968 14.7065 6.68752 14.0757 7.46181 13.6379C8.23609 13.2 9.11048 12.9699 10 12.9699C10.8895 12.9699 11.7639 13.2 12.5382 13.6379C13.3125 14.0757 13.9603 14.7065 14.4188 15.4688C13.169 16.4821 11.609 17.0352 10 17.0352C8.39104 17.0352 6.83097 16.4821 5.58125 15.4688ZM7.34375 9.375C7.34375 8.84964 7.49954 8.33608 7.79141 7.89927C8.08329 7.46245 8.49813 7.12199 8.9835 6.92095C9.46887 6.7199 10.003 6.6673 10.5182 6.76979C11.0335 6.87228 11.5068 7.12526 11.8783 7.49675C12.2497 7.86823 12.5027 8.34153 12.6052 8.85679C12.7077 9.37205 12.6551 9.90614 12.4541 10.3915C12.253 10.8769 11.9126 11.2917 11.4757 11.5836C11.0389 11.8755 10.5254 12.0313 10 12.0313C9.29552 12.0313 8.61989 11.7514 8.12175 11.2533C7.62361 10.7551 7.34375 10.0795 7.34375 9.375ZM15.118 14.8156C14.3815 13.6704 13.2806 12.8068 11.993 12.3641C12.635 11.9364 13.1224 11.3135 13.3831 10.5875C13.6438 9.86141 13.6639 9.07074 13.4406 8.33235C13.2172 7.59397 12.7621 6.94707 12.1426 6.4873C11.5232 6.02753 10.7722 5.77929 10.0008 5.77929C9.22935 5.77929 8.47839 6.02753 7.85893 6.4873C7.23948 6.94707 6.78441 7.59397 6.56101 8.33235C6.33762 9.07074 6.35776 9.86141 6.61845 10.5875C6.87914 11.3135 7.36654 11.9364 8.0086 12.3641C6.72099 12.8068 5.62011 13.6704 4.8836 14.8156C3.94206 13.8165 3.31362 12.5635 3.07582 11.2114C2.83802 9.85928 3.00126 8.46711 3.5454 7.20667C4.08954 5.94622 4.99078 4.87265 6.13792 4.11841C7.28505 3.36417 8.6279 2.96225 10.0008 2.96225C11.3737 2.96225 12.7165 3.36417 13.8637 4.11841C15.0108 4.87265 15.912 5.94622 16.4562 7.20667C17.0003 8.46711 17.1636 9.85928 16.9258 11.2114C16.688 12.5635 16.0595 13.8165 15.118 14.8156Z" fill="#919EAB"/>
</g>
</svg>
