<svg width="20" height="20" viewBox="0 0 20 20" fill="none" xmlns="http://www.w3.org/2000/svg">
<g id="vuesax/outline/arrow-right">
<g id="vuesax/outline/arrow-right_2">
<g id="arrow-right">
<path id="Vector" d="M7.67467 17.2245C7.51634 17.2245 7.35801 17.1662 7.23301 17.0412C6.99134 16.7995 6.99134 16.3995 7.23301 16.1579L12.6663 10.7245C13.0663 10.3245 13.0663 9.67453 12.6663 9.27453L7.23301 3.84119C6.99134 3.59953 6.99134 3.19953 7.23301 2.95786C7.47467 2.71619 7.87467 2.71619 8.11634 2.95786L13.5497 8.39119C13.9747 8.81619 14.2163 9.3912 14.2163 9.99953C14.2163 10.6079 13.983 11.1829 13.5497 11.6079L8.11634 17.0412C7.99134 17.1579 7.83301 17.2245 7.67467 17.2245Z" fill="#919EAB" fill-opacity="0.8"/>
</g>
</g>
</g>
</svg>
