<svg width="20" height="20" viewBox="0 0 20 20" fill="none" xmlns="http://www.w3.org/2000/svg">
<g clip-path="url(#clip0_1145_4474)">
<path d="M18.3333 18.9583H1.66663C1.32496 18.9583 1.04163 18.675 1.04163 18.3333C1.04163 17.9916 1.32496 17.7083 1.66663 17.7083H18.3333C18.675 17.7083 18.9583 17.9916 18.9583 18.3333C18.9583 18.675 18.675 18.9583 18.3333 18.9583Z" fill="#919EAB"/>
<path d="M17.4079 18.9583C17.0662 18.9583 16.7829 18.675 16.7829 18.3333V10.8333C16.7829 9.79998 15.8162 8.95831 14.6329 8.95831H5.36619C4.18285 8.95831 3.21619 9.79998 3.21619 10.8333V18.3333C3.21619 18.675 2.93285 18.9583 2.59119 18.9583C2.24952 18.9583 1.96619 18.675 1.96619 18.3333V10.8333C1.96619 9.10831 3.49119 7.70831 5.36619 7.70831H14.6245C16.4995 7.70831 18.0245 9.10831 18.0245 10.8333V18.3333C18.0329 18.675 17.7495 18.9583 17.4079 18.9583Z" fill="#919EAB"/>
<path d="M15.3671 8.95835C15.0255 8.95835 14.7421 8.67502 14.7421 8.33335V5.97502C14.7421 5.32502 14.1171 4.79169 13.3588 4.79169H6.65046C5.88379 4.79169 5.26712 5.32502 5.26712 5.97502V8.33335C5.26712 8.67502 4.98379 8.95835 4.64212 8.95835C4.30046 8.95835 4.00879 8.67502 4.00879 8.33335V5.97502C4.00879 4.63335 5.19212 3.54169 6.64212 3.54169H13.3505C14.8005 3.54169 15.9838 4.63335 15.9838 5.97502V8.33335C15.9921 8.67502 15.7088 8.95835 15.3671 8.95835Z" fill="#919EAB"/>
<path d="M14.4422 14.7918C13.4756 14.7918 12.6922 14.0085 12.6922 13.0418V12.7835C12.6922 12.5085 12.4672 12.2835 12.1922 12.2835C11.9172 12.2835 11.6922 12.5085 11.6922 12.7835V13.0418C11.6922 14.0085 10.9089 14.7918 9.94224 14.7918C8.97557 14.7918 8.19224 14.0085 8.19224 13.0418V12.7835C8.19224 12.5085 7.96724 12.2835 7.69224 12.2835C7.41724 12.2835 7.19224 12.5085 7.19224 12.7835V13.0418C7.19224 14.0085 6.4089 14.7918 5.44224 14.7918C4.47557 14.7918 3.69224 14.0085 3.69224 13.0418V12.7668C3.69224 12.5002 3.47557 12.2752 3.20057 12.2668H2.89224C2.55057 12.2585 2.26724 11.9752 2.27557 11.6335C2.2839 11.2918 2.5589 11.0168 2.90057 11.0168H2.9089H3.21724C4.16724 11.0335 4.94224 11.8168 4.94224 12.7668V13.0418C4.94224 13.3168 5.16724 13.5418 5.44224 13.5418C5.71724 13.5418 5.94224 13.3168 5.94224 13.0418V12.7835C5.94224 11.8168 6.72557 11.0335 7.69224 11.0335C8.6589 11.0335 9.44224 11.8168 9.44224 12.7835V13.0418C9.44224 13.3168 9.66724 13.5418 9.94224 13.5418C10.2172 13.5418 10.4422 13.3168 10.4422 13.0418V12.7835C10.4422 11.8168 11.2256 11.0335 12.1922 11.0335C13.1589 11.0335 13.9422 11.8168 13.9422 12.7835V13.0418C13.9422 13.3168 14.1672 13.5418 14.4422 13.5418C14.7172 13.5418 14.9422 13.3168 14.9422 13.0418V12.7835C14.9422 11.8168 15.7256 11.0335 16.6922 11.0335H17.0672C17.4089 11.0335 17.6922 11.3168 17.6922 11.6585C17.6922 12.0002 17.4089 12.2835 17.0672 12.2835H16.6922C16.4172 12.2835 16.1922 12.5085 16.1922 12.7835V13.0418C16.1922 14.0085 15.4089 14.7918 14.4422 14.7918Z" fill="#919EAB"/>
<path d="M6.66663 4.79167C6.32496 4.79167 6.04163 4.50833 6.04163 4.16667V2.5C6.04163 2.15833 6.32496 1.875 6.66663 1.875C7.00829 1.875 7.29163 2.15833 7.29163 2.5V4.16667C7.29163 4.50833 7.00829 4.79167 6.66663 4.79167Z" fill="#919EAB"/>
<path d="M13.3334 4.79167C12.9917 4.79167 12.7084 4.50833 12.7084 4.16667V2.5C12.7084 2.15833 12.9917 1.875 13.3334 1.875C13.675 1.875 13.9584 2.15833 13.9584 2.5V4.16667C13.9584 4.50833 13.675 4.79167 13.3334 4.79167Z" fill="#919EAB"/>
<path d="M10 4.79169C9.65833 4.79169 9.375 4.50835 9.375 4.16669V1.66669C9.375 1.32502 9.65833 1.04169 10 1.04169C10.3417 1.04169 10.625 1.32502 10.625 1.66669V4.16669C10.625 4.50835 10.3417 4.79169 10 4.79169Z" fill="#919EAB"/>
</g>
<defs>
<clipPath id="clip0_1145_4474">
<rect width="20" height="20" fill="white"/>
</clipPath>
</defs>
</svg>
