<svg width="16" height="16" viewBox="0 0 16 16" fill="none" xmlns="http://www.w3.org/2000/svg">
<rect x="0.5" y="0.5" width="15" height="15" rx="7.5" fill="#B72136"/>
<path d="M8 13.375C5.035 13.375 2.625 10.965 2.625 8C2.625 5.035 5.035 2.625 8 2.625C10.965 2.625 13.375 5.035 13.375 8C13.375 10.965 10.965 13.375 8 13.375ZM8 3.375C5.45 3.375 3.375 5.45 3.375 8C3.375 10.55 5.45 12.625 8 12.625C10.55 12.625 12.625 10.55 12.625 8C12.625 5.45 10.55 3.375 8 3.375Z" fill="white"/>
<path d="M6.58469 9.78993C6.48969 9.78993 6.39469 9.75493 6.31969 9.67993C6.17469 9.53493 6.17469 9.29493 6.31969 9.14993L9.14969 6.31993C9.29469 6.17493 9.53469 6.17493 9.67969 6.31993C9.82469 6.46493 9.82469 6.70493 9.67969 6.84993L6.84969 9.67993C6.77969 9.75493 6.67969 9.78993 6.58469 9.78993Z" fill="white"/>
<path d="M9.41469 9.78993C9.31969 9.78993 9.22469 9.75493 9.14969 9.67993L6.31969 6.84993C6.17469 6.70493 6.17469 6.46493 6.31969 6.31993C6.46469 6.17493 6.70469 6.17493 6.84969 6.31993L9.67969 9.14993C9.82469 9.29493 9.82469 9.53493 9.67969 9.67993C9.60469 9.75493 9.50969 9.78993 9.41469 9.78993Z" fill="white"/>
<rect x="0.5" y="0.5" width="15" height="15" rx="7.5" stroke="white"/>
</svg>
