<svg width="38" height="50" viewBox="0 0 38 50" fill="none" xmlns="http://www.w3.org/2000/svg">
<path d="M18.9999 37.6667C17.7622 37.6667 16.5753 37.175 15.7001 36.2998C14.8249 35.4247 14.3333 34.2377 14.3333 33C14.3333 30.41 16.4099 28.3333 18.9999 28.3333C20.2376 28.3333 21.4246 28.825 22.2997 29.7002C23.1749 30.5753 23.6666 31.7623 23.6666 33C23.6666 34.2377 23.1749 35.4247 22.2997 36.2998C21.4246 37.175 20.2376 37.6667 18.9999 37.6667ZM32.9999 44.6667V21.3333H4.99992V44.6667H32.9999ZM32.9999 16.6667C34.2376 16.6667 35.4246 17.1583 36.2997 18.0335C37.1749 18.9087 37.6666 20.0957 37.6666 21.3333V44.6667C37.6666 45.9044 37.1749 47.0913 36.2997 47.9665C35.4246 48.8417 34.2376 49.3333 32.9999 49.3333H4.99992C3.76224 49.3333 2.57526 48.8417 1.70009 47.9665C0.824917 47.0913 0.333252 45.9044 0.333252 44.6667V21.3333C0.333252 18.7433 2.40992 16.6667 4.99992 16.6667H7.33325V12C7.33325 8.90582 8.56242 5.93836 10.7503 3.75043C12.9383 1.56251 15.9057 0.333344 18.9999 0.333344C20.532 0.333344 22.0491 0.635111 23.4646 1.22142C24.88 1.80772 26.1661 2.66708 27.2495 3.75043C28.3328 4.83378 29.1922 6.1199 29.7785 7.53537C30.3648 8.95083 30.6666 10.4679 30.6666 12V16.6667H32.9999ZM18.9999 5.00001C17.1434 5.00001 15.3629 5.73751 14.0502 7.05026C12.7374 8.36302 11.9999 10.1435 11.9999 12V16.6667H25.9999V12C25.9999 10.1435 25.2624 8.36302 23.9497 7.05026C22.6369 5.73751 20.8564 5.00001 18.9999 5.00001Z" fill="#637381"/>
</svg>
