<svg width="17" height="16" viewBox="0 0 17 16" fill="none" xmlns="http://www.w3.org/2000/svg">
<g id="vuesax/outline/close-circle">
<g id="close-circle">
<path id="Vector" d="M8.50004 15.1668C4.54671 15.1668 1.33337 11.9535 1.33337 8.00016C1.33337 4.04683 4.54671 0.833496 8.50004 0.833496C12.4534 0.833496 15.6667 4.04683 15.6667 8.00016C15.6667 11.9535 12.4534 15.1668 8.50004 15.1668ZM8.50004 1.8335C5.10004 1.8335 2.33337 4.60016 2.33337 8.00016C2.33337 11.4002 5.10004 14.1668 8.50004 14.1668C11.9 14.1668 14.6667 11.4002 14.6667 8.00016C14.6667 4.60016 11.9 1.8335 8.50004 1.8335Z" fill="#B72136"/>
<path id="Vector_2" d="M6.61296 10.3864C6.48629 10.3864 6.35962 10.3397 6.25962 10.2397C6.06629 10.0464 6.06629 9.72641 6.25962 9.53308L10.033 5.75975C10.2263 5.56641 10.5463 5.56641 10.7396 5.75975C10.933 5.95308 10.933 6.27308 10.7396 6.46641L6.96629 10.2397C6.87296 10.3397 6.73962 10.3864 6.61296 10.3864Z" fill="#B72136"/>
<path id="Vector_3" d="M10.3863 10.3864C10.2596 10.3864 10.133 10.3397 10.033 10.2397L6.25962 6.46641C6.06629 6.27308 6.06629 5.95308 6.25962 5.75975C6.45296 5.56641 6.77296 5.56641 6.96629 5.75975L10.7396 9.53308C10.933 9.72641 10.933 10.0464 10.7396 10.2397C10.6396 10.3397 10.513 10.3864 10.3863 10.3864Z" fill="#B72136"/>
</g>
</g>
</svg>
