<svg width="22" height="22" viewBox="0 0 22 22" fill="none" xmlns="http://www.w3.org/2000/svg">
<g id="teenyicons:contract-outline">
<path id="Vector" d="M6.59989 10.2667H5.86655V11.7333H6.59989V10.2667ZM15.3999 11.7333H16.1332V10.2667H15.3999V11.7333ZM6.59989 5.86667H5.86655V7.33333H6.59989V5.86667ZM9.53322 7.33333H10.2666V5.86667H9.53322V7.33333ZM15.3999 0.733333L15.9191 0.214133L15.7035 0H15.3999V0.733333ZM19.7999 5.13333H20.5332V4.82973L20.3191 4.61413L19.7999 5.13333ZM10.9999 16.8667L11.3284 17.5223L11.3871 17.4929L11.4399 17.4533L10.9999 16.8667ZM6.59989 11.7333H15.3999V10.2667H6.59989V11.7333ZM6.59989 7.33333H9.53322V5.86667H6.59989V7.33333ZM18.3332 20.5333H3.66655V22H18.3332V20.5333ZM2.93322 19.8V2.2H1.46655V19.8H2.93322ZM3.66655 1.46667H15.3999V0H3.66655V1.46667ZM19.0666 5.13333V19.8H20.5332V5.13333H19.0666ZM14.8807 1.25253L19.2807 5.65253L20.3191 4.61413L15.9191 0.214133L14.8807 1.25253ZM3.66655 20.5333C3.47206 20.5333 3.28553 20.4561 3.14801 20.3185C3.01048 20.181 2.93322 19.9945 2.93322 19.8H1.46655C1.46655 20.3835 1.69834 20.9431 2.11092 21.3556C2.5235 21.7682 3.08308 22 3.66655 22V20.5333ZM18.3332 22C18.9167 22 19.4763 21.7682 19.8889 21.3556C20.3014 20.9431 20.5332 20.3835 20.5332 19.8H19.0666C19.0666 19.9945 18.9893 20.181 18.8518 20.3185C18.7142 20.4561 18.5277 20.5333 18.3332 20.5333V22ZM2.93322 2.2C2.93322 2.00551 3.01048 1.81898 3.14801 1.68146C3.28553 1.54393 3.47206 1.46667 3.66655 1.46667V0C3.08308 0 2.5235 0.231785 2.11092 0.644365C1.69834 1.05695 1.46655 1.61652 1.46655 2.2H2.93322ZM8.02842 17.0984C8.19122 16.61 8.65469 16.1568 9.24575 15.9984C9.79869 15.8503 10.51 15.9471 11.214 16.6525L12.2524 15.6141C11.1964 14.5581 9.95122 14.2897 8.86589 14.5816C7.82015 14.8632 6.96362 15.6567 6.63655 16.6349L8.02842 17.0984ZM11.214 16.6525C11.2553 16.6926 11.294 16.7352 11.3299 16.7801L12.4886 15.8796C12.4154 15.7868 12.3365 15.6986 12.2524 15.6156L11.214 16.6525ZM11.3299 16.7801C11.4443 16.9268 11.4179 16.9737 11.4223 16.9415C11.4252 16.9209 11.4311 16.9547 11.3431 17.0339C11.2163 17.1399 11.0725 17.2237 10.9178 17.2817C10.7318 17.3565 10.5379 17.4097 10.3399 17.4401C10.2191 17.4631 10.0955 17.4681 9.97322 17.4548C9.94829 17.4489 9.99962 17.4548 10.0759 17.5091C10.1694 17.5812 10.2382 17.6807 10.2726 17.7937C10.307 17.9068 10.3054 18.0277 10.268 18.1397C10.2597 18.164 10.2484 18.1872 10.2343 18.2087C10.2314 18.2116 10.2563 18.1793 10.3399 18.1104C10.5071 17.9755 10.8151 17.7789 11.3284 17.5237L10.6714 16.2111C10.1184 16.4868 9.70335 16.7391 9.41882 16.9693C9.27453 17.082 9.14624 17.2137 9.03749 17.3609C8.89917 17.5461 8.82688 17.7723 8.83215 18.0033C8.83849 18.1386 8.87544 18.2706 8.94022 18.3895C9.00501 18.5084 9.09593 18.6111 9.20615 18.6897C9.37189 18.8129 9.55522 18.8657 9.69015 18.8936C9.96442 18.9479 10.2768 18.9332 10.5599 18.8907C11.1172 18.8056 11.8388 18.5651 12.3302 18.1192C12.5854 17.886 12.8274 17.5516 12.8787 17.1131C12.9315 16.6643 12.7702 16.2433 12.4871 15.8811L11.3299 16.7801ZM11.4399 17.4533C11.6745 17.2739 11.9295 17.1227 12.1996 17.0031L11.6174 15.6567C11.2654 15.8092 10.9134 16.016 10.5599 16.28L11.4399 17.4533ZM12.1996 17.0031C13.153 16.5909 14.0051 16.808 14.8778 17.2231C15.0978 17.3287 15.3119 17.4431 15.529 17.5604C15.7402 17.6748 15.9631 17.7965 16.1743 17.9051C16.5791 18.1089 17.0807 18.3333 17.5999 18.3333V16.8667C17.462 16.8667 17.2362 16.7977 16.8372 16.5968C16.6495 16.5 16.453 16.3915 16.2271 16.2697C16.0071 16.1509 15.7636 16.0204 15.5084 15.9001C14.4847 15.4117 13.1456 14.9967 11.6174 15.6567L12.1996 17.0031Z" fill="#637381"/>
</g>
</svg>
