<svg width="16" height="16" viewBox="0 0 16 16" fill="none" xmlns="http://www.w3.org/2000/svg">
<g id="vuesax/outline/coin">
<g id="coin">
<path id="Vector" d="M7.99996 15.1669C5.33329 15.1669 3.16663 13.2536 3.16663 10.9003V8.43359C3.16663 8.16026 3.39329 7.93359 3.66663 7.93359C3.93996 7.93359 4.16663 8.16026 4.16663 8.43359C4.16663 10.1803 5.81329 11.5003 7.99996 11.5003C10.1866 11.5003 11.8333 10.1803 11.8333 8.43359C11.8333 8.16026 12.06 7.93359 12.3333 7.93359C12.6066 7.93359 12.8333 8.16026 12.8333 8.43359V10.9003C12.8333 13.2536 10.6666 15.1669 7.99996 15.1669ZM4.16663 10.9736C4.21329 12.7403 5.91329 14.1669 7.99996 14.1669C10.0866 14.1669 11.7866 12.7403 11.8333 10.9736C10.9666 11.9136 9.59329 12.5003 7.99996 12.5003C6.40663 12.5003 5.03996 11.9136 4.16663 10.9736Z" fill="#637381"/>
<path id="Vector_2" d="M7.99996 9.16683C6.15996 9.16683 4.50662 8.34016 3.69995 7.00683C3.35328 6.44016 3.16663 5.78016 3.16663 5.10016C3.16663 3.9535 3.67996 2.8735 4.60663 2.06016C5.51329 1.26683 6.71996 0.833496 7.99996 0.833496C9.27996 0.833496 10.48 1.26683 11.3933 2.0535C12.32 2.8735 12.8333 3.9535 12.8333 5.10016C12.8333 5.78016 12.6466 6.4335 12.3 7.00683C11.4933 8.34016 9.83996 9.16683 7.99996 9.16683ZM7.99996 1.8335C6.95996 1.8335 5.98664 2.18016 5.25997 2.82016C4.5533 3.4335 4.16663 4.24683 4.16663 5.10016C4.16663 5.60016 4.29995 6.06683 4.55328 6.48683C5.18662 7.52683 6.50663 8.16683 7.99996 8.16683C9.49329 8.16683 10.8133 7.52016 11.4466 6.48683C11.7066 6.06683 11.8333 5.60016 11.8333 5.10016C11.8333 4.24683 11.4466 3.4335 10.7333 2.80683C10.0066 2.18016 9.03996 1.8335 7.99996 1.8335Z" fill="#637381"/>
<path id="Vector_3" d="M7.99996 12.5002C5.24663 12.5002 3.16663 10.7535 3.16663 8.4335V5.10016C3.16663 2.74683 5.33329 0.833496 7.99996 0.833496C9.27996 0.833496 10.48 1.26683 11.3933 2.0535C12.32 2.8735 12.8333 3.9535 12.8333 5.10016V8.4335C12.8333 10.7535 10.7533 12.5002 7.99996 12.5002ZM7.99996 1.8335C5.88663 1.8335 4.16663 3.30016 4.16663 5.10016V8.4335C4.16663 10.1802 5.81329 11.5002 7.99996 11.5002C10.1866 11.5002 11.8333 10.1802 11.8333 8.4335V5.10016C11.8333 4.24683 11.4466 3.4335 10.7333 2.80683C10.0066 2.18016 9.03996 1.8335 7.99996 1.8335Z" fill="#637381"/>
</g>
</g>
</svg>
