<svg width="20" height="20" viewBox="0 0 20 20" fill="none" xmlns="http://www.w3.org/2000/svg">
<g id="fluent:vehicle-car-48-regular">
<path id="Vector" d="M7.91667 12.1875C7.91667 11.9 8.15 11.6667 8.4375 11.6667H11.5625C11.7006 11.6667 11.8331 11.7215 11.9308 11.8192C12.0285 11.9169 12.0833 12.0494 12.0833 12.1875C12.0833 12.3256 12.0285 12.4581 11.9308 12.5558C11.8331 12.6535 11.7006 12.7083 11.5625 12.7083H8.4375C8.15 12.7083 7.91667 12.475 7.91667 12.1875ZM6.66667 10.8333C6.66667 11.0543 6.57887 11.2663 6.42259 11.4226C6.26631 11.5789 6.05435 11.6667 5.83333 11.6667C5.61232 11.6667 5.40036 11.5789 5.24408 11.4226C5.0878 11.2663 5 11.0543 5 10.8333C5 10.6123 5.0878 10.4004 5.24408 10.2441C5.40036 10.0878 5.61232 10 5.83333 10C6.05435 10 6.26631 10.0878 6.42259 10.2441C6.57887 10.4004 6.66667 10.6123 6.66667 10.8333ZM14.1667 11.6667C14.3877 11.6667 14.5996 11.5789 14.7559 11.4226C14.9122 11.2663 15 11.0543 15 10.8333C15 10.6123 14.9122 10.4004 14.7559 10.2441C14.5996 10.0878 14.3877 10 14.1667 10C13.9457 10 13.7337 10.0878 13.5774 10.2441C13.4211 10.4004 13.3333 10.6123 13.3333 10.8333C13.3333 11.0543 13.4211 11.2663 13.5774 11.4226C13.7337 11.5789 13.9457 11.6667 14.1667 11.6667ZM3.65208 7.61125L3.8325 6.875H3.02083C2.8827 6.875 2.75022 6.82013 2.65255 6.72245C2.55487 6.62478 2.5 6.4923 2.5 6.35417C2.5 6.21603 2.55487 6.08356 2.65255 5.98588C2.75022 5.88821 2.8827 5.83333 3.02083 5.83333H4.0875L4.41792 4.48458C4.55659 3.91847 4.88117 3.41524 5.33971 3.05543C5.79824 2.69563 6.36423 2.50005 6.94708 2.5H12.9083C13.4742 2.50005 14.0247 2.68441 14.4764 3.0252C14.9282 3.36599 15.2566 3.84465 15.4121 4.38875L15.8246 5.83333H16.9796C17.048 5.83333 17.1157 5.84681 17.1789 5.87298C17.2421 5.89915 17.2995 5.93752 17.3479 5.98588C17.3962 6.03425 17.4346 6.09166 17.4608 6.15485C17.4869 6.21804 17.5004 6.28577 17.5004 6.35417C17.5004 6.42256 17.4869 6.49029 17.4608 6.55348C17.4346 6.61667 17.3962 6.67409 17.3479 6.72245C17.2995 6.77082 17.2421 6.80918 17.1789 6.83535C17.1157 6.86153 17.048 6.875 16.9796 6.875H16.1225L16.3308 7.60458C16.6734 7.72845 16.9694 7.95488 17.1786 8.25304C17.3878 8.5512 17.5 8.9066 17.5 9.27083V16.5625C17.5 16.9216 17.3573 17.2661 17.1034 17.52C16.8494 17.774 16.505 17.9167 16.1458 17.9167H14.6875C14.3284 17.9167 13.9839 17.774 13.73 17.52C13.476 17.2661 13.3333 16.9216 13.3333 16.5625V15.2083H6.66667V16.5625C6.66667 16.9216 6.524 17.2661 6.27004 17.52C6.01608 17.774 5.67165 17.9167 5.3125 17.9167H3.85417C3.49502 17.9167 3.15058 17.774 2.89663 17.52C2.64267 17.2661 2.5 16.9216 2.5 16.5625V9.27083C2.50004 8.90977 2.61041 8.55734 2.81631 8.26073C3.02221 7.96413 3.31382 7.73752 3.65208 7.61125ZM5.42958 4.7325L4.75167 7.5H15.2171L14.41 4.675C14.3167 4.34848 14.1196 4.06124 13.8485 3.85675C13.5774 3.65225 13.2471 3.54165 12.9075 3.54167H6.9475C6.59778 3.5417 6.25818 3.65906 5.98305 3.87496C5.70793 4.09086 5.51277 4.39282 5.42958 4.7325ZM4.27083 8.54167C4.07745 8.54167 3.89198 8.61849 3.75523 8.75523C3.61849 8.89198 3.54167 9.07745 3.54167 9.27083V14.1667H16.4583V9.27083C16.4583 9.07745 16.3815 8.89198 16.2448 8.75523C16.108 8.61849 15.9226 8.54167 15.7292 8.54167H4.27083ZM14.375 16.5625C14.375 16.735 14.515 16.875 14.6875 16.875H16.1458C16.2287 16.875 16.3082 16.8421 16.3668 16.7835C16.4254 16.7249 16.4583 16.6454 16.4583 16.5625V15.2083H14.375V16.5625ZM3.54167 15.2083V16.5625C3.54167 16.735 3.68167 16.875 3.85417 16.875H5.3125C5.39538 16.875 5.47487 16.8421 5.53347 16.7835C5.59208 16.7249 5.625 16.6454 5.625 16.5625V15.2083H3.54167Z" fill="#919EAB"/>
</g>
</svg>
