<svg width="24" height="24" viewBox="0 0 24 24" fill="none" xmlns="http://www.w3.org/2000/svg">
<g id="icon/ic_chevron_down">
<path id="Path" d="M11.9998 16C11.7662 16.0004 11.5397 15.9191 11.3598 15.77L5.35981 10.77C4.93455 10.4165 4.87635 9.78525 5.22981 9.35999C5.58327 8.93473 6.21455 8.87653 6.63981 9.22999L11.9998 13.71L17.3598 9.38999C17.5664 9.22222 17.8314 9.14372 18.096 9.17188C18.3606 9.20003 18.6031 9.33251 18.7698 9.53999C18.9549 9.74785 19.0451 10.0235 19.0185 10.3006C18.9919 10.5776 18.8511 10.8311 18.6298 11L12.6298 15.83C12.4447 15.9555 12.2229 16.0154 11.9998 16Z" fill="#212B36"/>
</g>
</svg>
