<svg width="22" height="22" viewBox="0 0 22 22" fill="none" xmlns="http://www.w3.org/2000/svg">
<g id="solar:calendar-outline">
<g id="Group">
<path id="Vector" d="M14.8371 12.375C15.0407 12.375 15.2359 12.2922 15.3798 12.1449C15.5237 11.9975 15.6046 11.7977 15.6046 11.5893C15.6046 11.3809 15.5237 11.1811 15.3798 11.0337C15.2359 10.8864 15.0407 10.8036 14.8371 10.8036C14.6336 10.8036 14.4384 10.8864 14.2945 11.0337C14.1505 11.1811 14.0697 11.3809 14.0697 11.5893C14.0697 11.7977 14.1505 11.9975 14.2945 12.1449C14.4384 12.2922 14.6336 12.375 14.8371 12.375ZM14.8371 15.5179C15.0407 15.5179 15.2359 15.4351 15.3798 15.2877C15.5237 15.1404 15.6046 14.9405 15.6046 14.7322C15.6046 14.5238 15.5237 14.3239 15.3798 14.1766C15.2359 14.0292 15.0407 13.9464 14.8371 13.9464C14.6336 13.9464 14.4384 14.0292 14.2945 14.1766C14.1505 14.3239 14.0697 14.5238 14.0697 14.7322C14.0697 14.9405 14.1505 15.1404 14.2945 15.2877C14.4384 15.4351 14.6336 15.5179 14.8371 15.5179ZM11.7674 11.5893C11.7674 11.7977 11.6865 11.9975 11.5426 12.1449C11.3987 12.2922 11.2035 12.375 10.9999 12.375C10.7964 12.375 10.6012 12.2922 10.4573 12.1449C10.3133 11.9975 10.2325 11.7977 10.2325 11.5893C10.2325 11.3809 10.3133 11.1811 10.4573 11.0337C10.6012 10.8864 10.7964 10.8036 10.9999 10.8036C11.2035 10.8036 11.3987 10.8864 11.5426 11.0337C11.6865 11.1811 11.7674 11.3809 11.7674 11.5893ZM11.7674 14.7322C11.7674 14.9405 11.6865 15.1404 11.5426 15.2877C11.3987 15.4351 11.2035 15.5179 10.9999 15.5179C10.7964 15.5179 10.6012 15.4351 10.4573 15.2877C10.3133 15.1404 10.2325 14.9405 10.2325 14.7322C10.2325 14.5238 10.3133 14.3239 10.4573 14.1766C10.6012 14.0292 10.7964 13.9464 10.9999 13.9464C11.2035 13.9464 11.3987 14.0292 11.5426 14.1766C11.6865 14.3239 11.7674 14.5238 11.7674 14.7322ZM7.16271 12.375C7.36624 12.375 7.56145 12.2922 7.70537 12.1449C7.84929 11.9975 7.93015 11.7977 7.93015 11.5893C7.93015 11.3809 7.84929 11.1811 7.70537 11.0337C7.56145 10.8864 7.36624 10.8036 7.16271 10.8036C6.95917 10.8036 6.76397 10.8864 6.62004 11.0337C6.47612 11.1811 6.39526 11.3809 6.39526 11.5893C6.39526 11.7977 6.47612 11.9975 6.62004 12.1449C6.76397 12.2922 6.95917 12.375 7.16271 12.375ZM7.16271 15.5179C7.36624 15.5179 7.56145 15.4351 7.70537 15.2877C7.84929 15.1404 7.93015 14.9405 7.93015 14.7322C7.93015 14.5238 7.84929 14.3239 7.70537 14.1766C7.56145 14.0292 7.36624 13.9464 7.16271 13.9464C6.95917 13.9464 6.76397 14.0292 6.62004 14.1766C6.47612 14.3239 6.39526 14.5238 6.39526 14.7322C6.39526 14.9405 6.47612 15.1404 6.62004 15.2877C6.76397 15.4351 6.95917 15.5179 7.16271 15.5179Z" fill="#637381"/>
<path id="Vector_2" fill-rule="evenodd" clip-rule="evenodd" d="M7.16279 2.75C7.31544 2.75 7.46185 2.81209 7.56979 2.9226C7.67773 3.03311 7.73837 3.183 7.73837 3.33929V3.93879C8.24642 3.92857 8.80588 3.92857 9.42137 3.92857H12.5779C13.1941 3.92857 13.7536 3.92857 14.2616 3.93879V3.33929C14.2616 3.183 14.3223 3.03311 14.4302 2.9226C14.5382 2.81209 14.6846 2.75 14.8372 2.75C14.9899 2.75 15.1363 2.81209 15.2442 2.9226C15.3521 3.03311 15.4128 3.183 15.4128 3.33929V3.98907C15.6123 4.00479 15.8011 4.02443 15.9799 4.04879C16.8794 4.17293 17.6077 4.43379 18.1825 5.0215C18.7565 5.61 19.0113 6.35564 19.1326 7.2765C19.25 8.17221 19.25 9.31543 19.25 10.7596V12.419C19.25 13.8631 19.25 15.0071 19.1326 15.9021C19.0113 16.8229 18.7565 17.5686 18.1825 18.1571C17.6077 18.7448 16.8794 19.0056 15.9799 19.1298C15.105 19.25 13.9884 19.25 12.5779 19.25H9.42214C8.01158 19.25 6.89419 19.25 6.02007 19.1298C5.12063 19.0056 4.39233 18.7448 3.81751 18.1571C3.24347 17.5686 2.98867 16.8229 2.86742 15.9021C2.75 15.0064 2.75 13.8631 2.75 12.419V10.7596C2.75 9.31543 2.75 8.17143 2.86742 7.2765C2.98867 6.35564 3.24347 5.61 3.81751 5.0215C4.39233 4.43379 5.12063 4.17293 6.02007 4.04879C6.19888 4.02443 6.38844 4.00479 6.58721 3.98907V3.33929C6.58721 3.183 6.64785 3.03311 6.75579 2.9226C6.86374 2.81209 7.01014 2.75 7.16279 2.75ZM6.17279 5.21714C5.40151 5.32321 4.9564 5.52279 4.63177 5.85514C4.30714 6.1875 4.11221 6.64321 4.0086 7.43364C3.99095 7.56721 3.97637 7.70864 3.96409 7.85714H18.0359C18.0236 7.70786 18.009 7.56721 17.9914 7.43286C17.8878 6.64321 17.6929 6.1875 17.3682 5.85514C17.0436 5.52279 16.5985 5.32321 15.8264 5.21714C15.0383 5.10871 13.9984 5.10714 12.5349 5.10714H9.46512C8.0016 5.10714 6.96249 5.10871 6.17279 5.21714ZM3.90116 10.8036C3.90116 10.1326 3.90116 9.54879 3.91114 9.03571H18.0889C18.0988 9.54879 18.0988 10.1326 18.0988 10.8036V12.375C18.0988 13.8734 18.0973 14.938 17.9914 15.7457C17.8878 16.5354 17.6929 16.9911 17.3682 17.3234C17.0436 17.6558 16.5985 17.8554 15.8264 17.9614C15.0383 18.0699 13.9984 18.0714 12.5349 18.0714H9.46512C8.0016 18.0714 6.96249 18.0699 6.17279 17.9614C5.40151 17.8554 4.9564 17.6558 4.63177 17.3234C4.30714 16.9911 4.11221 16.5354 4.0086 15.7449C3.9027 14.938 3.90116 13.8734 3.90116 12.375V10.8036Z" fill="#637381"/>
</g>
</g>
</svg>
