<svg width="20" height="20" viewBox="0 0 20 20" fill="none" xmlns="http://www.w3.org/2000/svg">
<g id="vuesax/bold/broom">
<g id="broom">
<g id="Group">
<path id="Vector" d="M7.35004 4.08332L6.28338 2.31665C5.88338 1.66665 5.09171 1.29999 4.35004 1.51665C3.23338 1.84999 2.80004 3.10832 3.35838 4.03332L4.45838 5.84165C4.58338 6.03332 4.84171 6.09999 5.03338 5.98332L7.20838 4.65832C7.40838 4.53332 7.47504 4.27499 7.35004 4.08332Z" fill="#292D32"/>
<path id="Vector_2" d="M16.4506 11.8415L14.109 8.67487C13.2923 7.57487 11.8756 7.0582 10.5423 7.41653C10.5423 7.4082 10.534 7.4082 10.534 7.39987L9.15063 5.12487C8.90063 4.7332 8.38396 4.6082 7.9923 4.84987L5.10063 6.6082C4.70063 6.84153 4.57563 7.36653 4.8173 7.76653L6.1923 10.0415C6.1923 10.0415 6.1923 10.0499 6.20063 10.0499C5.27563 11.0749 5.07563 12.5665 5.6923 13.8082L7.42563 17.3415C7.95896 18.4332 9.2173 18.8499 10.284 18.2999C10.3673 18.2582 10.3923 18.1582 10.3423 18.0749L9.0423 15.9249C8.85896 15.6249 8.95063 15.2415 9.25063 15.0499C9.55063 14.8749 9.93396 14.9665 10.1256 15.2582L11.434 17.4082C11.484 17.4832 11.584 17.5082 11.659 17.4665L12.459 16.9832C12.534 16.9332 12.559 16.8332 12.5173 16.7582L11.209 14.6082C11.034 14.3082 11.1256 13.9249 11.4173 13.7332C11.7256 13.5582 12.109 13.6499 12.2923 13.9415L13.6006 16.0915C13.6506 16.1665 13.7506 16.1915 13.8256 16.1499L14.6256 15.6665C14.7006 15.6165 14.7256 15.5165 14.684 15.4415L13.3756 13.2915C13.2006 12.9915 13.2923 12.6082 13.584 12.4165C13.8923 12.2415 14.2756 12.3332 14.459 12.6249L15.7756 14.7665C15.8256 14.8415 15.9256 14.8665 16.0006 14.8165C16.9673 14.1249 17.184 12.8249 16.4506 11.8415Z" fill="#292D32"/>
</g>
</g>
</g>
</svg>
