<svg width="16" height="16" viewBox="0 0 16 16" fill="none" xmlns="http://www.w3.org/2000/svg">
<g id="icon/ic_clock_outline">
<path id="Union" fill-rule="evenodd" clip-rule="evenodd" d="M4.29621 2.45685C5.39254 1.72431 6.68147 1.33331 8.00001 1.33331C8.87549 1.33331 9.7424 1.50575 10.5512 1.84078C11.3601 2.17581 12.095 2.66688 12.7141 3.28593C13.3331 3.90499 13.8242 4.63992 14.1592 5.44876C14.4942 6.25759 14.6667 7.1245 14.6667 7.99998C14.6667 9.31852 14.2757 10.6075 13.5431 11.7038C12.8106 12.8001 11.7694 13.6546 10.5512 14.1592C9.33306 14.6638 7.99262 14.7958 6.69941 14.5385C5.4062 14.2813 4.21832 13.6464 3.28597 12.714C2.35362 11.7817 1.71868 10.5938 1.46144 9.30058C1.20421 8.00738 1.33623 6.66693 1.84082 5.44876C2.3454 4.23058 3.19988 3.18939 4.29621 2.45685ZM5.03697 12.4345C5.91403 13.0205 6.94518 13.3333 8.00001 13.3333C9.4145 13.3333 10.7711 12.7714 11.7713 11.7712C12.7714 10.771 13.3333 9.41447 13.3333 7.99998C13.3333 6.94515 13.0206 5.914 12.4345 5.03694C11.8485 4.15988 11.0155 3.47629 10.041 3.07262C9.06645 2.66895 7.9941 2.56334 6.95953 2.76912C5.92497 2.97491 4.97466 3.48286 4.22878 4.22874C3.4829 4.97462 2.97495 5.92493 2.76916 6.9595C2.56337 7.99406 2.66899 9.06642 3.07266 10.041C3.47632 11.0155 4.15991 11.8485 5.03697 12.4345ZM8.66668 7.33331H10.6667C10.8435 7.33331 11.0131 7.40355 11.1381 7.52858C11.2631 7.6536 11.3333 7.82317 11.3333 7.99998C11.3333 8.17679 11.2631 8.34636 11.1381 8.47138C11.0131 8.59641 10.8435 8.66665 10.6667 8.66665H8.00001C7.8232 8.66665 7.65363 8.59641 7.52861 8.47138C7.40358 8.34636 7.33334 8.17679 7.33334 7.99998V5.33331C7.33334 5.1565 7.40358 4.98693 7.52861 4.86191C7.65363 4.73688 7.8232 4.66665 8.00001 4.66665C8.17682 4.66665 8.34639 4.73688 8.47141 4.86191C8.59644 4.98693 8.66668 5.1565 8.66668 5.33331V7.33331Z" fill="#919EAB"/>
</g>
</svg>
