<svg width="72" height="72" viewBox="0 0 72 72" fill="none" xmlns="http://www.w3.org/2000/svg">
<g id="vuesax/outline/cup">
<g id="cup">
<path id="Vector" d="M36.4512 58.05C35.2212 58.05 34.2012 57.03 34.2012 55.8V49.5C34.2012 48.27 35.2212 47.25 36.4512 47.25C37.6812 47.25 38.7012 48.27 38.7012 49.5V55.8C38.7012 57.03 37.6812 58.05 36.4512 58.05Z" fill="#3F4760"/>
<path id="Vector_2" d="M53.7012 68.25H19.2012V63C19.2012 58.44 22.8912 54.75 27.4512 54.75H45.4512C50.0112 54.75 53.7012 58.44 53.7012 63V68.25ZM23.7012 63.75H49.2012V63C49.2012 60.93 47.5212 59.25 45.4512 59.25H27.4512C25.3812 59.25 23.7012 60.93 23.7012 63V63.75Z" fill="#3F4760"/>
<path id="Vector_3" d="M54.4512 68.25H18.4512C17.2212 68.25 16.2012 67.23 16.2012 66C16.2012 64.77 17.2212 63.75 18.4512 63.75H54.4512C55.6812 63.75 56.7012 64.77 56.7012 66C56.7012 67.23 55.6812 68.25 54.4512 68.25Z" fill="#3F4760"/>
<path id="Vector_4" d="M55.2921 37.3202C54.6621 37.3202 54.0321 37.0502 53.5821 36.5402C53.0121 35.8802 52.8621 34.9502 53.2221 34.1702C54.2421 31.8302 54.7521 29.3402 54.7521 26.7302V17.7302C54.7521 16.6802 54.5721 15.6602 54.2121 14.5802C54.1821 14.4902 54.1521 14.3702 54.1221 14.2502C54.0321 13.8002 54.0021 13.3502 54.0021 12.9302C54.0021 11.7002 55.0221 10.6802 56.2521 10.6802H58.0521C63.4221 10.6802 67.8021 15.1802 67.8021 20.7302C67.8021 25.3202 65.9121 29.8502 62.6421 33.1202C62.5821 33.1802 62.4021 33.3302 62.3721 33.3602C60.6021 34.8302 58.5921 36.4802 55.8921 37.2302C55.6821 37.2902 55.5021 37.3202 55.2921 37.3202ZM59.0421 15.2702C59.1921 16.0802 59.2521 16.9202 59.2521 17.7302V26.7302C59.2521 27.9602 59.1621 29.1302 58.9821 30.3302C59.1621 30.1802 59.3121 30.0602 59.4921 29.9102C61.8921 27.5102 63.3021 24.1502 63.3021 20.7302C63.3021 18.0302 61.4721 15.7502 59.0421 15.2702Z" fill="#3F4760"/>
<path id="Vector_5" d="M16.7412 37.2003C16.5012 37.2003 16.2912 37.1703 16.0512 37.0803C13.5912 36.3003 11.2812 34.8603 9.36117 32.9403C5.91117 29.1303 4.20117 24.9603 4.20117 20.5503C4.20117 15.0903 8.49117 10.8003 13.9512 10.8003H15.9012C16.6512 10.8003 17.3712 11.1903 17.7912 11.8203C18.2112 12.4503 18.2712 13.2603 17.9712 13.9503C17.4912 15.0303 17.2512 16.2603 17.2512 17.5503V26.5503C17.2512 29.1303 17.7612 31.6503 18.8112 34.0503C19.1712 34.8603 18.9912 35.7903 18.4212 36.4503C17.9712 36.9303 17.3712 37.2003 16.7412 37.2003ZM12.9012 15.3903C10.4712 15.8703 8.70117 17.9703 8.70117 20.5503C8.70117 23.8203 10.0212 26.9703 12.6312 29.8503C12.7512 30.0003 12.9012 30.1203 13.0512 30.2403C12.8412 29.0103 12.7512 27.7803 12.7512 26.5503V17.5503C12.7512 16.8303 12.8112 16.1103 12.9012 15.3903Z" fill="#3F4760"/>
<path id="Vector_6" d="M36 50.25C23.19 50.25 12.75 39.81 12.75 27V18C12.75 10.14 19.14 3.75 27 3.75H45C52.86 3.75 59.25 10.14 59.25 18V27C59.25 39.81 48.81 50.25 36 50.25ZM27 8.25C21.63 8.25 17.25 12.63 17.25 18V27C17.25 37.35 25.65 45.75 36 45.75C46.35 45.75 54.75 37.35 54.75 27V18C54.75 12.63 50.37 8.25 45 8.25H27Z" fill="#3F4760"/>
</g>
</g>
</svg>
