<svg width="22" height="22" viewBox="0 0 22 22" fill="none" xmlns="http://www.w3.org/2000/svg">
<g id="vuesax/outline/personalcard">
<g id="vuesax/outline/personalcard_2">
<g id="personalcard">
<path id="Vector" d="M15.5833 19.9375H6.41658C2.37409 19.9375 1.14575 18.7092 1.14575 14.6667V7.33333C1.14575 3.29083 2.37409 2.0625 6.41658 2.0625H15.5833C19.6258 2.0625 20.8541 3.29083 20.8541 7.33333V14.6667C20.8541 18.7092 19.6258 19.9375 15.5833 19.9375ZM6.41658 3.4375C3.13492 3.4375 2.52075 4.06083 2.52075 7.33333V14.6667C2.52075 17.9392 3.13492 18.5625 6.41658 18.5625H15.5833C18.8649 18.5625 19.4791 17.9392 19.4791 14.6667V7.33333C19.4791 4.06083 18.8649 3.4375 15.5833 3.4375H6.41658Z" fill="#637381"/>
<path id="Vector_2" d="M17.4166 8.02087H12.8333C12.4574 8.02087 12.1458 7.70921 12.1458 7.33337C12.1458 6.95754 12.4574 6.64587 12.8333 6.64587H17.4166C17.7924 6.64587 18.1041 6.95754 18.1041 7.33337C18.1041 7.70921 17.7924 8.02087 17.4166 8.02087Z" fill="#637381"/>
<path id="Vector_3" d="M17.4167 11.6875H13.75C13.3742 11.6875 13.0625 11.3758 13.0625 11C13.0625 10.6242 13.3742 10.3125 13.75 10.3125H17.4167C17.7925 10.3125 18.1042 10.6242 18.1042 11C18.1042 11.3758 17.7925 11.6875 17.4167 11.6875Z" fill="#637381"/>
<path id="Vector_4" d="M17.4166 15.3541H15.5833C15.2074 15.3541 14.8958 15.0425 14.8958 14.6666C14.8958 14.2908 15.2074 13.9791 15.5833 13.9791H17.4166C17.7924 13.9791 18.1041 14.2908 18.1041 14.6666C18.1041 15.0425 17.7924 15.3541 17.4166 15.3541Z" fill="#637381"/>
<path id="Vector_5" d="M7.79125 11.0366C6.49875 11.0366 5.44458 9.98243 5.44458 8.68993C5.44458 7.39743 6.49875 6.34326 7.79125 6.34326C9.08375 6.34326 10.1379 7.39743 10.1379 8.68993C10.1379 9.98243 9.08375 11.0366 7.79125 11.0366ZM7.79125 7.71826C7.25958 7.71826 6.81958 8.15826 6.81958 8.68993C6.81958 9.22159 7.25958 9.6616 7.79125 9.6616C8.32291 9.6616 8.76291 9.22159 8.76291 8.68993C8.76291 8.15826 8.32291 7.71826 7.79125 7.71826Z" fill="#637381"/>
<path id="Vector_6" d="M10.9999 15.6566C10.6516 15.6566 10.3491 15.3908 10.3124 15.0333C10.2116 14.0433 9.41408 13.2458 8.41491 13.1541C7.99325 13.1174 7.57158 13.1174 7.14991 13.1541C6.15075 13.2458 5.35325 14.0341 5.25241 15.0333C5.21575 15.4091 4.87658 15.6933 4.50075 15.6474C4.12491 15.6108 3.84991 15.2716 3.88658 14.8958C4.05158 13.2458 5.36241 11.9349 7.02158 11.7883C7.52575 11.7424 8.03908 11.7424 8.54325 11.7883C10.1932 11.9441 11.5132 13.2549 11.6782 14.8958C11.7149 15.2716 11.4399 15.6108 11.0641 15.6474C11.0457 15.6566 11.0182 15.6566 10.9999 15.6566Z" fill="#637381"/>
</g>
</g>
</g>
</svg>
