<svg width="16" height="16" viewBox="0 0 16 16" fill="none" xmlns="http://www.w3.org/2000/svg">
<g id="icon/ic_call">
<path id="Path" d="M11.6 14.6667C5.93292 14.6593 1.34068 10.0671 1.33334 4.39999C1.33334 2.70632 2.70633 1.33333 4.4 1.33333C4.57223 1.33202 4.74417 1.34765 4.91334 1.37999C5.07688 1.4042 5.23765 1.44439 5.39334 1.49999C5.61613 1.57817 5.78096 1.76835 5.82667 1.99999L6.74 6C6.79002 6.22061 6.72476 6.45153 6.56667 6.61333C6.48 6.70666 6.47334 6.71333 5.65334 7.14C6.31 8.58057 7.46214 9.73743 8.9 10.4C9.33334 9.57333 9.34 9.56666 9.43334 9.48C9.59513 9.3219 9.82606 9.25664 10.0467 9.30666L14.0467 10.22C14.2707 10.272 14.4521 10.4358 14.5267 10.6533C14.5829 10.8116 14.6253 10.9744 14.6533 11.14C14.6802 11.3075 14.6935 11.477 14.6933 11.6467C14.6677 13.3325 13.286 14.6815 11.6 14.6667Z" fill="#637381"/>
</g>
</svg>
