<svg width="22" height="22" viewBox="0 0 22 22" fill="none" xmlns="http://www.w3.org/2000/svg">
<g id="healthicons:communication-outline">
<g id="Group">
<path id="Vector" fill-rule="evenodd" clip-rule="evenodd" d="M11.9166 15.125H13.5208C16.6851 15.125 19.2499 12.5602 19.2499 9.39583C19.2499 6.2315 16.6851 3.66667 13.5208 3.66667H8.47908C5.31475 3.66667 2.74992 6.2315 2.74992 9.39583C2.74992 13.0235 5.14104 15.2414 7.75675 16.6036C9.05613 17.2805 10.3647 17.7173 11.3542 17.9855C11.5568 18.0405 11.7452 18.0881 11.9166 18.1289V15.125ZM12.8333 19.25C12.8333 19.25 12.4868 19.1996 11.9166 19.0703C9.27475 18.4708 1.83325 16.1815 1.83325 9.39583C1.83325 5.7255 4.80875 2.75 8.47908 2.75H13.5208C17.1911 2.75 20.1666 5.7255 20.1666 9.39583C20.1666 13.0662 17.1911 16.0417 13.5208 16.0417H12.8333V19.25Z" fill="#637381"/>
<path id="Vector_2" fill-rule="evenodd" clip-rule="evenodd" d="M10.9999 10.0833C11.1215 10.0833 11.2381 10.035 11.324 9.94909C11.41 9.86314 11.4583 9.74656 11.4583 9.625C11.4583 9.50344 11.41 9.38686 11.324 9.30091C11.2381 9.21495 11.1215 9.16667 10.9999 9.16667C10.8784 9.16667 10.7618 9.21495 10.6758 9.30091C10.5899 9.38686 10.5416 9.50344 10.5416 9.625C10.5416 9.74656 10.5899 9.86314 10.6758 9.94909C10.7618 10.035 10.8784 10.0833 10.9999 10.0833ZM10.9999 11C11.3646 11 11.7143 10.8551 11.9722 10.5973C12.2301 10.3394 12.3749 9.98967 12.3749 9.625C12.3749 9.26033 12.2301 8.91059 11.9722 8.65273C11.7143 8.39487 11.3646 8.25 10.9999 8.25C10.6352 8.25 10.2855 8.39487 10.0276 8.65273C9.76978 8.91059 9.62492 9.26033 9.62492 9.625C9.62492 9.98967 9.76978 10.3394 10.0276 10.5973C10.2855 10.8551 10.6352 11 10.9999 11ZM14.6666 10.0833C14.7881 10.0833 14.9047 10.035 14.9907 9.94909C15.0766 9.86314 15.1249 9.74656 15.1249 9.625C15.1249 9.50344 15.0766 9.38686 14.9907 9.30091C14.9047 9.21495 14.7881 9.16667 14.6666 9.16667C14.545 9.16667 14.4284 9.21495 14.3425 9.30091C14.2565 9.38686 14.2083 9.50344 14.2083 9.625C14.2083 9.74656 14.2565 9.86314 14.3425 9.94909C14.4284 10.035 14.545 10.0833 14.6666 10.0833ZM14.6666 11C15.0313 11 15.381 10.8551 15.6389 10.5973C15.8967 10.3394 16.0416 9.98967 16.0416 9.625C16.0416 9.26033 15.8967 8.91059 15.6389 8.65273C15.381 8.39487 15.0313 8.25 14.6666 8.25C14.3019 8.25 13.9522 8.39487 13.6943 8.65273C13.4365 8.91059 13.2916 9.26033 13.2916 9.625C13.2916 9.98967 13.4365 10.3394 13.6943 10.5973C13.9522 10.8551 14.3019 11 14.6666 11ZM7.33325 10.0833C7.45481 10.0833 7.57139 10.035 7.65734 9.94909C7.7433 9.86314 7.79159 9.74656 7.79159 9.625C7.79159 9.50344 7.7433 9.38686 7.65734 9.30091C7.57139 9.21495 7.45481 9.16667 7.33325 9.16667C7.21169 9.16667 7.09512 9.21495 7.00916 9.30091C6.92321 9.38686 6.87492 9.50344 6.87492 9.625C6.87492 9.74656 6.92321 9.86314 7.00916 9.94909C7.09512 10.035 7.21169 10.0833 7.33325 10.0833ZM7.33325 11C7.69792 11 8.04766 10.8551 8.30552 10.5973C8.56339 10.3394 8.70825 9.98967 8.70825 9.625C8.70825 9.26033 8.56339 8.91059 8.30552 8.65273C8.04766 8.39487 7.69792 8.25 7.33325 8.25C6.96858 8.25 6.61884 8.39487 6.36098 8.65273C6.10312 8.91059 5.95825 9.26033 5.95825 9.625C5.95825 9.98967 6.10312 10.3394 6.36098 10.5973C6.61884 10.8551 6.96858 11 7.33325 11Z" fill="#637381"/>
</g>
</g>
</svg>
