<svg width="20" height="20" viewBox="0 0 20 20" fill="none" xmlns="http://www.w3.org/2000/svg">
<g id="solar:calendar-outline">
<g id="Group">
<path id="Vector" d="M13.4884 11.2501C13.6734 11.2501 13.8509 11.1748 13.9817 11.0409C14.1126 10.9069 14.1861 10.7253 14.1861 10.5358C14.1861 10.3464 14.1126 10.1647 13.9817 10.0307C13.8509 9.89679 13.6734 9.82153 13.4884 9.82153C13.3033 9.82153 13.1259 9.89679 12.9951 10.0307C12.8642 10.1647 12.7907 10.3464 12.7907 10.5358C12.7907 10.7253 12.8642 10.9069 12.9951 11.0409C13.1259 11.1748 13.3033 11.2501 13.4884 11.2501ZM13.4884 14.1072C13.6734 14.1072 13.8509 14.032 13.9817 13.898C14.1126 13.7641 14.1861 13.5824 14.1861 13.393C14.1861 13.2035 14.1126 13.0218 13.9817 12.8879C13.8509 12.7539 13.6734 12.6787 13.4884 12.6787C13.3033 12.6787 13.1259 12.7539 12.9951 12.8879C12.8642 13.0218 12.7907 13.2035 12.7907 13.393C12.7907 13.5824 12.8642 13.7641 12.9951 13.898C13.1259 14.032 13.3033 14.1072 13.4884 14.1072ZM10.6977 10.5358C10.6977 10.7253 10.6242 10.9069 10.4933 11.0409C10.3625 11.1748 10.185 11.2501 10 11.2501C9.81498 11.2501 9.63752 11.1748 9.50668 11.0409C9.37584 10.9069 9.30234 10.7253 9.30234 10.5358C9.30234 10.3464 9.37584 10.1647 9.50668 10.0307C9.63752 9.89679 9.81498 9.82153 10 9.82153C10.185 9.82153 10.3625 9.89679 10.4933 10.0307C10.6242 10.1647 10.6977 10.3464 10.6977 10.5358ZM10.6977 13.393C10.6977 13.5824 10.6242 13.7641 10.4933 13.898C10.3625 14.032 10.185 14.1072 10 14.1072C9.81498 14.1072 9.63752 14.032 9.50668 13.898C9.37584 13.7641 9.30234 13.5824 9.30234 13.393C9.30234 13.2035 9.37584 13.0218 9.50668 12.8879C9.63752 12.7539 9.81498 12.6787 10 12.6787C10.185 12.6787 10.3625 12.7539 10.4933 12.8879C10.6242 13.0218 10.6977 13.2035 10.6977 13.393ZM6.51164 11.2501C6.69667 11.2501 6.87413 11.1748 7.00497 11.0409C7.13581 10.9069 7.20931 10.7253 7.20931 10.5358C7.20931 10.3464 7.13581 10.1647 7.00497 10.0307C6.87413 9.89679 6.69667 9.82153 6.51164 9.82153C6.3266 9.82153 6.14915 9.89679 6.01831 10.0307C5.88747 10.1647 5.81396 10.3464 5.81396 10.5358C5.81396 10.7253 5.88747 10.9069 6.01831 11.0409C6.14915 11.1748 6.3266 11.2501 6.51164 11.2501ZM6.51164 14.1072C6.69667 14.1072 6.87413 14.032 7.00497 13.898C7.13581 13.7641 7.20931 13.5824 7.20931 13.393C7.20931 13.2035 7.13581 13.0218 7.00497 12.8879C6.87413 12.7539 6.69667 12.6787 6.51164 12.6787C6.3266 12.6787 6.14915 12.7539 6.01831 12.8879C5.88747 13.0218 5.81396 13.2035 5.81396 13.393C5.81396 13.5824 5.88747 13.7641 6.01831 13.898C6.14915 14.032 6.3266 14.1072 6.51164 14.1072Z" fill="#919EAB"/>
<path id="Vector_2" fill-rule="evenodd" clip-rule="evenodd" d="M6.51163 2.5C6.6504 2.5 6.7835 2.55644 6.88163 2.65691C6.97975 2.75737 7.03488 2.89363 7.03488 3.03571V3.58071C7.49674 3.57143 8.00535 3.57143 8.56488 3.57143H11.4344C11.9947 3.57143 12.5033 3.57143 12.9651 3.58071V3.03571C12.9651 2.89363 13.0202 2.75737 13.1184 2.65691C13.2165 2.55644 13.3496 2.5 13.4884 2.5C13.6271 2.5 13.7602 2.55644 13.8584 2.65691C13.9565 2.75737 14.0116 2.89363 14.0116 3.03571V3.62643C14.193 3.64071 14.3647 3.65857 14.5272 3.68071C15.3449 3.79357 16.007 4.03071 16.5295 4.565C17.0514 5.1 17.283 5.77786 17.3933 6.615C17.5 7.42929 17.5 8.46857 17.5 9.78143V11.29C17.5 12.6029 17.5 13.6429 17.3933 14.4564C17.283 15.2936 17.0514 15.9714 16.5295 16.5064C16.007 17.0407 15.3449 17.2779 14.5272 17.3907C13.7319 17.5 12.7167 17.5 11.4344 17.5H8.56558C7.28326 17.5 6.26744 17.5 5.47279 17.3907C4.65512 17.2779 3.99302 17.0407 3.47047 16.5064C2.9486 15.9714 2.71698 15.2936 2.60674 14.4564C2.5 13.6421 2.5 12.6029 2.5 11.29V9.78143C2.5 8.46857 2.5 7.42857 2.60674 6.615C2.71698 5.77786 2.9486 5.1 3.47047 4.565C3.99302 4.03071 4.65512 3.79357 5.47279 3.68071C5.63535 3.65857 5.80767 3.64071 5.98837 3.62643V3.03571C5.98837 2.89363 6.0435 2.75737 6.14163 2.65691C6.23976 2.55644 6.37285 2.5 6.51163 2.5ZM5.61163 4.74286C4.91047 4.83929 4.50581 5.02071 4.2107 5.32286C3.91558 5.625 3.73837 6.03929 3.64419 6.75786C3.62814 6.87929 3.61488 7.00786 3.60372 7.14286H16.3963C16.3851 7.00714 16.3719 6.87929 16.3558 6.75714C16.2616 6.03929 16.0844 5.625 15.7893 5.32286C15.4942 5.02071 15.0895 4.83929 14.3877 4.74286C13.6712 4.64429 12.7258 4.64286 11.3953 4.64286H8.60465C7.27419 4.64286 6.32953 4.64429 5.61163 4.74286ZM3.54651 9.82143C3.54651 9.21143 3.54651 8.68071 3.55558 8.21429H16.4444C16.4535 8.68071 16.4535 9.21143 16.4535 9.82143V11.25C16.4535 12.6121 16.4521 13.58 16.3558 14.3143C16.2616 15.0321 16.0844 15.4464 15.7893 15.7486C15.4942 16.0507 15.0895 16.2321 14.3877 16.3286C13.6712 16.4271 12.7258 16.4286 11.3953 16.4286H8.60465C7.27419 16.4286 6.32953 16.4271 5.61163 16.3286C4.91047 16.2321 4.50581 16.0507 4.2107 15.7486C3.91558 15.4464 3.73837 15.0321 3.64419 14.3136C3.54791 13.58 3.54651 12.6121 3.54651 11.25V9.82143Z" fill="#919EAB"/>
</g>
</g>
</svg>
