<svg width="16" height="16" viewBox="0 0 16 16" fill="none" xmlns="http://www.w3.org/2000/svg">
<rect x="0.5" y="0.5" width="15" height="15" rx="7.5" fill="#229A16"/>
<path d="M8 3C7.0111 3 6.0444 3.29324 5.22215 3.84265C4.39991 4.39206 3.75904 5.17295 3.3806 6.08658C3.00217 7.00021 2.90315 8.00555 3.09608 8.97545C3.289 9.94536 3.76521 10.8363 4.46447 11.5355C5.16373 12.2348 6.05465 12.711 7.02455 12.9039C7.99446 13.0969 8.99979 12.9978 9.91342 12.6194C10.8271 12.241 11.6079 11.6001 12.1573 10.7779C12.7068 9.95561 13 8.98891 13 8C13 7.34339 12.8707 6.69321 12.6194 6.08658C12.3681 5.47995 11.9998 4.92876 11.5355 4.46447C11.0712 4.00017 10.52 3.63188 9.91342 3.3806C9.30679 3.12933 8.65661 3 8 3ZM8 12C7.20888 12 6.43552 11.7654 5.77772 11.3259C5.11992 10.8864 4.60723 10.2616 4.30448 9.53073C4.00173 8.79983 3.92252 7.99556 4.07686 7.21964C4.2312 6.44372 4.61216 5.73098 5.17158 5.17157C5.73099 4.61216 6.44372 4.2312 7.21964 4.07686C7.99557 3.92252 8.79983 4.00173 9.53074 4.30448C10.2616 4.60723 10.8864 5.11992 11.3259 5.77772C11.7654 6.43552 12 7.20888 12 8C12 9.06087 11.5786 10.0783 10.8284 10.8284C10.0783 11.5786 9.06087 12 8 12Z" fill="white"/>
<path d="M9.34997 6.19509L7.45997 8.69509L6.64497 7.64009C6.56342 7.53533 6.44359 7.46726 6.31184 7.45085C6.1801 7.43444 6.04723 7.47103 5.94247 7.55259C5.83771 7.63414 5.76964 7.75397 5.75323 7.88572C5.73682 8.01746 5.77342 8.15033 5.85497 8.25509L7.06997 9.81009C7.11706 9.86968 7.1771 9.91776 7.24554 9.95068C7.31398 9.9836 7.38903 10.0005 7.46497 10.0001C7.54133 9.9999 7.61663 9.98223 7.6851 9.94843C7.75357 9.91463 7.81339 9.8656 7.85997 9.80509L10.145 6.80509C10.2259 6.699 10.2613 6.56513 10.2435 6.43291C10.2257 6.3007 10.1561 6.18098 10.05 6.10009C9.94389 6.0192 9.81001 5.98376 9.6778 6.00158C9.54558 6.01939 9.42586 6.089 9.34497 6.19509H9.34997Z" fill="white"/>
<rect x="0.5" y="0.5" width="15" height="15" rx="7.5" stroke="white"/>
</svg>
