<svg width="72" height="72" viewBox="0 0 72 72" fill="none" xmlns="http://www.w3.org/2000/svg">
<g id="vuesax/outline/danger">
<g id="danger">
<path id="Vector" d="M36 44.25C34.77 44.25 33.75 43.23 33.75 42V27C33.75 25.77 34.77 24.75 36 24.75C37.23 24.75 38.25 25.77 38.25 27V42C38.25 43.23 37.23 44.25 36 44.25Z" fill="#3F4760"/>
<path id="Vector_2" d="M36 54.0002C35.82 54.0002 35.61 53.9702 35.4 53.9402C35.22 53.9102 35.04 53.8502 34.86 53.7602C34.68 53.7002 34.5 53.6102 34.32 53.4902C34.17 53.3702 34.02 53.2502 33.87 53.1302C33.33 52.5602 33 51.7802 33 51.0002C33 50.2202 33.33 49.4402 33.87 48.8702C34.02 48.7502 34.17 48.6302 34.32 48.5102C34.5 48.3902 34.68 48.3002 34.86 48.2402C35.04 48.1502 35.22 48.0902 35.4 48.0602C35.79 47.9702 36.21 47.9702 36.57 48.0602C36.78 48.0902 36.96 48.1502 37.14 48.2402C37.32 48.3002 37.5 48.3902 37.68 48.5102C37.83 48.6302 37.98 48.7502 38.13 48.8702C38.67 49.4402 39 50.2202 39 51.0002C39 51.7802 38.67 52.5602 38.13 53.1302C37.98 53.2502 37.83 53.3702 37.68 53.4902C37.5 53.6102 37.32 53.7002 37.14 53.7602C36.96 53.8502 36.78 53.9102 36.57 53.9402C36.39 53.9702 36.18 54.0002 36 54.0002Z" fill="#3F4760"/>
<path id="Vector_3" d="M54.1814 66.4795H17.8214C11.9714 66.4795 7.50139 64.3495 5.22139 60.5095C2.97139 56.6695 3.27139 51.7195 6.12139 46.5895L24.3014 13.8895C27.3014 8.48953 31.4414 5.51953 36.0014 5.51953C40.5614 5.51953 44.7014 8.48953 47.7014 13.8895L65.8814 46.6195C68.7314 51.7495 69.0614 56.6695 66.7814 60.5395C64.5014 64.3495 60.0314 66.4795 54.1814 66.4795ZM36.0014 10.0195C33.1814 10.0195 30.4214 12.1795 28.2314 16.0795L10.0814 48.8095C8.04139 52.4695 7.71139 55.8295 9.12139 58.2595C10.5314 60.6895 13.6514 62.0095 17.8514 62.0095H54.2114C58.4114 62.0095 61.5014 60.6895 62.9414 58.2595C64.3814 55.8295 64.0214 52.4995 61.9814 48.8095L43.7714 16.0795C41.5814 12.1795 38.8214 10.0195 36.0014 10.0195Z" fill="#3F4760"/>
</g>
</g>
</svg>
