<svg width="22" height="22" viewBox="0 0 22 22" fill="none" xmlns="http://www.w3.org/2000/svg">
<g id="Diagnoses">
<g id="#">
<path id="Vector" fill-rule="evenodd" clip-rule="evenodd" d="M9.29436 3.94092C9.29387 3.58118 9.61369 3.30537 9.96945 3.35873C10.1847 3.39102 10.3604 3.54162 10.4406 3.74393C10.66 4.29739 10.8291 4.30087 11.9754 4.2922L17.7759 4.29057C18.6702 4.29491 19.3261 4.3965 19.5511 3.77141C19.6503 3.49557 19.8688 3.2538 20.1619 3.25548C20.4587 3.25718 20.6984 3.49814 20.6985 3.79489L20.7062 17.7448C20.7065 18.2973 20.2587 18.7454 19.7062 18.7454L11.2444 18.7457C11.0848 18.7457 10.9354 18.8185 10.8309 18.9391C10.5076 19.3119 10.726 19.956 11.2194 19.9523C12.1581 19.9452 13.3712 19.9191 14.9384 19.9191C23.1627 19.9191 21.9347 21.2219 21.9356 13.3741C21.936 10.7933 22.0466 5.74035 21.936 3.34909C21.8838 2.21994 21.2428 2.09171 20.2363 2.07757C19.9441 2.07346 19.683 1.89277 19.5838 1.61796C19.4961 1.33836 19.2765 1.13684 18.9847 1.1107C17.359 0.965095 12.5025 0.961584 10.9535 1.10932C10.7004 1.13346 10.5038 1.3134 10.4237 1.55468C10.3203 1.86589 10.0271 2.0722 9.69945 2.08532C7.6241 2.16842 8.06221 2.86311 8.06456 6.53243V8.45575C8.06456 8.68847 8.21418 8.89507 8.42828 8.9863C8.8251 9.15539 9.30114 8.88183 9.30055 8.45048L9.29436 3.94092ZM11.6357 2.63294C11.6515 2.40491 11.841 2.22798 12.0696 2.22776L17.9376 2.22207C18.174 2.22184 18.3675 2.41016 18.3735 2.64646C18.3799 2.89121 18.1833 3.09309 17.9385 3.09331L12.0704 3.09858C11.8179 3.0988 11.6181 2.88485 11.6357 2.63294Z" fill="#637381"/>
<path id="Vector_2" fill-rule="evenodd" clip-rule="evenodd" d="M15.8751 16.1349C16.1057 16.7967 16.2367 17.5031 17.0065 17.3671C17.3969 17.2981 17.446 17.1328 17.5961 16.7548C17.6109 16.7179 17.7614 16.3314 17.7652 16.3257C18.1586 15.7602 18.6113 16.3915 18.9237 15.761C19.0674 15.4707 18.9886 15.1553 18.6732 15.0026C17.9933 14.6733 17.1925 15.0335 16.7987 15.2856C16.6478 14.647 16.5516 14.472 16.0485 14.2048C15.0659 14.2795 15.4402 14.5958 14.8878 15.2137C14.4423 15.2137 13.7247 15.1106 13.4 15.329C12.4683 15.9559 13.9451 17.0175 15.8751 16.1349Z" fill="#637381"/>
<path id="Vector_3" fill-rule="evenodd" clip-rule="evenodd" d="M11.8543 9.7398H18.1457C19.2639 9.7398 19.3699 8.57056 18.1457 8.57056H11.8543C10.6208 8.57056 10.7382 9.7398 11.8543 9.7398Z" fill="#637381"/>
<path id="Vector_4" fill-rule="evenodd" clip-rule="evenodd" d="M11.3726 6.03848C10.6808 6.39575 10.9398 7.04655 11.7257 7.11353L18.6779 7.0295C19.2544 6.74896 19.0828 6.02143 18.2727 5.94997C17.594 5.8907 11.6396 5.90044 11.3726 6.03848Z" fill="#637381"/>
<path id="Vector_5" fill-rule="evenodd" clip-rule="evenodd" d="M11.5162 11.2286C11.4284 11.2541 11.3521 11.2866 11.2869 11.3248C11.5064 11.6467 11.6968 11.9886 11.8536 12.3479L18.6109 12.2988C19.1729 12.0872 19.1564 11.2972 18.3612 11.1981L11.5162 11.2286Z" fill="#637381"/>
<path id="Vector_6" fill-rule="evenodd" clip-rule="evenodd" d="M6 9C2.68634 9 0 11.5588 0 14.7152C0 15.9412 0.405726 17.0773 1.09648 18.0078C1.00573 18.1763 0.955066 18.3671 0.955066 18.5689C0.955066 19.2502 1.5348 19.8029 2.25022 19.8029C2.96564 19.8029 3.54581 19.2502 3.54581 18.5689C3.54581 17.8876 2.96564 17.3349 2.25022 17.3349C2.08238 17.3349 1.92203 17.3656 1.77489 17.4206C1.22819 16.6481 0.90925 15.7172 0.90925 14.7152C0.90925 12.0366 3.1881 9.86581 6 9.86581C8.81145 9.86581 11.0907 12.0366 11.0907 14.7152C11.0907 16.243 9.48943 19.1834 7.79736 19.1834C6.96564 19.1834 6.29119 18.5714 6.29119 17.8166C6.29119 17.7174 6.30308 17.6203 6.32511 17.527C7.51189 17.4585 8.47225 16.8066 8.66343 15.966H8.70529C8.85815 15.6054 8.94449 15.2015 8.96079 14.7719V12.8995C8.96079 11.6369 8.9837 11.5058 7.87225 11.2024L7.25771 11.0347C7.0141 10.9682 6.68414 11.0876 6.68414 11.3289C6.68414 11.5701 6.74934 11.8088 6.99251 11.8752L7.94582 12.2703V15.2633C7.87048 15.5247 7.737 15.7634 7.55991 15.966H7.56916C7.20925 16.3401 6.69207 16.575 6.11762 16.575C5.21101 16.575 4.44758 15.9912 4.21894 15.1969V12.2039L5.17225 11.8088C5.41586 11.7424 5.48106 11.5037 5.48106 11.2625V11.262C5.48106 11.0208 5.1511 10.9018 4.90749 10.9682L4.29295 11.1359C3.18106 11.4394 3.20396 11.5705 3.20396 12.8331L3.20441 14.7055C3.25683 16.0833 4.02643 17.2 5.42247 17.4644C5.4022 17.5791 5.39163 17.6968 5.39163 17.8166C5.39163 19.0224 6.46872 20 7.79736 20C10.1656 20 12 16.7751 12 14.7152C12 11.7765 9.31322 9 6 9Z" fill="#637381"/>
</g>
</g>
</svg>
