<svg width="16" height="16" viewBox="0 0 16 16" fill="none" xmlns="http://www.w3.org/2000/svg">
<g id="vuesax/outline/directbox-send">
<g id="vuesax/outline/directbox-send_2">
<g id="directbox-send">
<path id="Vector" d="M7.99964 5.83365C7.7263 5.83365 7.49964 5.60699 7.49964 5.33365V2.54032L7.01964 3.02032C6.8263 3.21365 6.5063 3.21365 6.31297 3.02032C6.11964 2.82699 6.11964 2.50699 6.31297 2.31365L7.6463 0.980319C7.7863 0.840319 8.0063 0.793653 8.19297 0.873653C8.37964 0.946986 8.49964 1.13365 8.49964 1.33365V5.33365C8.49964 5.60699 8.27297 5.83365 7.99964 5.83365Z" fill="#8AC6FF"/>
<path id="Vector_2" d="M9.33313 3.1663C9.20646 3.1663 9.0798 3.11964 8.9798 3.01964L7.64646 1.6863C7.45313 1.49297 7.45313 1.17297 7.64646 0.979637C7.8398 0.786303 8.1598 0.786303 8.35313 0.979637L9.68646 2.31297C9.8798 2.5063 9.8798 2.8263 9.68646 3.01964C9.58646 3.11964 9.4598 3.1663 9.33313 3.1663Z" fill="#8AC6FF"/>
<path id="Vector_3" d="M10.6667 15.1667H5.33333C1.5 15.1667 1.5 13.1333 1.5 11.3333V10.6667C1.5 9.18 1.5 7.5 4.66667 7.5C5.46 7.5 5.75333 7.69333 6.16667 8C6.18667 8.02 6.21333 8.03333 6.23333 8.06L6.91333 8.78C7.48667 9.38667 8.52667 9.38667 9.1 8.78L9.78 8.06C9.8 8.04 9.82 8.02 9.84667 8C10.26 7.68667 10.5533 7.5 11.3467 7.5C14.5133 7.5 14.5133 9.18 14.5133 10.6667V11.3333C14.5 13.88 13.2133 15.1667 10.6667 15.1667ZM4.66667 8.5C2.5 8.5 2.5 9.18 2.5 10.6667V11.3333C2.5 13.16 2.5 14.1667 5.33333 14.1667H10.6667C12.6533 14.1667 13.5 13.32 13.5 11.3333V10.6667C13.5 9.18 13.5 8.5 11.3333 8.5C10.8533 8.5 10.7533 8.56 10.4667 8.77333L9.82 9.46C9.34 9.96667 8.69333 10.2467 8 10.2467C7.30667 10.2467 6.66 9.96667 6.18 9.46L5.53333 8.77333C5.24667 8.56 5.14667 8.5 4.66667 8.5Z" fill="#8AC6FF"/>
<path id="Vector_4" d="M3.3335 8.5C3.06016 8.5 2.8335 8.27333 2.8335 8V6.66667C2.8335 5.37333 2.8335 3.76667 5.28683 3.53333C5.5535 3.5 5.80683 3.70667 5.8335 3.98667C5.86016 4.26 5.66016 4.50667 5.38016 4.53333C3.8335 4.67333 3.8335 5.3 3.8335 6.66667V8C3.8335 8.27333 3.60683 8.5 3.3335 8.5Z" fill="#8AC6FF"/>
<path id="Vector_5" d="M12.6661 8.50015C12.3928 8.50015 12.1661 8.27348 12.1661 8.00015V6.66681C12.1661 5.30015 12.1661 4.67348 10.6195 4.52681C10.3461 4.50015 10.1461 4.25348 10.1728 3.98015C10.1995 3.70681 10.4395 3.50015 10.7195 3.53348C13.1728 3.76682 13.1728 5.37348 13.1728 6.66681V8.00015C13.1661 8.27348 12.9395 8.50015 12.6661 8.50015Z" fill="#8AC6FF"/>
</g>
</g>
</g>
</svg>
