<svg width="16" height="16" viewBox="0 0 16 16" fill="none" xmlns="http://www.w3.org/2000/svg">
<rect x="0.5" y="0.5" width="15" height="15" rx="7.5" fill="#B78103"/>
<path d="M8 13.375C5.035 13.375 2.625 10.965 2.625 8C2.625 5.035 5.035 2.625 8 2.625C10.965 2.625 13.375 5.035 13.375 8C13.375 10.965 10.965 13.375 8 13.375ZM8 3.375C5.45 3.375 3.375 5.45 3.375 8C3.375 10.55 5.45 12.625 8 12.625C10.55 12.625 12.625 10.55 12.625 8C12.625 5.45 10.55 3.375 8 3.375Z" fill="white"/>
<path d="M9.85531 9.96488C9.79031 9.96488 9.72531 9.94988 9.66531 9.90988L8.11531 8.98488C7.73031 8.75488 7.44531 8.24988 7.44531 7.80488V5.75488C7.44531 5.54988 7.61531 5.37988 7.82031 5.37988C8.02531 5.37988 8.19531 5.54988 8.19531 5.75488V7.80488C8.19531 7.98488 8.34531 8.24988 8.50031 8.33988L10.0503 9.26488C10.2303 9.36988 10.2853 9.59988 10.1803 9.77988C10.1053 9.89988 9.98031 9.96488 9.85531 9.96488Z" fill="white"/>
<rect x="0.5" y="0.5" width="15" height="15" rx="7.5" stroke="white"/>
</svg>
