<svg width="24" height="24" viewBox="0 0 24 24" fill="none" xmlns="http://www.w3.org/2000/svg">
<g id="start adornment">
<path id="Vector" d="M16.1181 22C13.9823 22 12.0818 21.3796 10.4165 20.1389C8.75134 18.8982 7.57483 17.2963 6.88703 15.3333H3.08601C2.77831 15.3333 2.5202 15.2267 2.31169 15.0133C2.10317 14.8 1.99928 14.5363 2 14.2222C2 13.9074 2.10426 13.6433 2.31277 13.43C2.52129 13.2167 2.77903 13.1104 3.08601 13.1111H6.39833C6.36213 12.9074 6.34403 12.7222 6.34403 12.5556V11.4444C6.34403 11.2778 6.36213 11.0926 6.39833 10.8889H3.08601C2.77831 10.8889 2.5202 10.7822 2.31169 10.5689C2.10317 10.3556 1.99928 10.0919 2 9.77778C2 9.46296 2.10426 9.19889 2.31277 8.98556C2.52129 8.77222 2.77903 8.66593 3.08601 8.66667H6.88703C7.57483 6.7037 8.75134 5.10185 10.4165 3.86111C12.0818 2.62037 13.9823 2 16.1181 2C17.1136 2 18.0595 2.13889 18.9558 2.41667C19.8521 2.69444 20.6891 3.09259 21.4667 3.61111C21.7925 3.83333 21.9691 4.14815 21.9966 4.55556C22.0241 4.96296 21.8837 5.32407 21.5753 5.63889C21.358 5.86111 21.0822 5.99074 20.7477 6.02778C20.4132 6.06482 20.0918 5.99074 19.7833 5.80556C19.2403 5.49074 18.6611 5.24074 18.0457 5.05556C17.4303 4.87037 16.7878 4.77778 16.1181 4.77778C14.7606 4.77778 13.5254 5.13444 12.4126 5.84778C11.2998 6.56111 10.4535 7.50074 9.87354 8.66667H16.1181C16.4258 8.66667 16.6839 8.77333 16.8924 8.98667C17.1009 9.2 17.2048 9.4637 17.2041 9.77778C17.2041 10.0926 17.0998 10.3567 16.8913 10.57C16.6828 10.7833 16.4251 10.8896 16.1181 10.8889H9.16764C9.13144 11.0926 9.10429 11.2778 9.08619 11.4444C9.06809 11.6111 9.05904 11.7963 9.05904 12C9.05904 12.2037 9.06809 12.3889 9.08619 12.5556C9.10429 12.7222 9.13144 12.9074 9.16764 13.1111H16.1181C16.4258 13.1111 16.6839 13.2178 16.8924 13.4311C17.1009 13.6444 17.2048 13.9081 17.2041 14.2222C17.2041 14.537 17.0998 14.8011 16.8913 15.0144C16.6828 15.2278 16.4251 15.3341 16.1181 15.3333H9.87354C10.4527 16.5 11.2987 17.44 12.4115 18.1533C13.5243 18.8667 14.7598 19.223 16.1181 19.2222C16.7697 19.2222 17.4122 19.1296 18.0457 18.9444C18.6792 18.7593 19.2584 18.5093 19.7833 18.1944C20.091 18.0093 20.4078 17.9304 20.7336 17.9578C21.0594 17.9852 21.3399 18.1196 21.5753 18.3611C21.883 18.6759 22.0234 19.037 21.9966 19.4444C21.9698 19.8519 21.7932 20.1667 21.4667 20.3889C20.6883 20.9074 19.851 21.3056 18.9547 21.5833C18.0584 21.8611 17.1129 22 16.1181 22Z" fill="#919EAB"/>
</g>
</svg>
