<svg width="12" height="12" viewBox="0 0 12 12" fill="none" xmlns="http://www.w3.org/2000/svg">
<g id="vuesax/outline/External-link" clip-path="url(#clip0_1697_112580)">
<path id="Vector" d="M11.37 6.005V7.505C11.37 10.22 10.21 11.38 7.495 11.38H4.495C1.78 11.38 0.619995 10.22 0.619995 7.505V4.505C0.619995 1.79 1.78 0.630005 4.495 0.630005H5.995C6.2 0.630005 6.37 0.800005 6.37 1.005C6.37 1.21 6.2 1.38 5.995 1.38H4.495C2.19 1.38 1.37 2.2 1.37 4.505V7.505C1.37 9.81001 2.19 10.63 4.495 10.63H7.495C9.8 10.63 10.62 9.81001 10.62 7.505V6.005C10.62 5.8 10.79 5.63 10.995 5.63C11.2 5.63 11.37 5.8 11.37 6.005Z" fill="#3F4760"/>
<path id="Vector_2" d="M10.62 3.83V1.38H8.16998C7.96498 1.38 7.79498 1.21 7.79498 1.005C7.79498 0.800005 7.96498 0.630005 8.16998 0.630005H10.995C11.2 0.630005 11.37 0.800005 11.37 1.005V3.83C11.37 4.035 11.2 4.205 10.995 4.205C10.79 4.205 10.62 4.035 10.62 3.83Z" fill="#3F4760"/>
<path id="Vector_3" d="M11.26 0.739976C11.115 0.594976 10.875 0.594976 10.73 0.739976L5.30498 6.16498C5.15998 6.30998 5.15998 6.54998 5.30498 6.69498C5.44998 6.83998 5.68998 6.83998 5.83498 6.69498L11.26 1.26998C11.405 1.12498 11.405 0.884976 11.26 0.739976Z" fill="#3F4760"/>
</g>
<defs>
<clipPath id="clip0_1697_112580">
<rect width="12" height="12" fill="white"/>
</clipPath>
</defs>
</svg>
