<svg width="16" height="16" viewBox="0 0 16 16" fill="none" xmlns="http://www.w3.org/2000/svg">
<g id="vuesax/outline/textalign-justifyleft">
<g id="textalign-justifyleft">
<path id="Vector" d="M8 3.5H2C1.72667 3.5 1.5 3.27333 1.5 3C1.5 2.72667 1.72667 2.5 2 2.5H8C8.27333 2.5 8.5 2.72667 8.5 3C8.5 3.27333 8.27333 3.5 8 3.5Z" fill="#637381"/>
<path id="Vector_2" d="M8 6.83337H2C1.72667 6.83337 1.5 6.60671 1.5 6.33337C1.5 6.06004 1.72667 5.83337 2 5.83337H8C8.27333 5.83337 8.5 6.06004 8.5 6.33337C8.5 6.60671 8.27333 6.83337 8 6.83337Z" fill="#637381"/>
<path id="Vector_3" d="M14 10.1666H2C1.72667 10.1666 1.5 9.93996 1.5 9.66663C1.5 9.39329 1.72667 9.16663 2 9.16663H14C14.2733 9.16663 14.5 9.39329 14.5 9.66663C14.5 9.93996 14.2733 10.1666 14 10.1666Z" fill="#637381"/>
<path id="Vector_4" d="M14 13.5H2C1.72667 13.5 1.5 13.2733 1.5 13C1.5 12.7267 1.72667 12.5 2 12.5H14C14.2733 12.5 14.5 12.7267 14.5 13C14.5 13.2733 14.2733 13.5 14 13.5Z" fill="#637381"/>
</g>
</g>
</svg>
