<svg width="16" height="16" viewBox="0 0 16 16" fill="none" xmlns="http://www.w3.org/2000/svg">
<rect x="0.5" y="0.5" width="15" height="15" rx="7.5" fill="#FFC107"/>
<path d="M11.25 8.375C11.045 8.375 10.875 8.205 10.875 8C10.875 6.415 9.585 5.125 8 5.125C6.415 5.125 5.125 6.415 5.125 8C5.125 8.205 4.955 8.375 4.75 8.375C4.545 8.375 4.375 8.205 4.375 8C4.375 6 6 4.375 8 4.375C10 4.375 11.625 6 11.625 8C11.625 8.205 11.455 8.375 11.25 8.375Z" fill="#3F4760"/>
<path d="M13 8.5H12.96C12.685 8.5 12.46 8.275 12.46 8C12.46 7.725 12.685 7.5 12.96 7.5C13.235 7.5 13.48 7.725 13.48 8C13.48 8.275 13.275 8.5 13 8.5ZM3.04001 8.5H3C2.725 8.5 2.5 8.275 2.5 8C2.5 7.725 2.725 7.5 3 7.5C3.275 7.5 3.51999 7.725 3.51999 8C3.51999 8.275 3.31501 8.5 3.04001 8.5ZM11.505 4.995C11.375 4.995 11.25 4.94501 11.15 4.85001C10.955 4.65501 10.955 4.34 11.15 4.145L11.215 4.08C11.41 3.885 11.725 3.885 11.92 4.08C12.115 4.275 12.115 4.59 11.92 4.785L11.855 4.85001C11.76 4.94501 11.635 4.995 11.505 4.995ZM4.495 4.995C4.365 4.995 4.24001 4.94501 4.14001 4.85001L4.07501 4.785C3.88001 4.59 3.88001 4.275 4.07501 4.08C4.27001 3.885 4.585 3.885 4.78 4.08L4.845 4.145C5.04 4.34 5.04 4.65501 4.845 4.85001C4.75 4.94501 4.62 4.995 4.495 4.995ZM8 3.52C7.725 3.52 7.5 3.31499 7.5 3.03999V3C7.5 2.725 7.725 2.5 8 2.5C8.275 2.5 8.5 2.725 8.5 3C8.5 3.275 8.275 3.52 8 3.52Z" fill="#3F4760"/>
<path d="M12 9.875H4C3.795 9.875 3.625 9.705 3.625 9.5C3.625 9.295 3.795 9.125 4 9.125H12C12.205 9.125 12.375 9.295 12.375 9.5C12.375 9.705 12.205 9.875 12 9.875Z" fill="#3F4760"/>
<path d="M11 11.375H5C4.795 11.375 4.625 11.205 4.625 11C4.625 10.795 4.795 10.625 5 10.625H11C11.205 10.625 11.375 10.795 11.375 11C11.375 11.205 11.205 11.375 11 11.375Z" fill="#3F4760"/>
<path d="M9.5 12.875H6.5C6.295 12.875 6.125 12.705 6.125 12.5C6.125 12.295 6.295 12.125 6.5 12.125H9.5C9.705 12.125 9.875 12.295 9.875 12.5C9.875 12.705 9.705 12.875 9.5 12.875Z" fill="#3F4760"/>
<rect x="0.5" y="0.5" width="15" height="15" rx="7.5" stroke="white"/>
</svg>
