<svg width="19" height="18" viewBox="0 0 19 18" fill="none" xmlns="http://www.w3.org/2000/svg">
<g id="icon/ic_emoji">
<path id="&#240;&#159;&#142;&#168;-Icon-&#208;&#161;olor" fill-rule="evenodd" clip-rule="evenodd" d="M9.69238 1.5C13.8346 1.5 17.1924 4.85775 17.1924 9C17.1924 13.1423 13.8346 16.5 9.69238 16.5C5.55013 16.5 2.19238 13.1423 2.19238 9C2.19238 4.85775 5.55013 1.5 9.69238 1.5ZM9.69238 3C6.37867 3 3.69238 5.68629 3.69238 9C3.69238 12.3137 6.37867 15 9.69238 15C13.0061 15 15.6924 12.3137 15.6924 9C15.6924 5.68629 13.0061 3 9.69238 3ZM9.69238 13.5C11.7635 13.5 13.4424 11.8211 13.4424 9.75H5.94238C5.94238 11.8211 7.62132 13.5 9.69238 13.5Z" fill="#212B36"/>
</g>
</svg>
