<svg width="56" height="56" viewBox="0 0 56 56" fill="none" xmlns="http://www.w3.org/2000/svg">
<path opacity="0.48062" fill-rule="evenodd" clip-rule="evenodd" d="M29.9874 55.7529C29.8008 55.7964 29.6087 55.7009 29.5584 55.5398C29.5081 55.3787 29.6187 55.2128 29.8053 55.1694C30.0777 55.1061 30.3617 55.0401 30.7064 54.9602C30.8931 54.9169 31.0851 55.0124 31.1352 55.1736C31.1854 55.3347 31.0747 55.5005 30.888 55.5438C30.5434 55.6237 30.2597 55.6896 29.9874 55.7529ZM33.593 54.9154C33.4065 54.959 33.2143 54.8637 33.1638 54.7027C33.1133 54.5416 33.2236 54.3756 33.4102 54.3321C33.7244 54.2587 34.0222 54.1889 34.3102 54.1211C34.4967 54.0772 34.6891 54.1722 34.7399 54.3332C34.7907 54.4942 34.6808 54.6603 34.4943 54.7042C34.2058 54.772 33.9076 54.8419 33.593 54.9154ZM37.1959 54.0577C37.0099 54.1031 36.8165 54.0097 36.7638 53.8492C36.7112 53.6886 36.8194 53.5216 37.0054 53.4762C37.3098 53.4018 37.608 53.3284 37.9012 53.2556C38.0869 53.2094 38.2808 53.302 38.3343 53.4624C38.3877 53.6228 38.2805 53.7902 38.0947 53.8363C37.8005 53.9094 37.5013 53.9831 37.1959 54.0577ZM40.7855 53.1473C40.6007 53.1962 40.4049 53.1066 40.3483 52.947C40.2916 52.7875 40.3955 52.6185 40.5803 52.5695C40.8804 52.4901 41.1765 52.4107 41.4691 52.3313C41.6535 52.2813 41.85 52.3698 41.908 52.5289C41.966 52.6881 41.8635 52.8578 41.6791 52.9078C41.3849 52.9877 41.0872 53.0675 40.7855 53.1473ZM44.3507 52.1518C44.1678 52.2059 43.9688 52.1217 43.9062 51.9638C43.8436 51.806 43.9411 51.6341 44.124 51.5801C44.4197 51.4927 44.7124 51.4048 45.0023 51.3164C45.1845 51.2609 45.3845 51.3434 45.4488 51.5007C45.5132 51.6581 45.4177 51.8307 45.2354 51.8862C44.9434 51.9753 44.6486 52.0638 44.3507 52.1518ZM47.8712 51.0412C47.6912 51.102 47.4882 51.0252 47.4178 50.8698C47.3474 50.7143 47.4364 50.5391 47.6164 50.4784C47.8644 50.3947 48.1104 50.3104 48.3531 50.226C48.4159 50.2038 48.4159 50.2038 48.478 50.1818C48.6567 50.1182 48.8613 50.1918 48.9349 50.3461C49.0085 50.5004 48.9233 50.677 48.7446 50.7406C48.6815 50.763 48.6815 50.763 48.6163 50.786C48.3698 50.8717 48.1214 50.9568 47.8712 51.0412ZM51.3148 49.6945C51.146 49.7758 50.9328 49.7235 50.8387 49.5778C50.7445 49.432 50.805 49.248 50.9739 49.1667C51.2466 49.0354 51.5065 48.901 51.7546 48.7624C51.9169 48.6718 52.1336 48.712 52.2386 48.8521C52.3435 48.9922 52.297 49.1793 52.1347 49.2699C51.8734 49.4158 51.6006 49.5569 51.3148 49.6945ZM54.3427 47.6229C54.2257 47.7557 54.0061 47.7815 53.8522 47.6806C53.6983 47.5796 53.6684 47.39 53.7854 47.2572C53.9646 47.0536 54.1121 46.841 54.2207 46.6266C54.2981 46.4737 54.5044 46.4039 54.6816 46.4707C54.8587 46.5376 54.9395 46.7157 54.8621 46.8686C54.7304 47.1287 54.5544 47.3824 54.3427 47.6229ZM54.5234 44.2561C54.6288 44.396 54.583 44.5832 54.4209 44.6742C54.2589 44.7652 54.0421 44.7255 53.9367 44.5857C53.7846 44.3838 53.6033 44.1905 53.3934 44.0044C53.2585 43.8848 53.2614 43.6935 53.3999 43.5771C53.5384 43.4607 53.76 43.4632 53.8949 43.5828C54.1357 43.7963 54.3456 44.0201 54.5234 44.2561ZM51.4999 42.1298C51.6709 42.2075 51.7367 42.3902 51.6467 42.5379C51.5567 42.6856 51.3451 42.7423 51.174 42.6646C51.1241 42.642 51.0734 42.6192 51.0288 42.5993C50.8062 42.5058 50.5816 42.4178 50.3524 42.3341C50.1744 42.2691 50.0911 42.0918 50.1664 41.9381C50.2417 41.7845 50.4471 41.7126 50.6251 41.7776C50.8655 41.8654 51.1013 41.9577 51.3421 42.0589C51.3956 42.0827 51.4481 42.1063 51.4999 42.1298ZM47.9024 41.0163C48.0904 41.055 48.2065 41.2179 48.1617 41.3803C48.1168 41.5426 47.9281 41.6428 47.74 41.6041C47.4472 41.5438 47.1483 41.4885 46.8424 41.4377C46.6526 41.4063 46.5283 41.2479 46.5648 41.084C46.6013 40.9201 46.7847 40.8128 46.9745 40.8443C47.2903 40.8967 47.5994 40.9539 47.9024 41.0163ZM44.1643 40.5112C44.3568 40.5264 44.4985 40.6735 44.4809 40.8397C44.4633 41.0059 44.293 41.1282 44.1005 41.113C43.8021 41.0895 43.4956 41.0683 43.1778 41.0493C42.9849 41.0377 42.8395 40.8934 42.8529 40.7269C42.8662 40.5605 43.0334 40.4349 43.2263 40.4464C43.549 40.4658 43.8606 40.4873 44.1643 40.5112ZM40.4039 40.3292C40.5971 40.3349 40.7483 40.4748 40.7416 40.6416C40.7349 40.8084 40.5729 40.9389 40.3797 40.9331C40.2407 40.929 40.0978 40.9248 39.9185 40.9196C39.7706 40.9176 39.6213 40.916 39.4707 40.9147C39.2774 40.9131 39.1222 40.7765 39.1242 40.6096C39.1261 40.4427 39.2843 40.3088 39.4776 40.3104C39.6295 40.3117 39.78 40.3134 39.9356 40.3154C40.1215 40.3208 40.2646 40.325 40.4039 40.3292ZM36.669 40.319C36.8623 40.3166 37.0213 40.4499 37.0241 40.6168C37.0269 40.7836 36.8725 40.9209 36.6792 40.9233C36.3806 40.9271 36.0722 40.9317 35.7478 40.9371C35.5545 40.9404 35.3948 40.8078 35.391 40.6409C35.3872 40.4741 35.5408 40.3362 35.7341 40.3329C36.0597 40.3274 36.3692 40.3228 36.669 40.319ZM32.9328 40.3892C33.126 40.3851 33.2865 40.517 33.2912 40.6838C33.296 40.8507 33.1432 40.9892 32.9499 40.9933C32.5844 41.0011 32.2956 41.0071 32.0164 41.0126C31.8231 41.0164 31.6629 40.8843 31.6584 40.7175C31.654 40.5506 31.807 40.4123 32.0003 40.4084C32.2791 40.4029 32.5675 40.3969 32.9328 40.3892ZM29.206 40.4495C29.3993 40.448 29.5573 40.5821 29.559 40.749C29.5607 40.9159 29.4053 41.0523 29.212 41.0538C29.0164 41.0552 28.8242 41.0562 28.6361 41.0569C28.5189 41.0576 28.4007 41.0587 28.2804 41.0602C28.0871 41.0625 27.9283 40.9291 27.9256 40.7622C27.9229 40.5953 28.0774 40.4582 28.2707 40.4559C28.3925 40.4544 28.5122 40.4533 28.6321 40.4526C28.8204 40.4519 29.0115 40.4509 29.206 40.4495ZM25.4675 40.5184C25.6608 40.5143 25.8213 40.6462 25.8261 40.813C25.8308 40.9798 25.678 41.1184 25.4848 41.1225C25.142 41.1298 24.8381 41.1346 24.5461 41.1369C24.3528 41.1384 24.1947 41.0044 24.1929 40.8375C24.1912 40.6707 24.3464 40.5341 24.5397 40.5326C24.8278 40.5303 25.1281 40.5256 25.4675 40.5184ZM21.7711 40.4538C21.9638 40.4677 22.1068 40.6138 22.0907 40.7801C22.0745 40.9464 21.9053 41.0699 21.7126 41.056C21.3995 41.0333 21.0864 41.0056 20.771 40.9724C20.5791 40.9523 20.4425 40.8016 20.4659 40.636C20.4893 40.4703 20.6637 40.3524 20.8556 40.3725C21.1623 40.4048 21.4667 40.4317 21.7711 40.4538ZM18.1363 39.9585C18.3248 39.9956 18.4427 40.1575 18.3998 40.3202C18.3568 40.4829 18.1692 40.5848 17.9807 40.5477C17.6953 40.4915 17.4054 40.4308 17.1103 40.3654C17.085 40.3597 17.085 40.3597 17.0609 40.3543C16.874 40.3115 16.7627 40.1461 16.8122 39.9848C16.8617 39.8235 17.0533 39.7274 17.2401 39.7701C17.2616 39.775 17.2616 39.775 17.2844 39.7801C17.5734 39.8441 17.8571 39.9035 18.1363 39.9585ZM14.8756 38.7261C15.0262 38.8307 15.0502 39.0208 14.9291 39.1509C14.8079 39.281 14.5876 39.3016 14.437 39.1971C14.1817 39.0199 13.9405 38.8284 13.7157 38.6244C13.5825 38.5035 13.588 38.3122 13.7281 38.1972C13.8681 38.0822 14.0897 38.087 14.2229 38.2079C14.4262 38.3924 14.6445 38.5657 14.8756 38.7261ZM12.8412 36.2377C12.9006 36.3965 12.7996 36.5668 12.6156 36.618C12.4317 36.6693 12.2344 36.5822 12.175 36.4234C12.0724 36.149 11.9971 35.87 11.9504 35.5886C11.9229 35.4234 12.0558 35.2703 12.2471 35.2466C12.4385 35.2229 12.6158 35.3377 12.6433 35.5028C12.6843 35.75 12.7506 35.9956 12.8412 36.2377ZM12.9329 33.2821C12.8684 33.4395 12.6684 33.5219 12.4862 33.4663C12.304 33.4106 12.2085 33.238 12.2729 33.0807C12.3803 32.8186 12.5096 32.56 12.6602 32.3045C12.7478 32.1557 12.9585 32.0965 13.1308 32.1721C13.3031 32.2478 13.3717 32.4297 13.2841 32.5785C13.1471 32.811 13.0299 33.0454 12.9329 33.2821ZM14.8695 30.679C14.7378 30.8012 14.5164 30.8081 14.3748 30.6945C14.2333 30.5809 14.2252 30.3897 14.3569 30.2675C14.5675 30.0719 14.7908 29.8772 15.0275 29.6818C15.1672 29.5665 15.3888 29.5707 15.5223 29.6914C15.6559 29.812 15.651 30.0032 15.5113 30.1186C15.2841 30.3061 15.0705 30.4924 14.8695 30.679Z" fill="#3F4760"/>
<path d="M55.5021 0.115283C55.8569 0.192158 55.9396 0.562805 55.8489 0.829122C55.6453 1.6116 55.2921 2.35839 55.0137 3.12302C51.1398 13.5629 47.266 24.0028 43.3921 34.4427C43.3062 34.8546 42.8051 35.1607 42.3326 35.0715C37.4055 31.5942 32.4657 28.1266 27.5292 24.659C25.2923 26.6811 23.0889 28.7389 20.6612 30.5921C20.0407 31.0314 19.4235 31.4954 18.6869 31.7809C18.4896 31.8331 18.1364 31.9333 18.0457 31.7027C18.0187 31.2854 18.1412 30.8749 18.1905 30.4631C18.7839 26.4683 19.3853 22.4736 20.0169 18.4829C13.6612 17.6716 7.3071 16.8617 0.951421 16.0559C0.612557 16.0064 0.16233 15.9529 0.0398301 15.6248C-0.0269881 15.2102 0.443921 14.9577 0.838466 14.8506C3.43642 14.2095 5.9946 13.4572 8.57506 12.7653C23.8001 8.59075 39.0266 4.41891 54.2516 0.244323C54.6541 0.144111 55.0805 0.02468 55.5021 0.115283Z" fill="url(#paint0_linear_310_17432)"/>
<path fill-rule="evenodd" clip-rule="evenodd" d="M30.3107 13.5242C32.1419 12.5885 33.973 11.6528 35.8082 10.724C41.2492 7.95376 46.6901 5.18214 52.131 2.41052C49.6608 4.12592 47.1612 5.81114 44.6615 7.49643C43.1363 8.52467 41.6111 9.55294 40.0926 10.5881C38.4101 11.7269 36.7277 12.8659 35.0454 14.0049C31.6803 16.2832 28.3152 18.5615 24.9487 20.8386C24.8015 20.9405 24.6483 21.0366 24.495 21.1327C24.1878 21.3255 23.8803 21.5184 23.6203 21.7583C23.3051 22.0566 23.1472 22.4352 22.9907 22.8106C22.9426 22.9258 22.8947 23.0408 22.8423 23.1531C22.4625 23.9902 22.0555 24.8186 21.6484 25.6473C21.4093 26.134 21.1701 26.6207 20.9364 27.1094C20.3287 28.3709 19.6844 29.627 18.838 30.787C19.179 28.3541 19.5529 25.9252 19.9269 23.4964C20.1671 21.9359 20.4074 20.3753 20.6389 18.8137C20.6469 18.7764 20.6523 18.7371 20.6579 18.6971C20.6801 18.5373 20.7035 18.369 20.8919 18.2921C24.0455 16.7257 27.1781 15.125 30.3107 13.5242ZM19.5889 30.82C21.2578 28.0305 22.7007 25.1449 24.0912 22.2457C24.3341 22.4172 24.5765 22.5893 24.819 22.7614C25.5642 23.2904 26.3095 23.8195 27.0694 24.3323C24.7482 26.6303 22.2696 28.8295 19.5889 30.82Z" fill="#2F354D"/>
<defs>
<linearGradient id="paint0_linear_310_17432" x1="6.71705" y1="9.47436" x2="7.28028" y2="35.8824" gradientUnits="userSpaceOnUse">
<stop stop-color="#7B8298"/>
<stop offset="1" stop-color="#2F354D"/>
</linearGradient>
</defs>
</svg>
