<svg width="19" height="18" viewBox="0 0 19 18" fill="none" xmlns="http://www.w3.org/2000/svg">
<g id="vuesax/outline/filter">
<g id="filter">
<path id="Vector" d="M8.70529 16.9876C8.34529 16.9876 7.99279 16.8976 7.66279 16.7176C7.00279 16.3501 6.60529 15.6826 6.60529 14.9326V10.9576C6.60529 10.5826 6.35779 10.0201 6.12529 9.73507L3.32029 6.76507C2.84779 6.29257 2.48779 5.48257 2.48779 4.87507V3.15007C2.48779 1.95007 3.39529 1.01257 4.55029 1.01257H14.4503C15.5903 1.01257 16.5128 1.93507 16.5128 3.07507V4.72507C16.5128 5.51257 16.0403 6.40507 15.5978 6.84757L12.3503 9.72007C12.0353 9.98257 11.7878 10.5601 11.7878 11.0251V14.2501C11.7878 14.9176 11.3678 15.6901 10.8428 16.0051L9.80779 16.6726C9.47029 16.8826 9.08779 16.9876 8.70529 16.9876ZM4.55029 2.13757C4.02529 2.13757 3.61279 2.58007 3.61279 3.15007V4.87507C3.61279 5.15257 3.83779 5.69257 4.12279 5.97757L6.98029 8.98507C7.36279 9.45757 7.73779 10.2451 7.73779 10.9501V14.9251C7.73779 15.4126 8.07529 15.6526 8.21779 15.7276C8.53279 15.9001 8.91529 15.9001 9.20779 15.7201L10.2503 15.0526C10.4603 14.9251 10.6703 14.5201 10.6703 14.2501V11.0251C10.6703 10.2226 11.0603 9.33757 11.6228 8.86507L14.8328 6.02257C15.0878 5.76757 15.3953 5.16007 15.3953 4.71757V3.07507C15.3953 2.55757 14.9753 2.13757 14.4578 2.13757H4.55029Z" fill="#637381"/>
<path id="Vector_2" d="M4.99976 8.06233C4.89476 8.06233 4.79726 8.03233 4.69976 7.97983C4.43726 7.81483 4.35476 7.46233 4.51976 7.19983L8.21726 1.27483C8.38226 1.01233 8.72726 0.929831 8.98976 1.09483C9.25226 1.25983 9.33476 1.60483 9.16976 1.86733L5.47226 7.79233C5.36726 7.96483 5.18726 8.06233 4.99976 8.06233Z" fill="#637381"/>
</g>
</g>
</svg>
