<svg width="18" height="18" viewBox="0 0 18 18" fill="none" xmlns="http://www.w3.org/2000/svg">
<g id="vuesax/outline/refresh-left-square">
<g id="vuesax/outline/refresh-left-square_2">
<g id="refresh-left-square">
<path id="Vector" d="M9 13.5075C6.6225 13.5075 4.6875 11.5725 4.6875 9.195C4.6875 8.34 4.935 7.5075 5.415 6.8025C5.5875 6.5475 5.94 6.4725 6.195 6.645C6.45 6.8175 6.525 7.17 6.3525 7.425C6 7.95 5.82 8.565 5.82 9.195C5.82 10.95 7.2525 12.3825 9.0075 12.3825C10.7625 12.3825 12.195 10.95 12.195 9.195C12.195 7.44 10.7625 6.0075 9.0075 6.0075C8.6325 6.0075 8.2725 6.06 7.92 6.165C7.6275 6.255 7.3125 6.09 7.215 5.79C7.125 5.49 7.29 5.175 7.59 5.085C8.0475 4.9425 8.52 4.875 9.0075 4.875C11.385 4.875 13.32 6.81 13.32 9.1875C13.32 11.565 11.3775 13.5075 9 13.5075Z" fill="#54D62C"/>
<path id="Vector_2" d="M8.42324 4.26651L8.42387 4.26579C8.43469 4.25337 8.45058 4.24524 8.4687 4.24394C8.48562 4.24273 8.49754 4.24769 8.50669 4.25595L8.50663 4.25601L8.51344 4.26194C8.5229 4.27018 8.53097 4.28367 8.53226 4.30355C8.53356 4.32359 8.52722 4.34002 8.51745 4.35132C8.5174 4.35139 8.51735 4.35145 8.51729 4.35151L7.27944 5.76726C7.24581 5.79761 7.22233 5.7999 7.21433 5.7999C7.20861 5.7999 7.19999 5.79875 7.19077 5.79544C7.18292 5.79263 7.17727 5.78923 7.17365 5.78642C7.16488 5.77809 7.15763 5.76502 7.15641 5.74625C7.15511 5.72621 7.16145 5.70978 7.17122 5.69847C7.17127 5.69841 7.17132 5.69835 7.17137 5.69829L8.42324 4.26651Z" fill="#54D62C" stroke="#54D62C"/>
<path id="Vector_3" d="M8.66983 7.36499C8.55733 7.36499 8.43732 7.32749 8.33982 7.25999L6.88482 6.19499C6.63732 6.01499 6.57733 5.66249 6.76483 5.40749C6.94483 5.15999 7.29733 5.09999 7.55233 5.28749L9.00732 6.35249C9.25482 6.53249 9.31483 6.88498 9.12733 7.13998C9.01483 7.28248 8.84233 7.36499 8.66983 7.36499Z" fill="#54D62C"/>
<path id="Vector_4" d="M11.25 17.0625H6.75C2.6775 17.0625 0.9375 15.3225 0.9375 11.25V6.75C0.9375 2.6775 2.6775 0.9375 6.75 0.9375H11.25C15.3225 0.9375 17.0625 2.6775 17.0625 6.75V11.25C17.0625 15.3225 15.3225 17.0625 11.25 17.0625ZM6.75 2.0625C3.2925 2.0625 2.0625 3.2925 2.0625 6.75V11.25C2.0625 14.7075 3.2925 15.9375 6.75 15.9375H11.25C14.7075 15.9375 15.9375 14.7075 15.9375 11.25V6.75C15.9375 3.2925 14.7075 2.0625 11.25 2.0625H6.75Z" fill="#54D62C"/>
</g>
</g>
</g>
</svg>
