<svg width="20" height="20" viewBox="0 0 20 20" fill="none" xmlns="http://www.w3.org/2000/svg">
<g id="vuesax/bold/filter">
<g id="vuesax/bold/filter_2">
<g id="filter">
<path id="Vector" d="M17.1674 3.41679V5.25012C17.1674 5.91679 16.7507 6.75012 16.3341 7.16679L12.7507 10.3335C12.2507 10.7501 11.9174 11.5835 11.9174 12.2501V15.8335C11.9174 16.3335 11.5841 17.0001 11.1674 17.2501L10.0007 18.0001C8.91741 18.6668 7.41741 17.9168 7.41741 16.5835V12.1668C7.41741 11.5835 7.08407 10.8335 6.75074 10.4168L6.35907 10.0085C6.10074 9.73346 6.05074 9.31679 6.25907 8.99179L10.5257 2.14179C10.6757 1.90012 10.9424 1.75012 11.2341 1.75012H15.5007C16.4174 1.75012 17.1674 2.50012 17.1674 3.41679Z" fill="#3F4760"/>
<path id="Vector_2" d="M8.62535 3.02512L5.66701 7.76679C5.38368 8.22512 4.73368 8.29179 4.35868 7.90012L3.58368 7.08346C3.16701 6.66679 2.83368 5.91679 2.83368 5.41679V3.50012C2.83368 2.50012 3.58368 1.75012 4.50035 1.75012H7.91701C8.56701 1.75012 8.96701 2.46679 8.62535 3.02512Z" fill="#3F4760"/>
</g>
</g>
</g>
</svg>
