<svg width="20" height="20" viewBox="0 0 20 20" fill="none" xmlns="http://www.w3.org/2000/svg">
<path d="M16.25 7.49999C16.25 6.2905 15.899 5.10701 15.2397 4.09303C14.5804 3.07906 13.641 2.27816 12.5356 1.78749C11.4301 1.29682 10.206 1.13745 9.0117 1.3287C7.81743 1.51995 6.70432 2.05362 5.80734 2.86497C4.91037 3.67632 4.26808 4.7305 3.95838 5.89966C3.64867 7.06882 3.68485 8.30272 4.06253 9.45172C4.44021 10.6007 5.14316 11.6155 6.08613 12.3729C7.0291 13.1303 8.17158 13.5978 9.375 13.7187V15.625H6.875C6.70924 15.625 6.55027 15.6908 6.43306 15.808C6.31585 15.9253 6.25 16.0842 6.25 16.25C6.25 16.4157 6.31585 16.5747 6.43306 16.6919C6.55027 16.8091 6.70924 16.875 6.875 16.875H9.375V18.75C9.375 18.9157 9.44085 19.0747 9.55806 19.1919C9.67527 19.3091 9.83424 19.375 10 19.375C10.1658 19.375 10.3247 19.3091 10.4419 19.1919C10.5592 19.0747 10.625 18.9157 10.625 18.75V16.875H13.125C13.2908 16.875 13.4497 16.8091 13.5669 16.6919C13.6842 16.5747 13.75 16.4157 13.75 16.25C13.75 16.0842 13.6842 15.9253 13.5669 15.808C13.4497 15.6908 13.2908 15.625 13.125 15.625H10.625V13.7187C12.1659 13.5619 13.5939 12.8393 14.6329 11.6907C15.6719 10.542 16.2481 9.04885 16.25 7.49999ZM5 7.49999C5 6.51108 5.29324 5.54438 5.84265 4.72214C6.39206 3.89989 7.17295 3.25903 8.08658 2.88059C9.00021 2.50215 10.0055 2.40313 10.9755 2.59606C11.9454 2.78899 12.8363 3.26519 13.5355 3.96445C14.2348 4.66371 14.711 5.55463 14.9039 6.52453C15.0969 7.49444 14.9978 8.49977 14.6194 9.4134C14.241 10.327 13.6001 11.1079 12.7779 11.6573C11.9556 12.2067 10.9889 12.5 10 12.5C8.67436 12.4985 7.40343 11.9713 6.46607 11.0339C5.5287 10.0966 5.00145 8.82562 5 7.49999Z" fill="#919EAB"/>
</svg>
