<svg width="20" height="20" viewBox="0 0 20 20" fill="none" xmlns="http://www.w3.org/2000/svg">
<g id="vuesax/bold/grid-1">
<g id="vuesax/bold/grid-1_2">
<g id="grid-1">
<path id="Vector" d="M6.45817 1.66669V6.50002H1.6665C1.6665 3.49169 3.45817 1.68335 6.45817 1.66669Z" fill="#292D32"/>
<path id="Vector_2" d="M18.3332 6.50002H13.5415V1.66669C16.5415 1.68335 18.3332 3.49169 18.3332 6.50002Z" fill="#292D32"/>
<path id="Vector_3" d="M18.3332 13.5833C18.2998 16.5417 16.5165 18.3167 13.5415 18.3333V13.5833H18.3332Z" fill="#292D32"/>
<path id="Vector_4" d="M6.45817 13.5833V18.3333C3.48317 18.3167 1.69984 16.5417 1.6665 13.5833H6.45817Z" fill="#292D32"/>
<path id="Vector_5" d="M6.45817 7.75H1.6665V12.3333H6.45817V7.75Z" fill="#292D32"/>
<path id="Vector_6" d="M18.3332 7.75H13.5415V12.3333H18.3332V7.75Z" fill="#292D32"/>
<path id="Vector_7" d="M12.2918 7.75H7.7085V12.3333H12.2918V7.75Z" fill="#292D32"/>
<path id="Vector_8" d="M12.2918 1.66669H7.7085V6.50002H12.2918V1.66669Z" fill="#292D32"/>
<path id="Vector_9" d="M12.2918 13.5833H7.7085V18.3333H12.2918V13.5833Z" fill="#292D32"/>
</g>
</g>
</g>
</svg>
