<svg width="20" height="20" viewBox="0 0 20 20" fill="none" xmlns="http://www.w3.org/2000/svg">
<g id="Group" clip-path="url(#clip0_1773_10391)">
<path id="Vector" d="M14.9999 5.96657C14.9499 5.95824 14.8915 5.95824 14.8415 5.96657C13.6915 5.9249 12.7749 4.98324 12.7749 3.81656C12.7749 2.6249 13.7333 1.66656 14.9249 1.66656C16.1165 1.66656 17.0749 2.63324 17.0749 3.81656C17.0665 4.98324 16.1499 5.9249 14.9999 5.96657Z" stroke="white" stroke-width="1.5" stroke-linecap="round" stroke-linejoin="round"/>
<path id="Vector_2" d="M14.1412 12.0333C15.2829 12.2251 16.5412 12.0251 17.4246 11.4333C18.5996 10.6501 18.5996 9.3667 17.4246 8.58337C16.5329 7.9917 15.2579 7.79169 14.1162 7.99169" stroke="white" stroke-width="1.5" stroke-linecap="round" stroke-linejoin="round"/>
<path id="Vector_3" d="M4.97393 5.96657C5.02393 5.95824 5.08226 5.95824 5.13226 5.96657C6.28226 5.9249 7.19892 4.98324 7.19892 3.81656C7.19892 2.6249 6.2406 1.66656 5.04893 1.66656C3.85726 1.66656 2.89893 2.63324 2.89893 3.81656C2.90726 4.98324 3.82393 5.9249 4.97393 5.96657Z" stroke="white" stroke-width="1.5" stroke-linecap="round" stroke-linejoin="round"/>
<path id="Vector_4" d="M5.83304 12.0332C4.69137 12.2248 3.43304 12.0248 2.54971 11.4332C1.37471 10.6498 1.37471 9.36656 2.54971 8.58318C3.44137 7.99152 4.71637 7.79151 5.85803 7.99151" stroke="white" stroke-width="1.5" stroke-linecap="round" stroke-linejoin="round"/>
<path id="Vector_5" d="M9.99991 12.1922C9.94991 12.1838 9.89155 12.1838 9.84155 12.1922C8.69157 12.1506 7.7749 11.2088 7.7749 10.0422C7.7749 8.85054 8.73324 7.89221 9.92491 7.89221C11.1165 7.89221 12.0749 8.85888 12.0749 10.0422C12.0665 11.2088 11.1499 12.1588 9.99991 12.1922Z" stroke="white" stroke-width="1.5" stroke-linecap="round" stroke-linejoin="round"/>
<path id="Vector_6" d="M7.57559 14.8169C6.40059 15.6002 6.40059 16.8835 7.57559 17.6669C8.90892 18.5585 11.0923 18.5585 12.4255 17.6669C13.6005 16.8835 13.6005 15.6002 12.4255 14.8169C11.1005 13.9335 8.90892 13.9335 7.57559 14.8169Z" stroke="white" stroke-width="1.5" stroke-linecap="round" stroke-linejoin="round"/>
</g>
<defs>
<clipPath id="clip0_1773_10391">
<rect width="20" height="20" fill="white"/>
</clipPath>
</defs>
</svg>
