<svg width="20" height="20" viewBox="0 0 20 20" fill="none" xmlns="http://www.w3.org/2000/svg">
<g id="vuesax/outline/info-circle">
<g id="info-circle">
<path id="Vector" d="M10.0003 18.9587C5.05866 18.9587 1.04199 14.942 1.04199 10.0003C1.04199 5.05866 5.05866 1.04199 10.0003 1.04199C14.942 1.04199 18.9587 5.05866 18.9587 10.0003C18.9587 14.942 14.942 18.9587 10.0003 18.9587ZM10.0003 2.29199C5.75033 2.29199 2.29199 5.75033 2.29199 10.0003C2.29199 14.2503 5.75033 17.7087 10.0003 17.7087C14.2503 17.7087 17.7087 14.2503 17.7087 10.0003C17.7087 5.75033 14.2503 2.29199 10.0003 2.29199Z" fill="#637381"/>
<path id="Vector_2" d="M10 11.4587C9.65833 11.4587 9.375 11.1753 9.375 10.8337V6.66699C9.375 6.32533 9.65833 6.04199 10 6.04199C10.3417 6.04199 10.625 6.32533 10.625 6.66699V10.8337C10.625 11.1753 10.3417 11.4587 10 11.4587Z" fill="#637381"/>
<path id="Vector_3" d="M10.0003 14.1664C9.89199 14.1664 9.78366 14.1414 9.68366 14.0997C9.58366 14.0581 9.49199 13.9997 9.40866 13.9247C9.33366 13.8414 9.27533 13.7581 9.23366 13.6497C9.19199 13.5497 9.16699 13.4414 9.16699 13.3331C9.16699 13.2247 9.19199 13.1164 9.23366 13.0164C9.27533 12.9164 9.33366 12.8247 9.40866 12.7414C9.49199 12.6664 9.58366 12.6081 9.68366 12.5664C9.88366 12.4831 10.117 12.4831 10.317 12.5664C10.417 12.6081 10.5087 12.6664 10.592 12.7414C10.667 12.8247 10.7253 12.9164 10.767 13.0164C10.8087 13.1164 10.8337 13.2247 10.8337 13.3331C10.8337 13.4414 10.8087 13.5497 10.767 13.6497C10.7253 13.7581 10.667 13.8414 10.592 13.9247C10.5087 13.9997 10.417 14.0581 10.317 14.0997C10.217 14.1414 10.1087 14.1664 10.0003 14.1664Z" fill="#637381"/>
</g>
</g>
</svg>
