<svg width="16" height="16" viewBox="0 0 16 16" fill="none" xmlns="http://www.w3.org/2000/svg">
<rect x="0.5" y="0.5" width="15" height="15" rx="7.5" fill="#0076C7"/>
<path d="M8.95625 11.9075C8.8325 11.9075 8.71625 11.825 8.6825 11.6975C8.64125 11.5475 8.73125 11.3938 8.885 11.3525C10.4075 10.9513 11.4688 9.57125 11.4688 7.99625C11.4688 6.08375 9.9125 4.5275 8 4.5275C6.37625 4.5275 5.31125 5.47625 4.8125 6.05H5.915C6.06875 6.05 6.19625 6.1775 6.19625 6.33125C6.19625 6.485 6.0725 6.61625 5.915 6.61625H4.25375C4.235 6.61625 4.20125 6.6125 4.175 6.605C4.14125 6.59375 4.11125 6.57875 4.085 6.56C4.05125 6.5375 4.025 6.5075 4.00625 6.47375C3.9875 6.44 3.9725 6.39875 3.96875 6.3575C3.96875 6.34625 3.96875 6.33875 3.96875 6.3275V4.625C3.96875 4.47125 4.09625 4.34375 4.25 4.34375C4.40375 4.34375 4.53125 4.47125 4.53125 4.625V5.52125C5.1425 4.865 6.29375 3.96875 8 3.96875C10.2238 3.96875 12.0312 5.77625 12.0312 8C12.0312 9.83 10.7975 11.435 9.0275 11.9C9.005 11.9037 8.97875 11.9075 8.95625 11.9075Z" fill="white"/>
<path d="M7.73375 12.0237C7.72625 12.0237 7.71875 12.02 7.715 12.02C7.31 11.9937 6.9125 11.9037 6.5375 11.7575C6.42875 11.7163 6.35375 11.6075 6.3575 11.4912C6.3575 11.4575 6.365 11.4237 6.37625 11.3937C6.4325 11.2512 6.60125 11.18 6.74 11.2325C7.06625 11.36 7.4075 11.435 7.7525 11.4612C7.89875 11.4687 8.015 11.5962 8.015 11.7463L8.01125 11.7613C8.00375 11.9075 7.88 12.0237 7.73375 12.0237ZM5.6675 11.2175C5.60375 11.2175 5.54375 11.195 5.49125 11.1575C5.17625 10.9025 4.89875 10.6062 4.67375 10.2762C4.64 10.2275 4.62125 10.175 4.62125 10.1187C4.62125 10.025 4.66625 9.93875 4.745 9.88625C4.86875 9.8 5.04875 9.83375 5.135 9.95375C5.135 9.9575 5.135 9.9575 5.135 9.9575C5.13875 9.96125 5.1425 9.96875 5.14625 9.9725C5.34125 10.2538 5.5775 10.505 5.84375 10.715C5.9075 10.7675 5.94875 10.8462 5.94875 10.9325C5.94875 10.9962 5.93 11.06 5.88875 11.1125C5.8325 11.18 5.75375 11.2175 5.6675 11.2175ZM4.415 9.3875C4.29125 9.3875 4.1825 9.30875 4.14875 9.1925C4.02875 8.80625 3.96875 8.405 3.96875 8V7.99625C3.9725 7.8425 4.09625 7.71875 4.25 7.71875C4.40375 7.71875 4.53125 7.84625 4.53125 8C4.53125 8.3525 4.58375 8.6975 4.685 9.02375C4.6925 9.05375 4.69625 9.08 4.69625 9.11C4.69625 9.23 4.6175 9.33875 4.4975 9.37625C4.47125 9.38375 4.445 9.3875 4.415 9.3875Z" fill="white"/>
<rect x="0.5" y="0.5" width="15" height="15" rx="7.5" stroke="white"/>
</svg>
