<svg width="22" height="22" viewBox="0 0 22 22" fill="none" xmlns="http://www.w3.org/2000/svg">
<g id="icon-park-outline:nurse-cap">
<path id="Vector" d="M9.16659 11.0004H12.8333M10.9999 9.16665V12.8333M10.9999 4.58331C5.84046 4.58331 2.74305 7.67615 2.00513 8.50573C1.95215 8.56651 1.91762 8.64115 1.90561 8.72088C1.89359 8.80061 1.90459 8.88212 1.9373 8.95581L5.29505 16.9294C5.40321 17.1866 5.71534 17.2934 5.96742 17.1733C6.79426 16.7786 8.65142 16.0416 10.9999 16.0416C13.3484 16.0416 15.2056 16.7786 16.0324 17.1737C16.2845 17.2934 16.5966 17.1866 16.7048 16.9294L20.0625 8.95581C20.0953 8.88212 20.1063 8.80061 20.0942 8.72088C20.0822 8.64115 20.0477 8.56651 19.9947 8.50573C19.2568 7.67615 16.1594 4.58331 10.9999 4.58331Z" stroke="#637381" stroke-width="1.5" stroke-linecap="round" stroke-linejoin="round"/>
</g>
</svg>
