<svg width="16" height="16" viewBox="0 0 16 16" fill="none" xmlns="http://www.w3.org/2000/svg">
<g id="vuesax/outline/key">
<g id="key">
<path id="Vector" d="M4.11942 15.1666C4.05275 15.1666 3.97942 15.1599 3.91942 15.1532L2.47275 14.9532C1.77942 14.8599 1.15275 14.2399 1.04609 13.5332L0.846086 12.0732C0.77942 11.6066 0.97942 10.9999 1.31275 10.6599L4.23942 7.73324C3.76609 5.83991 4.31275 3.83991 5.70609 2.45991C7.86609 0.306575 11.3794 0.299908 13.5461 2.45991C14.5928 3.50657 15.1661 4.89991 15.1661 6.37991C15.1661 7.85991 14.5928 9.25324 13.5461 10.2999C12.1461 11.6866 10.1528 12.2332 8.27275 11.7532L5.33942 14.6799C5.05942 14.9732 4.55942 15.1666 4.11942 15.1666ZM9.61942 1.83991C8.45275 1.83991 7.29275 2.27991 6.40609 3.16657C5.20609 4.35991 4.77275 6.10658 5.27275 7.73324C5.32609 7.91324 5.27942 8.09991 5.14609 8.23324L2.01275 11.3666C1.89942 11.4799 1.80609 11.7732 1.82609 11.9266L2.02609 13.3866C2.06609 13.6399 2.33942 13.9266 2.59275 13.9599L4.04609 14.1599C4.20609 14.1866 4.49942 14.0932 4.61275 13.9799L7.75942 10.8399C7.89275 10.7066 8.08609 10.6666 8.25942 10.7199C9.86609 11.2266 11.6194 10.7932 12.8194 9.59324C13.6728 8.73991 14.1461 7.59324 14.1461 6.37991C14.1461 5.15991 13.6728 4.01991 12.8194 3.16657C11.9528 2.28657 10.7861 1.83991 9.61942 1.83991Z" fill="#637381"/>
<path id="Vector_2" d="M6.12664 13.6933C5.99997 13.6933 5.8733 13.6466 5.7733 13.5466L4.23997 12.0133C4.04664 11.82 4.04664 11.5 4.23997 11.3066C4.4333 11.1133 4.7533 11.1133 4.94664 11.3066L6.47997 12.84C6.6733 13.0333 6.6733 13.3533 6.47997 13.5466C6.37997 13.6466 6.2533 13.6933 6.12664 13.6933Z" fill="#637381"/>
<path id="Vector_3" d="M9.66669 7.83337C8.84002 7.83337 8.16669 7.16004 8.16669 6.33337C8.16669 5.50671 8.84002 4.83337 9.66669 4.83337C10.4934 4.83337 11.1667 5.50671 11.1667 6.33337C11.1667 7.16004 10.4934 7.83337 9.66669 7.83337ZM9.66669 5.83337C9.39335 5.83337 9.16669 6.06004 9.16669 6.33337C9.16669 6.60671 9.39335 6.83337 9.66669 6.83337C9.94002 6.83337 10.1667 6.60671 10.1667 6.33337C10.1667 6.06004 9.94002 5.83337 9.66669 5.83337Z" fill="#637381"/>
</g>
</g>
</svg>
