<svg width="20" height="20" viewBox="0 0 20 20" fill="none" xmlns="http://www.w3.org/2000/svg">
<g id="solar:clipboard-list-outline">
<path id="Vector" fill-rule="evenodd" clip-rule="evenodd" d="M6.0525 2.71669C6.10185 2.2567 6.31951 1.83119 6.66363 1.52199C7.00775 1.21279 7.45404 1.04172 7.91667 1.04169H12.0833C12.546 1.04172 12.9922 1.21279 13.3364 1.52199C13.6805 1.83119 13.8982 2.2567 13.9475 2.71669C14.5842 2.73002 15.1333 2.76252 15.6033 2.84919C16.235 2.96585 16.7725 3.18585 17.21 3.62419C17.7117 4.12502 17.9267 4.75752 18.0283 5.50752C18.125 6.22919 18.125 7.14835 18.125 8.28752V13.3792C18.125 14.5184 18.125 15.4375 18.0283 16.16C17.9267 16.91 17.7117 17.5417 17.21 18.0434C16.7083 18.545 16.0767 18.76 15.3267 18.8617C14.6042 18.9584 13.685 18.9584 12.5458 18.9584H7.45417C6.315 18.9584 5.39583 18.9584 4.67333 18.8617C3.92333 18.76 3.29167 18.545 2.79 18.0434C2.28833 17.5417 2.07333 16.91 1.9725 16.16C1.875 15.4375 1.875 14.5184 1.875 13.3792V8.28752C1.875 7.14835 1.875 6.22919 1.9725 5.50669C2.0725 4.75669 2.28917 4.12502 2.79 3.62335C3.2275 3.18585 3.765 2.96502 4.39667 2.84919C4.86667 2.76252 5.41667 2.73002 6.0525 2.71669ZM6.05417 3.96669C5.45583 3.98002 4.99417 4.01002 4.6225 4.07835C4.15083 4.16502 3.87667 4.30502 3.67417 4.50752C3.44333 4.73835 3.29333 5.06169 3.21083 5.67419C3.12667 6.30252 3.125 7.13752 3.125 8.33335V13.3334C3.125 14.5292 3.12667 15.3634 3.21083 15.9934C3.29333 16.605 3.44417 16.9284 3.67417 17.1592C3.905 17.39 4.22833 17.54 4.84083 17.6225C5.46917 17.7067 6.30417 17.7084 7.5 17.7084H12.5C13.6958 17.7084 14.53 17.7067 15.16 17.6225C15.7717 17.54 16.095 17.3892 16.3258 17.1592C16.5567 16.9284 16.7067 16.605 16.7892 15.9925C16.8733 15.3634 16.875 14.5292 16.875 13.3334V8.33335C16.875 7.13752 16.8733 6.30252 16.7892 5.67335C16.7067 5.06169 16.5558 4.73835 16.3258 4.50752C16.1225 4.30502 15.8492 4.16585 15.3775 4.07835C15.0058 4.01002 14.5442 3.98002 13.9458 3.96752C13.8925 4.42406 13.6734 4.84511 13.33 5.15069C12.9866 5.45626 12.543 5.62506 12.0833 5.62502H7.91667C7.45689 5.62504 7.01314 5.45612 6.66976 5.15038C6.32637 4.84463 6.1073 4.42338 6.05417 3.96669ZM7.91667 2.29169C7.75091 2.29169 7.59194 2.35754 7.47473 2.47475C7.35751 2.59196 7.29167 2.75093 7.29167 2.91669V3.75002C7.29167 4.09502 7.57167 4.37502 7.91667 4.37502H12.0833C12.2491 4.37502 12.4081 4.30917 12.5253 4.19196C12.6425 4.07475 12.7083 3.91578 12.7083 3.75002V2.91669C12.7083 2.75093 12.6425 2.59196 12.5253 2.47475C12.4081 2.35754 12.2491 2.29169 12.0833 2.29169H7.91667ZM5.20833 8.75002C5.20833 8.58426 5.27418 8.42529 5.39139 8.30808C5.5086 8.19087 5.66757 8.12502 5.83333 8.12502H6.25C6.41576 8.12502 6.57473 8.19087 6.69194 8.30808C6.80915 8.42529 6.875 8.58426 6.875 8.75002C6.875 8.91578 6.80915 9.07475 6.69194 9.19196C6.57473 9.30917 6.41576 9.37502 6.25 9.37502H5.83333C5.66757 9.37502 5.5086 9.30917 5.39139 9.19196C5.27418 9.07475 5.20833 8.91578 5.20833 8.75002ZM8.125 8.75002C8.125 8.58426 8.19085 8.42529 8.30806 8.30808C8.42527 8.19087 8.58424 8.12502 8.75 8.12502H14.1667C14.3324 8.12502 14.4914 8.19087 14.6086 8.30808C14.7258 8.42529 14.7917 8.58426 14.7917 8.75002C14.7917 8.91578 14.7258 9.07475 14.6086 9.19196C14.4914 9.30917 14.3324 9.37502 14.1667 9.37502H8.75C8.58424 9.37502 8.42527 9.30917 8.30806 9.19196C8.19085 9.07475 8.125 8.91578 8.125 8.75002ZM5.20833 11.6667C5.20833 11.5009 5.27418 11.342 5.39139 11.2247C5.5086 11.1075 5.66757 11.0417 5.83333 11.0417H6.25C6.41576 11.0417 6.57473 11.1075 6.69194 11.2247C6.80915 11.342 6.875 11.5009 6.875 11.6667C6.875 11.8324 6.80915 11.9914 6.69194 12.1086C6.57473 12.2258 6.41576 12.2917 6.25 12.2917H5.83333C5.66757 12.2917 5.5086 12.2258 5.39139 12.1086C5.27418 11.9914 5.20833 11.8324 5.20833 11.6667ZM8.125 11.6667C8.125 11.5009 8.19085 11.342 8.30806 11.2247C8.42527 11.1075 8.58424 11.0417 8.75 11.0417H14.1667C14.3324 11.0417 14.4914 11.1075 14.6086 11.2247C14.7258 11.342 14.7917 11.5009 14.7917 11.6667C14.7917 11.8324 14.7258 11.9914 14.6086 12.1086C14.4914 12.2258 14.3324 12.2917 14.1667 12.2917H8.75C8.58424 12.2917 8.42527 12.2258 8.30806 12.1086C8.19085 11.9914 8.125 11.8324 8.125 11.6667ZM5.20833 14.5834C5.20833 14.4176 5.27418 14.2586 5.39139 14.1414C5.5086 14.0242 5.66757 13.9584 5.83333 13.9584H6.25C6.41576 13.9584 6.57473 14.0242 6.69194 14.1414C6.80915 14.2586 6.875 14.4176 6.875 14.5834C6.875 14.7491 6.80915 14.9081 6.69194 15.0253C6.57473 15.1425 6.41576 15.2084 6.25 15.2084H5.83333C5.66757 15.2084 5.5086 15.1425 5.39139 15.0253C5.27418 14.9081 5.20833 14.7491 5.20833 14.5834ZM8.125 14.5834C8.125 14.4176 8.19085 14.2586 8.30806 14.1414C8.42527 14.0242 8.58424 13.9584 8.75 13.9584H14.1667C14.3324 13.9584 14.4914 14.0242 14.6086 14.1414C14.7258 14.2586 14.7917 14.4176 14.7917 14.5834C14.7917 14.7491 14.7258 14.9081 14.6086 15.0253C14.4914 15.1425 14.3324 15.2084 14.1667 15.2084H8.75C8.58424 15.2084 8.42527 15.1425 8.30806 15.0253C8.19085 14.9081 8.125 14.7491 8.125 14.5834Z" fill="#919EAB"/>
</g>
</svg>
