<svg width="20" height="20" viewBox="0 0 20 20" fill="none" xmlns="http://www.w3.org/2000/svg">
<g id="vuesax/bold/row-vertical">
<g id="vuesax/bold/row-vertical_2">
<g id="row-vertical">
<path id="Vector" d="M16.5832 11.25H3.4165C2.1665 11.25 1.6665 11.7833 1.6665 13.1083V16.475C1.6665 17.8 2.1665 18.3333 3.4165 18.3333H16.5832C17.8332 18.3333 18.3332 17.8 18.3332 16.475V13.1083C18.3332 11.7833 17.8332 11.25 16.5832 11.25Z" fill="#292D32"/>
<path id="Vector_2" d="M16.5832 1.66666H3.4165C2.1665 1.66666 1.6665 2.19999 1.6665 3.52499V6.89166C1.6665 8.21666 2.1665 8.74999 3.4165 8.74999H16.5832C17.8332 8.74999 18.3332 8.21666 18.3332 6.89166V3.52499C18.3332 2.19999 17.8332 1.66666 16.5832 1.66666Z" fill="#292D32"/>
</g>
</g>
</g>
</svg>
