<svg width="20" height="20" viewBox="0 0 20 20" fill="none" xmlns="http://www.w3.org/2000/svg">
<g id="ph:warning">
<path id="Vector" d="M18.5001 14.6945L11.6681 2.82968C11.4973 2.53899 11.2536 2.29797 10.961 2.13051C10.6685 1.96304 10.3372 1.87494 10.0001 1.87494C9.66299 1.87494 9.33174 1.96304 9.03916 2.13051C8.74659 2.29797 8.50286 2.53899 8.33214 2.82968L1.50011 14.6945C1.33584 14.9757 1.24927 15.2955 1.24927 15.6211C1.24927 15.9467 1.33584 16.2665 1.50011 16.5476C1.66865 16.8401 1.91196 17.0824 2.20508 17.2498C2.49819 17.4171 2.83056 17.5035 3.16807 17.5H16.8321C17.1694 17.5032 17.5014 17.4167 17.7942 17.2494C18.0871 17.082 18.3301 16.8399 18.4985 16.5476C18.663 16.2666 18.7499 15.9469 18.7502 15.6213C18.7504 15.2957 18.6641 14.9758 18.5001 14.6945ZM17.4165 15.9219C17.357 16.0235 17.2714 16.1074 17.1688 16.1651C17.0661 16.2227 16.9499 16.252 16.8321 16.25H3.16807C3.05032 16.252 2.93415 16.2227 2.83146 16.1651C2.72877 16.1074 2.64326 16.0235 2.5837 15.9219C2.52975 15.8305 2.50129 15.7264 2.50129 15.6203C2.50129 15.5142 2.52975 15.4101 2.5837 15.3187L9.41573 3.4539C9.47649 3.35278 9.56239 3.26911 9.66506 3.21102C9.76774 3.15294 9.8837 3.12241 10.0017 3.12241C10.1196 3.12241 10.2356 3.15294 10.3383 3.21102C10.4409 3.26911 10.5268 3.35278 10.5876 3.4539L17.4196 15.3187C17.4731 15.4104 17.501 15.5146 17.5005 15.6207C17.4999 15.7268 17.4709 15.8308 17.4165 15.9219ZM9.37511 11.25V8.12499C9.37511 7.95923 9.44095 7.80026 9.55816 7.68305C9.67537 7.56584 9.83434 7.49999 10.0001 7.49999C10.1659 7.49999 10.3248 7.56584 10.442 7.68305C10.5593 7.80026 10.6251 7.95923 10.6251 8.12499V11.25C10.6251 11.4158 10.5593 11.5747 10.442 11.6919C10.3248 11.8091 10.1659 11.875 10.0001 11.875C9.83434 11.875 9.67537 11.8091 9.55816 11.6919C9.44095 11.5747 9.37511 11.4158 9.37511 11.25ZM10.9376 14.0625C10.9376 14.2479 10.8826 14.4292 10.7796 14.5833C10.6766 14.7375 10.5302 14.8577 10.3589 14.9286C10.1876 14.9996 9.99907 15.0182 9.81721 14.982C9.63535 14.9458 9.4683 14.8565 9.33719 14.7254C9.20608 14.5943 9.11679 14.4272 9.08062 14.2454C9.04445 14.0635 9.06301 13.875 9.13397 13.7037C9.20493 13.5324 9.32509 13.386 9.47926 13.283C9.63343 13.18 9.81469 13.125 10.0001 13.125C10.2487 13.125 10.4872 13.2238 10.663 13.3996C10.8388 13.5754 10.9376 13.8138 10.9376 14.0625Z" fill="#919EAB"/>
</g>
</svg>
