<svg width="34" height="36" viewBox="0 0 34 36" fill="none" xmlns="http://www.w3.org/2000/svg">
<path d="M33.8593 22.9542C33.8593 25.5902 33.879 28.2262 33.8499 30.8622C33.8374 32.0095 33.3963 33.0259 32.6601 33.9127C32.0286 34.6817 31.1874 35.2514 30.2385 35.5528C29.08 35.9281 27.9301 35.875 26.7801 35.472C25.0777 34.8751 23.3655 34.3063 21.6582 33.7237C20.2743 33.252 18.885 32.7971 17.5128 32.2918C17.1549 32.16 16.8919 32.1431 16.5171 32.2771C14.1787 33.1121 11.8166 33.8998 9.46207 34.7017C8.54871 35.0145 7.64654 35.3661 6.71618 35.6145C4.86308 36.1082 3.20812 35.6659 1.78888 34.3881C0.922937 33.6062 0.4099 32.614 0.203254 31.468C0.161211 31.2572 0.13801 31.0431 0.133924 30.8282C0.137055 25.5562 0.124531 20.2874 0.14779 15.0168C0.152263 13.9682 0.569134 13.0264 1.19757 12.1811C1.60013 11.6369 2.13687 11.2344 2.64141 10.7961C3.31994 10.2055 4.00966 9.62735 4.69445 9.04386C6.44155 7.55461 8.1885 6.06536 9.9353 4.5761C11.003 3.66468 12.0724 2.75549 13.1289 1.83156C13.8656 1.1891 14.6412 0.634202 15.6038 0.378646C16.9707 0.0131837 18.2673 0.176257 19.5148 0.829443C20.0292 1.09751 20.4501 1.48665 20.8862 1.85703C21.7769 2.61059 22.6642 3.36787 23.548 4.12888C24.5302 4.96942 25.5122 5.8104 26.4938 6.65182C27.6595 7.64501 28.8363 8.62434 29.9929 9.6278C30.8061 10.3341 31.6703 10.986 32.4244 11.7553C33.2147 12.5622 33.6768 13.5447 33.8217 14.6755C33.8514 14.948 33.8639 15.2221 33.8593 15.4962C33.862 17.9821 33.862 20.4681 33.8593 22.9542ZM18.4874 31.1088C19.1136 31.3255 19.7094 31.5337 20.307 31.7369C22.5635 32.5049 24.8246 33.2631 27.0757 34.0441C27.7328 34.2715 28.3943 34.4158 29.0854 34.3367C30.964 34.1214 32.4132 32.4938 32.4222 30.6106C32.4257 29.8511 32.4222 29.0916 32.4222 28.3321C32.4222 24.0591 32.4233 19.786 32.4257 15.5127C32.4257 14.3404 32.0505 13.3311 31.1733 12.5515C30.1294 11.624 29.051 10.7358 27.9891 9.8284C26.714 8.73767 25.4379 7.64575 24.1608 6.55264C22.6324 5.24403 21.0911 3.94526 19.5689 2.62682C18.2164 1.45538 16.3306 1.28918 14.8894 2.28012C14.1675 2.77649 13.5404 3.39706 12.8726 3.96491C11.7906 4.88393 10.7176 5.81367 9.63741 6.73492C8.35966 7.82506 7.07968 8.91221 5.79746 9.99639C4.88097 10.7774 3.9779 11.5748 3.05068 12.3429C2.07112 13.1546 1.57463 14.18 1.57463 15.4493C1.57463 20.483 1.57597 25.5154 1.57866 30.5467C1.57866 31.7807 2.07067 32.7962 3.04844 33.5571C3.89828 34.2206 4.87024 34.4618 5.94104 34.3055C6.49746 34.2246 7.01005 34.003 7.53561 33.8265C9.49875 33.1657 11.4583 32.4942 13.4188 31.8258C14.1089 31.5904 14.7982 31.3527 15.521 31.1047C14.5294 30.528 13.6979 29.8033 12.8789 29.0706C11.665 27.9849 10.5083 26.8367 9.49383 25.5594C8.45389 24.2526 7.5781 22.8533 7.12813 21.2256C6.72558 19.7687 6.71932 18.3158 7.26232 16.8919C7.75031 15.6164 8.55229 14.5892 9.77025 13.924C10.4152 13.5719 11.1121 13.3722 11.8452 13.4093C12.8807 13.4611 13.8092 13.8534 14.6788 14.3985C15.4786 14.9018 16.2107 15.5054 16.857 16.1945C16.9648 16.3084 17.0386 16.3151 17.1393 16.1945C17.2323 16.0883 17.331 15.9872 17.4349 15.8916C18.2432 15.1146 19.1181 14.428 20.1406 13.9503C21.0897 13.5076 22.0742 13.2462 23.124 13.5116C24.9467 13.9731 26.0734 15.2058 26.7336 16.8937C27.3334 18.4275 27.2703 19.9925 26.7783 21.546C26.3261 22.9681 25.5568 24.2164 24.6452 25.3856C23.8164 26.4489 22.8762 27.409 21.9091 28.3446C21.1868 29.0424 20.421 29.6903 19.6365 30.3171C19.2778 30.6026 18.8926 30.8492 18.4874 31.1088ZM17.757 29.8578C17.9963 29.7041 18.1918 29.5964 18.3675 29.4628C20.0693 28.1734 21.6286 26.7065 23.0193 25.0871C23.8007 24.1744 24.4851 23.1968 25.0044 22.1089C25.4351 21.2073 25.7003 20.2597 25.7084 19.2603C25.7155 18.39 25.5371 17.55 25.0996 16.7825C24.7212 16.1181 24.2225 15.5681 23.5449 15.1951C22.5998 14.6746 21.6694 14.8149 20.748 15.2612C19.513 15.8599 18.5214 16.7597 17.6411 17.7908C17.2234 18.2823 16.7734 18.2823 16.357 17.7908C15.4781 16.7565 14.4815 15.8617 13.2488 15.2598C12.6441 14.965 12.012 14.776 11.3317 14.8939C10.3343 15.0668 9.62041 15.6655 9.08635 16.484C8.15689 17.9097 8.10232 19.4502 8.57913 21.0322C9.07472 22.6754 10.0637 24.031 11.1676 25.311C11.9946 26.2697 12.9013 27.1508 13.8441 27.9943C14.7087 28.7681 15.602 29.5071 16.6133 30.0892C16.696 30.137 16.7591 30.1755 16.8427 30.0781C17.163 29.7032 17.4564 29.3127 17.6322 28.8454C17.7977 28.4058 17.7337 28.001 17.4027 27.6704C16.9725 27.2415 16.8011 26.7237 16.824 26.1357C16.832 25.9284 16.7591 25.8842 16.5708 25.894C16.3024 25.9074 16.0269 25.898 15.7795 25.7979C15.368 25.6317 15.1824 25.2658 15.173 24.8561C15.1484 23.7772 15.1645 22.6978 15.1645 21.6184C15.1653 21.5961 15.1683 21.5739 15.1735 21.5522C15.436 20.1226 16.6969 19.3997 18.0307 19.7303C19.1042 19.9984 19.7228 21.0465 19.7613 21.9789C19.798 22.8725 19.7514 23.766 19.7765 24.6596C19.7944 25.285 19.2057 25.8766 18.5657 25.8587C18.2168 25.8489 17.8657 25.8355 17.5168 25.886C17.4305 25.8985 17.3491 25.9007 17.3594 26.02C17.3978 26.4552 17.4139 26.885 17.7574 27.2343C18.3094 27.7968 18.4203 28.4603 18.0983 29.1845C18.0057 29.3954 17.8912 29.5951 17.757 29.8596V29.8578ZM15.7344 22.3381C15.7344 22.6629 15.7375 22.9305 15.7344 23.1982C15.7321 23.3076 15.7608 23.3581 15.8833 23.3581C16.9474 23.3581 18.0119 23.3425 19.0756 23.3956C19.1843 23.4014 19.2424 23.3715 19.2366 23.2478C19.2147 22.7961 19.2545 22.3448 19.1968 21.8913C19.0666 20.8691 18.3523 20.22 17.3182 20.2302C16.6607 20.2365 16.2 20.5568 15.8923 21.1287C15.6726 21.5353 15.7523 21.9691 15.7344 22.3381ZM18.3286 23.9367V23.9322C18.0759 23.9322 17.8232 23.9353 17.5705 23.9322C17.4645 23.9322 17.4041 23.9537 17.4054 24.0774C17.4103 24.4487 17.4086 24.8195 17.4054 25.1908C17.4054 25.2801 17.4332 25.3248 17.5325 25.3248C17.8666 25.3181 18.2034 25.3351 18.5348 25.3096C18.9307 25.2792 19.1311 25.1139 19.2111 24.7775C19.2702 24.5304 19.2281 24.2753 19.2335 24.0238C19.2335 23.921 19.1498 23.9394 19.0863 23.9389C18.8305 23.9358 18.5795 23.9367 18.3273 23.9367H18.3286ZM16.857 24.6475C16.857 24.4621 16.853 24.2762 16.857 24.0908C16.8597 23.9818 16.8271 23.9255 16.7063 23.9282C16.4241 23.934 16.1418 23.9344 15.8596 23.9327C15.7661 23.9327 15.7192 23.9702 15.7209 24.0622C15.7263 24.3508 15.6901 24.643 15.7464 24.9281C15.7862 25.1282 15.8864 25.2944 16.1119 25.3195C16.8548 25.4021 16.8553 25.3994 16.8557 24.6698L16.857 24.6475Z" fill="#3DB2BB"/>
</svg>
