<svg width="16" height="16" viewBox="0 0 16 16" fill="none" xmlns="http://www.w3.org/2000/svg">
<rect x="0.5" y="0.5" width="15" height="15" rx="7.5" fill="#0F9EFF"/>
<path d="M8 11.625C6 11.625 4.375 10 4.375 8C4.375 6 6 4.375 8 4.375C10 4.375 11.625 6 11.625 8C11.625 10 10 11.625 8 11.625ZM8 5.125C6.415 5.125 5.125 6.415 5.125 8C5.125 9.585 6.415 10.875 8 10.875C9.585 10.875 10.875 9.585 10.875 8C10.875 6.415 9.585 5.125 8 5.125Z" fill="white"/>
<path d="M8 13.48C7.725 13.48 7.5 13.275 7.5 13V12.96C7.5 12.685 7.725 12.46 8 12.46C8.275 12.46 8.5 12.685 8.5 12.96C8.5 13.235 8.275 13.48 8 13.48ZM11.57 12.07C11.44 12.07 11.315 12.02 11.215 11.925L11.15 11.86C10.955 11.665 10.955 11.35 11.15 11.155C11.345 10.96 11.66 10.96 11.855 11.155L11.92 11.22C12.115 11.415 12.115 11.73 11.92 11.925C11.825 12.02 11.7 12.07 11.57 12.07ZM4.43 12.07C4.3 12.07 4.175 12.02 4.075 11.925C3.88 11.73 3.88 11.415 4.075 11.22L4.14 11.155C4.335 10.96 4.65 10.96 4.845 11.155C5.04 11.35 5.04 11.665 4.845 11.86L4.78 11.925C4.685 12.02 4.555 12.07 4.43 12.07ZM13 8.5H12.96C12.685 8.5 12.46 8.275 12.46 8C12.46 7.725 12.685 7.5 12.96 7.5C13.235 7.5 13.48 7.725 13.48 8C13.48 8.275 13.275 8.5 13 8.5ZM3.04 8.5H3C2.725 8.5 2.5 8.275 2.5 8C2.5 7.725 2.725 7.5 3 7.5C3.275 7.5 3.52 7.725 3.52 8C3.52 8.275 3.315 8.5 3.04 8.5ZM11.505 4.995C11.375 4.995 11.25 4.945 11.15 4.85C10.955 4.655 10.955 4.34 11.15 4.145L11.215 4.08C11.41 3.885 11.725 3.885 11.92 4.08C12.115 4.275 12.115 4.59 11.92 4.785L11.855 4.85C11.76 4.945 11.635 4.995 11.505 4.995ZM4.495 4.995C4.365 4.995 4.24 4.945 4.14 4.85L4.075 4.78C3.88 4.585 3.88 4.27 4.075 4.075C4.27 3.88 4.585 3.88 4.78 4.075L4.845 4.14C5.04 4.335 5.04 4.65 4.845 4.845C4.75 4.945 4.62 4.995 4.495 4.995ZM8 3.52C7.725 3.52 7.5 3.315 7.5 3.04V3C7.5 2.725 7.725 2.5 8 2.5C8.275 2.5 8.5 2.725 8.5 3C8.5 3.275 8.275 3.52 8 3.52Z" fill="white"/>
<rect x="0.5" y="0.5" width="15" height="15" rx="7.5" stroke="white"/>
</svg>
