<svg width="22" height="22" viewBox="0 0 22 22" fill="none" xmlns="http://www.w3.org/2000/svg">
<path fill-rule="evenodd" clip-rule="evenodd" d="M7.60852 4.09662C7.608 3.71744 7.94507 3.4267 8.32006 3.48288C8.5469 3.51686 8.73214 3.67554 8.8168 3.88871C9.04801 4.47093 9.22639 4.4746 10.4343 4.46547L16.5479 4.46376C17.4901 4.46832 18.1814 4.5752 18.4187 3.91789C18.5236 3.62728 18.7537 3.37242 19.0627 3.37419C19.3755 3.37598 19.6281 3.62995 19.6283 3.94273L19.6364 18.6788C19.6367 19.2313 19.1889 19.6793 18.6364 19.6794L9.66324 19.6797C9.49541 19.6797 9.33825 19.7561 9.22824 19.8829C8.88765 20.2753 9.11743 20.9537 9.637 20.9497C10.6264 20.9423 11.9051 20.9148 13.5572 20.9148C22.2256 20.9148 20.9313 22.2862 20.9321 14.0254C20.9326 11.3087 21.0492 5.98984 20.9326 3.47272C20.8776 2.28393 20.2017 2.14912 19.1405 2.13427C18.8329 2.12997 18.558 1.93978 18.4534 1.65048C18.361 1.35616 18.1298 1.14408 17.8225 1.11658C16.1095 0.963247 10.9892 0.959545 9.35686 1.11511C9.09035 1.14051 8.88328 1.32992 8.7988 1.58395C8.68986 1.91152 8.38117 2.12865 8.03624 2.14241C5.84799 2.22975 6.30985 2.96073 6.31233 6.82361V8.84741C6.31233 9.09281 6.47018 9.31065 6.69598 9.40676C7.11422 9.58477 7.61567 9.29639 7.61504 8.84185L7.60852 4.09662ZM10.0762 2.71884C10.0929 2.47883 10.2924 2.29261 10.533 2.29238L16.719 2.28639C16.9678 2.28615 17.1714 2.48437 17.1778 2.7331C17.1845 2.99074 16.9776 3.20325 16.7198 3.20348L10.5338 3.20903C10.268 3.20927 10.0577 2.98403 10.0762 2.71884Z" fill="#637381"/>
<path fill-rule="evenodd" clip-rule="evenodd" d="M14.5444 16.9314C14.7875 17.628 14.9255 18.3716 15.7369 18.2284C16.1483 18.1558 16.2002 17.9819 16.3583 17.584C16.374 17.5451 16.5326 17.1383 16.5366 17.1323C16.9512 16.537 17.4284 17.2015 17.7576 16.5378C17.9091 16.2323 17.826 15.9002 17.4936 15.7395C16.777 15.3929 15.933 15.772 15.5179 16.0374C15.3589 15.3652 15.2575 15.181 14.7272 14.8998C13.6915 14.9784 14.086 15.3113 13.5039 15.9618C13.0343 15.9618 12.2779 15.8532 11.9357 16.0831C10.9537 16.743 12.5103 17.8605 14.5444 16.9314Z" fill="#637381"/>
<path fill-rule="evenodd" clip-rule="evenodd" d="M10.3065 10.1998H16.9375C18.1161 10.1998 18.2278 8.96899 16.9375 8.96899H10.3065C9.00634 8.96899 9.1301 10.1998 10.3065 10.1998Z" fill="#637381"/>
<path fill-rule="evenodd" clip-rule="evenodd" d="M9.79901 6.30362C9.06987 6.67969 9.34285 7.36474 10.1712 7.43525L17.4987 7.34679C18.1063 7.05149 17.9254 6.28567 17.0716 6.21045C16.3563 6.14806 10.0805 6.15832 9.79901 6.30362Z" fill="#637381"/>
<path fill-rule="evenodd" clip-rule="evenodd" d="M9.95044 11.7669C9.85796 11.7938 9.77754 11.828 9.70874 11.8682C9.94017 12.2071 10.1408 12.5669 10.3061 12.9451L17.4281 12.8934C18.0205 12.6708 18.0031 11.8391 17.165 11.7349L9.95044 11.7669Z" fill="#637381"/>
<path d="M9.6 15C9.6 17.5812 7.72577 19.6 5.5 19.6C3.27423 19.6 1.4 17.5812 1.4 15C1.4 12.4188 3.27423 10.4 5.5 10.4C7.72577 10.4 9.6 12.4188 9.6 15Z" stroke="#637381" stroke-width="0.8"/>
<path d="M1.5 14.5H9.5V15.5H1.5V14.5Z" fill="#637381"/>
</svg>
