<svg width="12" height="12" viewBox="0 0 12 12" fill="none" xmlns="http://www.w3.org/2000/svg">
<g id="vuesax/outline/maximize-4">
<g id="maximize-4">
<path id="Vector" d="M10.5 4.875C10.295 4.875 10.125 4.705 10.125 4.5V1.875H7.5C7.295 1.875 7.125 1.705 7.125 1.5C7.125 1.295 7.295 1.125 7.5 1.125H10.5C10.705 1.125 10.875 1.295 10.875 1.5V4.5C10.875 4.705 10.705 4.875 10.5 4.875Z" fill="#212B36"/>
<path id="Vector_2" d="M4.5 10.875H1.5C1.295 10.875 1.125 10.705 1.125 10.5V7.5C1.125 7.295 1.295 7.125 1.5 7.125C1.705 7.125 1.875 7.295 1.875 7.5V10.125H4.5C4.705 10.125 4.875 10.295 4.875 10.5C4.875 10.705 4.705 10.875 4.5 10.875Z" fill="#212B36"/>
<path id="Vector_3" d="M6.74973 5.62473C6.65473 5.62473 6.55973 5.58973 6.48473 5.51473C6.33973 5.36973 6.33973 5.12973 6.48473 4.98473L10.2347 1.23473C10.3797 1.08973 10.6197 1.08973 10.7647 1.23473C10.9097 1.37973 10.9097 1.61973 10.7647 1.76473L7.01473 5.51473C6.93973 5.58973 6.84473 5.62473 6.74973 5.62473Z" fill="#212B36"/>
<path id="Vector_4" d="M1.49973 10.8747C1.40473 10.8747 1.30973 10.8397 1.23473 10.7647C1.08973 10.6197 1.08973 10.3797 1.23473 10.2347L4.98473 6.48473C5.12973 6.33973 5.36973 6.33973 5.51473 6.48473C5.65973 6.62973 5.65973 6.86973 5.51473 7.01473L1.76473 10.7647C1.68973 10.8397 1.59473 10.8747 1.49973 10.8747Z" fill="#212B36"/>
</g>
</g>
</svg>
