<svg width="20" height="20" viewBox="0 0 20 20" fill="none" xmlns="http://www.w3.org/2000/svg">
<path fill-rule="evenodd" clip-rule="evenodd" d="M20 7.98724L19.4141 15.4329H0.585938L0 7.98724L3.3332 5.60638H16.6668L20 7.98724Z" fill="#919EAB"/>
<path fill-rule="evenodd" clip-rule="evenodd" d="M3.33319 2.84467C3.33319 1.7401 4.22862 0.844666 5.33319 0.844666H14.6668C15.7714 0.844666 16.6668 1.7401 16.6668 2.84467V15.8443H3.33319L3.33319 2.84467Z" fill="#F4F6F8"/>
<path fill-rule="evenodd" clip-rule="evenodd" d="M5.71436 3.70172C5.71436 3.37812 5.97669 3.11578 6.30029 3.11578H9.41408C9.73769 3.11578 10 3.37812 10 3.70172C10 4.02533 9.73769 4.28766 9.41408 4.28766H6.30029C5.97669 4.28766 5.71436 4.02533 5.71436 3.70172Z" fill="#C4CDD5"/>
<path fill-rule="evenodd" clip-rule="evenodd" d="M5.71448 6.55872C5.71448 6.23511 5.97681 5.97278 6.30042 5.97278H13.6996C14.0232 5.97278 14.2856 6.23511 14.2856 6.55872C14.2856 6.88232 14.0232 7.14465 13.6996 7.14465H6.30041C5.97681 7.14465 5.71448 6.88232 5.71448 6.55872Z" fill="#C4CDD5"/>
<path fill-rule="evenodd" clip-rule="evenodd" d="M5.71448 9.41577C5.71448 9.09217 5.97681 8.82983 6.30042 8.82983H13.6996C14.0232 8.82983 14.2856 9.09217 14.2856 9.41577C14.2856 9.73938 14.0232 10.0017 13.6996 10.0017H6.30041C5.97681 10.0017 5.71448 9.73938 5.71448 9.41577Z" fill="#C4CDD5"/>
<path fill-rule="evenodd" clip-rule="evenodd" d="M20 7.98724V19.4158L10 18.4869L0 19.4158V7.98724L8 13.7017H12L20 7.98724Z" fill="#C4CDD5"/>
<path fill-rule="evenodd" clip-rule="evenodd" d="M20 7.98724V19.4158L10 18.4869V13.7017H12L20 7.98724Z" fill="#C4CDD5"/>
<path fill-rule="evenodd" clip-rule="evenodd" d="M20 19.4158H0L10 12.2732L20 19.4158Z" fill="#919EAB"/>
<path fill-rule="evenodd" clip-rule="evenodd" d="M20 19.4158H10V12.2732L20 19.4158Z" fill="#637381"/>
</svg>
