<svg width="24" height="24" viewBox="0 0 24 24" fill="none" xmlns="http://www.w3.org/2000/svg">
<path fill-rule="evenodd" clip-rule="evenodd" d="M18.72 13.4L20.52 15.21C20.9822 15.6799 21.1182 16.381 20.8651 16.9896C20.6121 17.5983 20.0192 17.9963 19.36 18H16V18.34C15.9027 20.4537 14.114 22.0904 12 22C9.88601 22.0904 8.09725 20.4537 8 18.34V18H4.64C3.98083 17.9963 3.38794 17.5983 3.13487 16.9896C2.88181 16.381 3.01776 15.6799 3.48 15.21L5.28 13.4V8.73C5.28353 6.79117 6.12184 4.94776 7.58072 3.67076C9.0396 2.39376 10.9778 1.80686 12.9 2.06C16.2855 2.57889 18.7695 5.51535 18.72 8.94V13.4ZM12 20C13.0034 20.0708 13.8848 19.3393 14 18.34V18H10V18.34C10.1152 19.3393 10.9966 20.0708 12 20Z" fill="#637381"/>
</svg>
