<svg width="16" height="16" viewBox="0 0 16 16" fill="none" xmlns="http://www.w3.org/2000/svg">
<rect x="0.5" y="0.5" width="15" height="15" rx="7.5" fill="#8E33FF"/>
<path d="M8.23022 13.3751C8.14522 13.3751 8.06022 13.3751 7.97522 13.3701C5.17522 13.2451 2.83522 10.9901 2.64022 8.24006C2.47022 5.88006 3.83522 3.67506 6.03522 2.75006C6.66022 2.49006 6.99022 2.69006 7.13022 2.83506C7.27022 2.97506 7.46522 3.30006 7.20522 3.89506C6.97522 4.42506 6.86022 4.99006 6.86522 5.57006C6.87522 7.78506 8.71522 9.66506 10.9602 9.75506C11.2852 9.77006 11.6052 9.74506 11.9152 9.69006C12.5752 9.57006 12.8502 9.83506 12.9552 10.0051C13.0602 10.1751 13.1802 10.5401 12.7802 11.0801C11.7202 12.5301 10.0352 13.3751 8.23022 13.3751ZM3.38522 8.18506C3.55522 10.5651 5.58522 12.5151 8.00522 12.6201C9.65022 12.7001 11.2102 11.9501 12.1702 10.6401C12.2452 10.5351 12.2802 10.4601 12.2952 10.4201C12.2502 10.4151 12.1702 10.4101 12.0452 10.4351C11.6802 10.5001 11.3002 10.5251 10.9252 10.5101C8.28522 10.4051 6.12522 8.19006 6.11022 5.58006C6.11022 4.89006 6.24522 4.22506 6.52022 3.60006C6.57022 3.49006 6.58022 3.41506 6.58522 3.37506C6.54022 3.37506 6.46022 3.38506 6.33022 3.44006C4.42522 4.24006 3.24522 6.15006 3.38522 8.18506Z" fill="white"/>
<rect x="0.5" y="0.5" width="15" height="15" rx="7.5" stroke="white"/>
</svg>
