<svg width="16" height="16" viewBox="0 0 16 16" fill="none" xmlns="http://www.w3.org/2000/svg">
<g id="vuesax/outline/nurse">
<g id="vuesax/outline/nurse_2">
<path id="Union" fill-rule="evenodd" clip-rule="evenodd" d="M13.7533 2.11023C11.4909 0.841055 9.65275 0.166676 7.77794 0.166626C5.90311 0.166575 4.06494 0.840864 1.80257 2.11025C1.57744 2.23656 1.45814 2.50669 1.53641 2.76759L2.94623 7.46699C2.99084 7.61567 3.08907 7.72967 3.21154 7.79798C2.73625 8.59399 2.46291 9.52497 2.46291 10.5192C2.46291 13.4546 4.84249 15.8341 7.77784 15.8341C10.7132 15.8341 13.0928 13.4546 13.0928 10.5192C13.0928 9.52475 12.8193 8.59363 12.3439 7.79755C12.4666 7.72935 12.5651 7.61531 12.6099 7.46617L14.0194 2.76759C14.0977 2.50668 13.9784 2.23654 13.7533 2.11023ZM10.9063 7.54744C9.73584 7.22709 8.75531 7.07809 7.78401 7.0821C6.80677 7.08614 5.81815 7.24509 4.63306 7.56274C4.62579 7.57177 4.61817 7.58061 4.61018 7.58924C3.89768 8.35912 3.46291 9.38783 3.46291 10.5192C3.46291 12.9023 5.39477 14.8341 7.77784 14.8341C10.1609 14.8341 12.0928 12.9023 12.0928 10.5192C12.0928 9.36729 11.642 8.32169 10.9063 7.54744ZM3.77941 6.76416L2.5946 2.81478C4.65012 1.69297 6.23069 1.16658 7.77791 1.16663C9.32513 1.16667 10.9057 1.69315 12.9612 2.81481L11.778 6.75881C10.283 6.30407 9.03884 6.07691 7.77988 6.08211C6.52148 6.08731 5.27588 6.32461 3.77941 6.76416ZM6.7077 2.00663C6.7077 1.81885 6.85992 1.66663 7.0477 1.66663H8.28437C8.47215 1.66663 8.62437 1.81885 8.62437 2.00663V2.70829H9.32604C9.51381 2.70829 9.66604 2.86051 9.66604 3.04829V4.28496C9.66604 4.47274 9.51381 4.62496 9.32604 4.62496H8.62437V5.32663C8.62437 5.5144 8.47215 5.66663 8.28437 5.66663H7.0477C6.85993 5.66663 6.7077 5.5144 6.7077 5.32663V4.62496H6.00604C5.81826 4.62496 5.66604 4.47274 5.66604 4.28496V3.04829C5.66604 2.86052 5.81826 2.70829 6.00604 2.70829H6.7077V2.00663ZM7.37437 2.33329V3.03496C7.37437 3.22274 7.22215 3.37496 7.03437 3.37496H6.3327V3.95829H7.03437C7.22215 3.95829 7.37437 4.11052 7.37437 4.29829V4.99996H7.9577V4.29829C7.9577 4.11051 8.10993 3.95829 8.2977 3.95829H8.99937V3.37496H8.2977C8.10993 3.37496 7.9577 3.22274 7.9577 3.03496V2.33329H7.37437Z" fill="#637381"/>
</g>
</g>
</svg>
