<svg width="20" height="20" viewBox="0 0 20 20" fill="none" xmlns="http://www.w3.org/2000/svg">
<g id="ph:phone-disconnect-light">
<path id="Vector" d="M17.9836 7.15234C13.6562 2.82422 6.34293 2.82422 2.01637 7.15234C0.512461 8.65781 0.367149 10.8766 1.66324 12.5477C1.80832 12.7323 2.00895 12.8653 2.23546 12.927C2.46198 12.9888 2.70236 12.976 2.92106 12.8906L6.74918 11.5328L6.76637 11.5258C6.93555 11.4587 7.0852 11.3502 7.20162 11.2103C7.31804 11.0704 7.39752 10.9036 7.43277 10.725L7.89371 8.41875C7.8982 8.39307 7.90926 8.36899 7.92583 8.34886C7.9424 8.32873 7.9639 8.31324 7.98824 8.30391C9.2827 7.85462 10.6903 7.8516 11.9867 8.29531C12.011 8.3044 12.0325 8.31961 12.0492 8.33945C12.0659 8.35929 12.0772 8.38311 12.082 8.40859L12.5672 10.7328C12.6039 10.9094 12.6838 11.0741 12.7997 11.2123C12.9156 11.3505 13.0638 11.4579 13.2312 11.525L13.2492 11.5313L17.0773 12.8906C17.2962 12.9758 17.5368 12.9882 17.7633 12.926C17.9899 12.8638 18.1903 12.7303 18.3351 12.5453C19.6328 10.8766 19.4875 8.65781 17.9836 7.15234ZM17.5929 11.9734C17.5718 11.999 17.543 12.0172 17.5109 12.0253C17.4787 12.0335 17.4448 12.0312 17.414 12.0187L17.3968 12.0117L13.5687 10.6539C13.5475 10.6436 13.5289 10.6286 13.5142 10.6101C13.4996 10.5915 13.4894 10.5699 13.4843 10.5469L12.9984 8.22344C12.96 8.03914 12.8746 7.86787 12.7506 7.72622C12.6266 7.58456 12.4682 7.47731 12.2906 7.41484C10.7961 6.90342 9.17343 6.90699 7.68121 7.425C7.50351 7.48882 7.34536 7.59755 7.22215 7.74062C7.09893 7.88368 7.01485 8.05621 6.97809 8.24141L6.51324 10.5469C6.50839 10.5715 6.49769 10.5945 6.48205 10.6141C6.46641 10.6337 6.4463 10.6492 6.4234 10.6594L2.59996 12.0117L2.58277 12.0187C2.55201 12.0312 2.51808 12.0335 2.48592 12.0253C2.45375 12.0172 2.42501 11.999 2.40387 11.9734C1.38824 10.6656 1.50074 8.99531 2.67965 7.81563C4.66324 5.83125 7.33199 4.83906 9.99996 4.83906C12.6679 4.83906 15.3367 5.83125 17.3203 7.81563C18.4992 8.99531 18.6101 10.6656 17.5961 11.9734H17.5929ZM17.3437 15.625C17.3437 15.7493 17.2943 15.8685 17.2064 15.9565C17.1185 16.0444 16.9993 16.0938 16.875 16.0938H3.12496C3.00064 16.0938 2.88141 16.0444 2.79351 15.9565C2.7056 15.8685 2.65621 15.7493 2.65621 15.625C2.65621 15.5007 2.7056 15.3815 2.79351 15.2935C2.88141 15.2056 3.00064 15.1562 3.12496 15.1562H16.875C16.9993 15.1562 17.1185 15.2056 17.2064 15.2935C17.2943 15.3815 17.3437 15.5007 17.3437 15.625Z" fill="#919EAB"/>
</g>
</svg>
