<svg width="20" height="20" viewBox="0 0 20 20" fill="none" xmlns="http://www.w3.org/2000/svg">
<g id="solar:diploma-verified-linear" clip-path="url(#clip0_1145_4133)">
<g id="Group">
<path id="Vector" d="M5.83341 14.9983C4.02091 14.9883 3.03925 14.9083 2.39925 14.2675C1.66675 13.5358 1.66675 12.3566 1.66675 9.99996V6.66663C1.66675 4.30996 1.66675 3.13079 2.39925 2.39913C3.13091 1.66663 4.31008 1.66663 6.66675 1.66663H13.3334C15.6901 1.66663 16.8692 1.66663 17.6009 2.39913C18.3334 3.13079 18.3334 4.30996 18.3334 6.66663V9.99996C18.3334 12.3566 18.3334 13.5358 17.6009 14.2675C16.9926 14.8758 16.0767 14.9791 14.4334 14.9966L13.7501 14.9983" stroke="#919EAB" stroke-width="1.5"/>
<path id="Vector_2" d="M7.50016 5H12.5002M5.8335 7.91667H14.1668" stroke="#919EAB" stroke-width="1.5" stroke-linecap="round"/>
<path id="Vector_3" d="M9.075 11.6208C9.33294 11.4007 9.66091 11.2798 10 11.2798C10.3391 11.2798 10.6671 11.4007 10.925 11.6208C11.1525 11.8158 11.4367 11.9333 11.735 11.9575C12.0728 11.9841 12.3901 12.1303 12.6299 12.3698C12.8697 12.6093 13.0162 12.9263 13.0433 13.2641C13.0667 13.5641 13.1842 13.8475 13.3783 14.0758C13.598 14.3336 13.7186 14.6613 13.7186 15C13.7186 15.3387 13.598 15.6663 13.3783 15.9241C13.1837 16.1526 13.0662 16.4366 13.0425 16.7358C13.0156 17.0736 12.8692 17.3908 12.6296 17.6304C12.39 17.8701 12.0728 18.0164 11.735 18.0433C11.4361 18.0672 11.1524 18.1847 10.9242 18.3791C10.6663 18.599 10.3385 18.7198 9.99958 18.7198C9.66068 18.7198 9.33288 18.599 9.075 18.3791C8.84689 18.1844 8.56314 18.0666 8.26417 18.0425C7.92648 18.0156 7.60941 17.8694 7.3698 17.6299C7.1302 17.3905 6.98373 17.0735 6.95667 16.7358C6.93298 16.4366 6.81545 16.1526 6.62083 15.9241C6.40117 15.6663 6.28052 15.3387 6.28052 15C6.28052 14.6613 6.40117 14.3336 6.62083 14.0758C6.81545 13.8474 6.93298 13.5633 6.95667 13.2641C6.98376 12.9263 7.13034 12.6093 7.37012 12.3698C7.6099 12.1303 7.92717 11.9841 8.265 11.9575C8.56333 11.9333 8.84667 11.8158 9.075 11.6208Z" stroke="#919EAB" stroke-width="1.5"/>
<path id="Vector_4" d="M8.75 15.1666L9.46417 15.8333L11.25 14.1666" stroke="#919EAB" stroke-width="1.5" stroke-linecap="round" stroke-linejoin="round"/>
</g>
</g>
<defs>
<clipPath id="clip0_1145_4133">
<rect width="20" height="20" fill="white"/>
</clipPath>
</defs>
</svg>
