<svg width="20" height="20" viewBox="0 0 20 20" fill="none" xmlns="http://www.w3.org/2000/svg">
<g id="circum:percent">
<path id="Vector" d="M10 18.2784C8.36266 18.2785 6.76205 17.7931 5.40057 16.8836C4.0391 15.9741 2.97791 14.6812 2.35122 13.1686C1.72452 11.6559 1.56047 9.9914 1.87979 8.38551C2.19912 6.77961 2.98749 5.30448 4.1452 4.14665C5.30291 2.98882 6.77797 2.2003 8.38383 1.88081C9.98969 1.56132 11.6542 1.72521 13.167 2.35175C14.6797 2.9783 15.9726 4.03935 16.8823 5.40073C17.792 6.76212 18.2775 8.36268 18.2775 10C18.2751 12.1947 17.4022 14.2988 15.8504 15.8507C14.2987 17.4026 12.1947 18.2757 10 18.2784ZM10 2.55502C8.52748 2.55485 7.08798 2.99135 5.86355 3.80932C4.63911 4.62729 3.68474 5.78998 3.12112 7.15036C2.5575 8.51074 2.40994 10.0077 2.69711 11.452C2.98429 12.8962 3.69329 14.2228 4.73446 15.2641C5.77563 16.3054 7.1022 17.0146 8.54641 17.3019C9.99062 17.5892 11.4876 17.4418 12.848 16.8784C14.2085 16.3149 15.3713 15.3607 16.1894 14.1363C17.0075 12.912 17.4442 11.4725 17.4442 10C17.442 8.0263 16.657 6.13404 15.2614 4.73834C13.8659 3.34263 11.9737 2.55744 10 2.55502Z" fill="#919EAB"/>
<path id="Vector_2" d="M7.49997 8.54834C7.21078 8.54821 6.93059 8.44781 6.70712 8.26426C6.48366 8.0807 6.33075 7.82534 6.27445 7.54169C6.21815 7.25803 6.26195 6.96363 6.39837 6.70865C6.5348 6.45366 6.75541 6.25387 7.02263 6.14331C7.28984 6.03274 7.58713 6.01825 7.86383 6.1023C8.14054 6.18635 8.37954 6.36374 8.54012 6.60424C8.7007 6.84475 8.77292 7.1335 8.74447 7.42128C8.71603 7.70907 8.58869 7.97809 8.38414 8.18251C8.268 8.29856 8.13015 8.3906 7.97844 8.45337C7.82674 8.51614 7.66415 8.54841 7.49997 8.54834ZM7.49997 6.88167C7.40354 6.88165 7.3101 6.91508 7.23556 6.97624C7.16102 7.03741 7.11 7.12254 7.09121 7.21712C7.07241 7.31169 7.087 7.40986 7.13248 7.49488C7.17796 7.5799 7.25153 7.64652 7.34063 7.68337C7.42973 7.72023 7.52886 7.72504 7.62112 7.69698C7.71337 7.66892 7.79303 7.60974 7.84653 7.52952C7.90003 7.4493 7.92405 7.353 7.9145 7.25705C7.90494 7.1611 7.8624 7.07144 7.79413 7.00334C7.71591 6.92575 7.61014 6.88148 7.49997 6.88167ZM6.46497 13.9525C6.38234 13.9532 6.30138 13.9292 6.23239 13.8837C6.1634 13.8383 6.10949 13.7733 6.07751 13.6971C6.04553 13.6209 6.03693 13.5369 6.0528 13.4558C6.06867 13.3747 6.10829 13.3002 6.16664 13.2417L13.2408 6.16667C13.3194 6.09077 13.4246 6.04878 13.5339 6.04973C13.6431 6.05068 13.7476 6.0945 13.8249 6.17175C13.9021 6.249 13.946 6.35351 13.9469 6.46276C13.9479 6.572 13.9059 6.67726 13.83 6.75584L6.75914 13.8333C6.68064 13.9103 6.57491 13.9531 6.46497 13.9525ZM12.5 13.9517C12.2108 13.9513 11.9306 13.8508 11.7073 13.667C11.4839 13.4833 11.3312 13.2278 11.2751 12.9441C11.219 12.6604 11.263 12.366 11.3997 12.1111C11.5363 11.8562 11.7571 11.6566 12.0244 11.5463C12.2917 11.4359 12.589 11.4217 12.8657 11.5059C13.1423 11.5902 13.3812 11.7678 13.5416 12.0085C13.7019 12.2491 13.7739 12.538 13.7452 12.8257C13.7165 13.1135 13.5889 13.3824 13.3841 13.5867C13.2681 13.7028 13.1303 13.7949 12.9785 13.8575C12.8268 13.9202 12.6641 13.9522 12.5 13.9517ZM12.5 12.285C12.4452 12.285 12.3909 12.2958 12.3403 12.3169C12.2896 12.3379 12.2437 12.3687 12.205 12.4075C12.1273 12.4854 12.0835 12.5908 12.0833 12.7008C12.0833 12.8113 12.1272 12.9173 12.2053 12.9955C12.2835 13.0736 12.3895 13.1175 12.5 13.1175C12.6105 13.1175 12.7165 13.0736 12.7946 12.9955C12.8727 12.9173 12.9166 12.8113 12.9166 12.7008C12.9166 12.5903 12.8727 12.4844 12.7946 12.4062C12.7165 12.3281 12.6105 12.285 12.5 12.285Z" fill="#919EAB"/>
</g>
</svg>
