<svg width="18" height="18" viewBox="0 0 18 18" fill="none" xmlns="http://www.w3.org/2000/svg">
<g id="vuesax/outline/play-circle">
<g id="vuesax/outline/play-circle_2">
<g id="play-circle">
<path id="Vector" d="M8.97656 17.0625C4.53656 17.0625 0.914062 13.4475 0.914062 9C0.914062 4.5525 4.53656 0.9375 8.97656 0.9375C13.4166 0.9375 17.0391 4.5525 17.0391 9C17.0391 13.4475 13.4241 17.0625 8.97656 17.0625ZM8.97656 2.0625C5.15156 2.0625 2.03906 5.175 2.03906 9C2.03906 12.825 5.15156 15.9375 8.97656 15.9375C12.8016 15.9375 15.9141 12.825 15.9141 9C15.9141 5.175 12.8016 2.0625 8.97656 2.0625Z" fill="#637381"/>
<path id="Vector_2" d="M7.92018 12.7429C7.59018 12.7429 7.27518 12.6604 6.99768 12.5029C6.35268 12.1279 5.99268 11.3929 5.99268 10.4329V7.92036C5.99268 6.96036 6.34518 6.22536 6.99018 5.85036C7.63518 5.47536 8.45268 5.53536 9.28518 6.01536L11.4602 7.26786C12.2927 7.74786 12.7502 8.42286 12.7502 9.17286C12.7502 9.91536 12.2927 10.5979 11.4602 11.0779L9.28518 12.3304C8.82018 12.6079 8.34768 12.7429 7.92018 12.7429ZM7.92018 6.72786C7.78518 6.72786 7.65768 6.75786 7.56018 6.81786C7.27518 6.98286 7.11768 7.38036 7.11768 7.92036V10.4329C7.11768 10.9654 7.27518 11.3704 7.56018 11.5279C7.83768 11.6929 8.26518 11.6254 8.73018 11.3629L10.9052 10.1104C11.3702 9.84036 11.6327 9.50286 11.6327 9.18036C11.6327 8.85786 11.3627 8.52036 10.9052 8.25036L8.73018 6.99786C8.43018 6.81786 8.15268 6.72786 7.92018 6.72786Z" fill="#637381"/>
</g>
</g>
</g>
</svg>
