<svg width="22" height="22" viewBox="0 0 22 22" fill="none" xmlns="http://www.w3.org/2000/svg">
<g id="iconoir:privacy-policy">
<g id="Group">
<path id="Vector" d="M18.3334 11V5.26996C18.3335 5.1976 18.3193 5.12594 18.2916 5.05909C18.2639 4.99224 18.2233 4.93151 18.1721 4.88037L15.2864 1.99471C15.1834 1.89153 15.0436 1.8335 14.8977 1.83337H4.21675C4.07088 1.83337 3.93098 1.89132 3.82784 1.99447C3.72469 2.09761 3.66675 2.2375 3.66675 2.38337V19.6167C3.66675 19.7626 3.72469 19.9025 3.82784 20.0056C3.93098 20.1088 4.07088 20.1667 4.21675 20.1667H11.9167M7.33341 9.16671H14.6667M7.33341 5.50004H11.0001M7.33341 12.8334H10.0834" stroke="#637381" stroke-width="1.2" stroke-linecap="round" stroke-linejoin="round"/>
<path id="Vector_2" d="M14.6667 1.83337V4.95004C14.6667 5.09591 14.7247 5.2358 14.8278 5.33895C14.931 5.44209 15.0709 5.50004 15.2167 5.50004H18.3334M18.3261 13.8646L20.6691 14.4595C20.9129 14.5219 21.0843 14.7437 21.077 14.9949C20.9193 20.273 17.8751 21.0834 17.8751 21.0834C17.8751 21.0834 14.8308 20.273 14.6732 14.9949C14.6703 14.8726 14.7092 14.753 14.7833 14.6557C14.8574 14.5584 14.9624 14.4893 15.0811 14.4595L17.4241 13.8646C17.7202 13.7895 18.03 13.7895 18.3261 13.8646Z" stroke="#637381" stroke-width="1.2" stroke-linecap="round" stroke-linejoin="round"/>
</g>
</g>
</svg>
