<svg width="20" height="20" viewBox="0 0 20 20" fill="none" xmlns="http://www.w3.org/2000/svg">
<path d="M12.0469 3.00391C12.0628 2.94439 12.0902 2.88858 12.1277 2.83967C12.1651 2.79076 12.2118 2.74971 12.2652 2.71887C12.3185 2.68804 12.3774 2.66801 12.4385 2.65995C12.4995 2.65189 12.5616 2.65594 12.6211 2.67188C13.7533 2.96721 14.7863 3.55904 15.6136 4.3864C16.441 5.21376 17.0328 6.24673 17.3281 7.37891C17.3441 7.43842 17.3481 7.50048 17.3401 7.56156C17.332 7.62263 17.312 7.68151 17.2811 7.73484C17.2503 7.78817 17.2093 7.8349 17.1603 7.87236C17.1114 7.90981 17.0556 7.93726 16.9961 7.95313C16.9566 7.96365 16.9159 7.9689 16.875 7.96876C16.7717 7.96882 16.6713 7.93477 16.5894 7.87191C16.5074 7.80904 16.4486 7.72087 16.4219 7.6211C16.1683 6.64859 15.66 5.76128 14.9494 5.05063C14.2387 4.33997 13.3514 3.83168 12.3789 3.57813C12.3194 3.56226 12.2636 3.53481 12.2147 3.49736C12.1658 3.4599 12.1247 3.41317 12.0939 3.35984C12.063 3.30651 12.043 3.24763 12.035 3.18656C12.0269 3.12548 12.0309 3.06342 12.0469 3.00391ZM11.7539 6.07813C12.8906 6.38126 13.6188 7.10938 13.9219 8.2461C13.9486 8.34587 14.0074 8.43404 14.0894 8.49691C14.1713 8.55977 14.2717 8.59382 14.375 8.59376C14.4159 8.5939 14.4566 8.58865 14.4961 8.57813C14.5556 8.56226 14.6114 8.53481 14.6603 8.49736C14.7093 8.4599 14.7503 8.41317 14.7811 8.35984C14.812 8.30651 14.832 8.24763 14.8401 8.18656C14.8481 8.12548 14.8441 8.06342 14.8281 8.00391C14.4375 6.54219 13.4578 5.56251 11.9961 5.17188C11.9366 5.15598 11.8745 5.15195 11.8135 5.16003C11.7524 5.16811 11.6935 5.18814 11.6402 5.21897C11.5325 5.28124 11.454 5.38374 11.4219 5.50391C11.3898 5.62409 11.4067 5.7521 11.469 5.85979C11.5312 5.96747 11.6337 6.04602 11.7539 6.07813ZM17.9602 13.6563C17.8263 14.6775 17.3251 15.6151 16.5503 16.2938C15.7755 16.9724 14.78 17.3457 13.75 17.3438C7.63282 17.3438 2.65626 12.3672 2.65626 6.25001C2.65428 5.22035 3.02721 4.22519 3.70538 3.45041C4.38354 2.67563 5.32056 2.17423 6.34141 2.03985C6.57641 2.01129 6.81433 2.05975 7.01944 2.17794C7.22456 2.29613 7.38578 2.47768 7.47891 2.69532L9.12735 6.37501C9.20014 6.54159 9.23025 6.72369 9.21497 6.90484C9.1997 7.08598 9.13951 7.26047 9.03985 7.41251C9.0298 7.42798 9.01884 7.44285 9.00704 7.45704L7.36095 9.41485C7.35095 9.43514 7.34575 9.45746 7.34575 9.48008C7.34575 9.50271 7.35095 9.52502 7.36095 9.54532C7.95938 10.7703 9.24376 12.0453 10.4859 12.643C10.5067 12.6524 10.5293 12.6569 10.5521 12.6561C10.5749 12.6553 10.5972 12.6492 10.6172 12.6383L12.5461 10.9977C12.5599 10.9857 12.5745 10.9747 12.5899 10.9649C12.7412 10.8639 12.9154 10.8024 13.0965 10.7857C13.2777 10.7691 13.4601 10.7979 13.6274 10.8695L17.318 12.5234C17.5327 12.6186 17.7111 12.7804 17.8268 12.9848C17.9424 13.1893 17.9892 13.4255 17.9602 13.6586V13.6563ZM17.0313 13.5406C17.0339 13.508 17.0262 13.4753 17.0092 13.4473C16.9922 13.4192 16.9669 13.3972 16.9367 13.3844L13.2453 11.7305C13.2252 11.7227 13.2035 11.7194 13.182 11.7207C13.1604 11.7221 13.1394 11.7281 13.1203 11.7383L11.1922 13.3789C11.1781 13.3906 11.1633 13.4016 11.1484 13.4117C10.9912 13.5166 10.8094 13.5789 10.6209 13.5926C10.4323 13.6063 10.2434 13.5709 10.0727 13.4898C8.63829 12.7969 7.2086 11.3805 6.51563 9.95938C6.43413 9.7896 6.39785 9.60164 6.4103 9.41372C6.42276 9.22579 6.48353 9.04427 6.58673 8.88672C6.59679 8.87106 6.60802 8.85617 6.62032 8.84219L8.26563 6.88438C8.27503 6.86392 8.2799 6.84167 8.2799 6.81915C8.2799 6.79663 8.27503 6.77437 8.26563 6.75391L6.62032 3.0711C6.60946 3.04154 6.58993 3.01596 6.56428 2.99769C6.53862 2.97943 6.50805 2.96934 6.47657 2.96876H6.4586C5.66403 3.07445 4.93508 3.46574 4.40789 4.06956C3.8807 4.67338 3.59131 5.44843 3.59376 6.25001C3.59376 11.85 8.15001 16.4063 13.75 16.4063C14.5517 16.4087 15.3269 16.1192 15.9307 15.5918C16.5345 15.0645 16.9257 14.3354 17.0313 13.5406Z" fill="#919EAB"/>
</svg>
