<svg width="24" height="24" viewBox="0 0 24 22" fill="none" xmlns="http://www.w3.org/2000/svg">
<circle cx="12" cy="12" r="1.5" fill="#919EAB"/>
<path fill-rule="evenodd" clip-rule="evenodd" d="M11.7299 5C17.7099 4.82 21.2299 10.39 21.8699 11.5C22.0486 11.8094 22.0486 12.1906 21.8699 12.5C21.0099 14 17.7999 18.86 12.2699 19H12.0199C6.12995 19 2.75995 13.59 2.12995 12.5C1.95131 12.1906 1.95131 11.8094 2.12995 11.5C2.99995 10 6.19995 5.14 11.7299 5ZM8.49995 12C8.49995 13.933 10.0669 15.5 11.9999 15.5C13.9329 15.5 15.4999 13.933 15.4999 12C15.4999 10.067 13.9329 8.5 11.9999 8.5C10.0669 8.5 8.49995 10.067 8.49995 12Z" fill="#919EAB"/>
</svg>
