<svg width="24" height="20" viewBox="0 0 24 18" fill="none" xmlns="http://www.w3.org/2000/svg">
<path d="M5.055 1.24563C4.98913 1.17138 4.90919 1.11095 4.8198 1.06783C4.73041 1.02471 4.63335 0.999762 4.53424 0.99443C4.43514 0.989099 4.33596 1.00349 4.24246 1.03677C4.14896 1.07005 4.06299 1.12156 3.98954 1.18831C3.91609 1.25506 3.85662 1.33572 3.81458 1.42562C3.77253 1.51552 3.74875 1.61288 3.7446 1.71204C3.74046 1.8112 3.75604 1.9102 3.79044 2.00329C3.82484 2.09639 3.87737 2.18173 3.945 2.25438L5.74875 4.23906C2.34375 6.32875 0.879374 9.55 0.814686 9.69625C0.772042 9.79217 0.750008 9.89597 0.750008 10.0009C0.750008 10.1059 0.772042 10.2097 0.814686 10.3056C0.847499 10.3797 1.64156 12.1403 3.40687 13.9056C5.75906 16.2569 8.73 17.5 12 17.5C13.6806 17.5096 15.3442 17.1636 16.8816 16.4847L18.9441 18.7544C19.0099 18.8286 19.0899 18.8891 19.1793 18.9322C19.2687 18.9753 19.3657 19.0002 19.4648 19.0056C19.5639 19.0109 19.6631 18.9965 19.7566 18.9632C19.8501 18.93 19.9361 18.8784 20.0095 18.8117C20.083 18.7449 20.1424 18.6643 20.1845 18.5744C20.2265 18.4845 20.2503 18.3871 20.2545 18.288C20.2586 18.1888 20.243 18.0898 20.2086 17.9967C20.1742 17.9036 20.1217 17.8183 20.0541 17.7456L5.055 1.24563ZM13.3987 12.6541C12.8105 12.9636 12.136 13.0689 11.4814 12.9535C10.8268 12.8382 10.229 12.5087 9.78189 12.0168C9.33482 11.5248 9.06378 10.8984 9.01135 10.2357C8.95891 9.57305 9.12804 8.91174 9.49219 8.35563L13.3987 12.6541ZM23.1853 10.3056C23.1459 10.3938 22.1962 12.4966 20.0578 14.4119C19.9104 14.5441 19.7167 14.6127 19.519 14.6027C19.3212 14.5927 19.1355 14.5049 19.0022 14.3584L9.50625 3.91281C9.41541 3.81313 9.35313 3.69079 9.32596 3.55869C9.2988 3.42659 9.30777 3.2896 9.35191 3.16216C9.39605 3.03473 9.47374 2.92155 9.5768 2.83455C9.67985 2.74755 9.80446 2.68995 9.9375 2.66781C10.6192 2.55525 11.3091 2.49912 12 2.5C15.27 2.5 18.2409 3.74313 20.5931 6.09531C22.3584 7.86063 23.1525 9.62219 23.1853 9.69625C23.228 9.79217 23.25 9.89597 23.25 10.0009C23.25 10.1059 23.228 10.2097 23.1853 10.3056Z" fill="#637381"/>
</svg>
