<svg width="24" height="24" viewBox="0 0 24 24" fill="none" xmlns="http://www.w3.org/2000/svg">
<g id="vuesax/linear/percentage-square">
<path id="Vector (Stroke)" fill-rule="evenodd" clip-rule="evenodd" d="M17.436 5.38976C17.773 5.63051 17.8511 6.09893 17.6104 6.43599L7.61036 20.436C7.3696 20.773 6.90119 20.8511 6.56413 20.6104C6.22707 20.3696 6.149 19.9012 6.38976 19.5641L16.3898 5.56413C16.6305 5.22707 17.0989 5.149 17.436 5.38976Z" fill="#919EAB"/>
<path id="Vector (Stroke)_2" fill-rule="evenodd" clip-rule="evenodd" d="M7.50003 5.75C6.53353 5.75 5.75 6.53353 5.75 7.50003C5.75 8.46651 6.5335 9.25 7.50003 9.25C8.46653 9.25 9.25 8.46653 9.25 7.50003C9.25 6.5335 8.46651 5.75 7.50003 5.75ZM4.25 7.50003C4.25 5.7051 5.7051 4.25 7.50003 4.25C9.29499 4.25 10.75 5.70513 10.75 7.50003C10.75 9.29496 9.29496 10.75 7.50003 10.75C5.70513 10.75 4.25 9.29499 4.25 7.50003Z" fill="#919EAB"/>
<path id="Vector (Stroke)_3" fill-rule="evenodd" clip-rule="evenodd" d="M17.5 15.75C16.5335 15.75 15.75 16.5335 15.75 17.5C15.75 18.4665 16.5335 19.25 17.5 19.25C18.4665 19.25 19.25 18.4665 19.25 17.5C19.25 16.5335 18.4665 15.75 17.5 15.75ZM14.25 17.5C14.25 15.705 15.705 14.25 17.5 14.25C19.2949 14.25 20.75 15.705 20.75 17.5C20.75 19.2949 19.2949 20.75 17.5 20.75C15.705 20.75 14.25 19.2949 14.25 17.5Z" fill="#919EAB"/>
</g>
</svg>
