<svg width="20" height="20" viewBox="0 0 20 20" fill="none" xmlns="http://www.w3.org/2000/svg">
<g id="ph:user-list-light">
<path id="Vector" d="M11.4063 6.24997C11.4063 6.12565 11.4557 6.00642 11.5436 5.91852C11.6315 5.83061 11.7507 5.78122 11.875 5.78122H19.375C19.4994 5.78122 19.6186 5.83061 19.7065 5.91852C19.7944 6.00642 19.8438 6.12565 19.8438 6.24997C19.8438 6.37429 19.7944 6.49352 19.7065 6.58143C19.6186 6.66934 19.4994 6.71872 19.375 6.71872H11.875C11.7507 6.71872 11.6315 6.66934 11.5436 6.58143C11.4557 6.49352 11.4063 6.37429 11.4063 6.24997ZM19.375 9.53122H11.875C11.7507 9.53122 11.6315 9.58061 11.5436 9.66852C11.4557 9.75642 11.4063 9.87565 11.4063 9.99997C11.4063 10.1243 11.4557 10.2435 11.5436 10.3314C11.6315 10.4193 11.7507 10.4687 11.875 10.4687H19.375C19.4994 10.4687 19.6186 10.4193 19.7065 10.3314C19.7944 10.2435 19.8438 10.1243 19.8438 9.99997C19.8438 9.87565 19.7944 9.75642 19.7065 9.66852C19.6186 9.58061 19.4994 9.53122 19.375 9.53122ZM19.375 13.2812H13.75C13.6257 13.2812 13.5065 13.3306 13.4186 13.4185C13.3307 13.5064 13.2813 13.6257 13.2813 13.75C13.2813 13.8743 13.3307 13.9935 13.4186 14.0814C13.5065 14.1693 13.6257 14.2187 13.75 14.2187H19.375C19.4994 14.2187 19.6186 14.1693 19.7065 14.0814C19.7944 13.9935 19.8438 13.8743 19.8438 13.75C19.8438 13.6257 19.7944 13.5064 19.7065 13.4185C19.6186 13.3306 19.4994 13.2812 19.375 13.2812ZM11.7039 14.8828C11.7193 14.9424 11.7228 15.0044 11.7142 15.0654C11.7056 15.1264 11.6851 15.185 11.6539 15.2381C11.6226 15.2911 11.5812 15.3375 11.532 15.3745C11.4828 15.4115 11.4268 15.4385 11.3672 15.4539C11.3076 15.4693 11.2456 15.4728 11.1846 15.4642C11.1236 15.4556 11.065 15.4351 11.0119 15.4038C10.9589 15.3725 10.9126 15.3311 10.8755 15.2819C10.8385 15.2328 10.8115 15.1768 10.7961 15.1172C10.2891 13.1476 8.37738 11.7187 6.25004 11.7187C4.1227 11.7187 2.21098 13.1476 1.70395 15.1164C1.68856 15.176 1.66158 15.232 1.62455 15.2812C1.58752 15.3303 1.54117 15.3717 1.48814 15.403C1.4351 15.4343 1.37643 15.4548 1.31548 15.4634C1.25452 15.472 1.19246 15.4685 1.13285 15.4531C1.07324 15.4377 1.01725 15.4107 0.96807 15.3737C0.918889 15.3367 0.877483 15.2903 0.846215 15.2373C0.814948 15.1843 0.794432 15.1256 0.785839 15.0646C0.777246 15.0037 0.780744 14.9416 0.796133 14.882C1.24457 13.1414 2.59301 11.7515 4.28598 11.132C3.63753 10.7088 3.1431 10.0875 2.87632 9.36061C2.60954 8.6337 2.58468 7.84007 2.80543 7.09789C3.02618 6.3557 3.48074 5.70467 4.10143 5.24172C4.72211 4.77878 5.47572 4.52869 6.25004 4.52869C7.02436 4.52869 7.77797 4.77878 8.39865 5.24172C9.01934 5.70467 9.4739 6.3557 9.69465 7.09789C9.9154 7.84007 9.89054 8.6337 9.62376 9.36061C9.35698 10.0875 8.86255 10.7088 8.2141 11.132C9.90551 11.7523 11.2563 13.1422 11.7039 14.8828ZM6.25004 10.7812C6.7754 10.7812 7.28896 10.6254 7.72577 10.3336C8.16259 10.0417 8.50305 9.62684 8.70409 9.14148C8.90514 8.65611 8.95774 8.12203 8.85525 7.60676C8.75276 7.0915 8.49978 6.6182 8.12829 6.24672C7.75681 5.87524 7.28351 5.62225 6.76825 5.51976C6.25299 5.41727 5.7189 5.46987 5.23354 5.67092C4.74817 5.87196 4.33332 6.21242 4.04145 6.64924C3.74958 7.08606 3.59379 7.59962 3.59379 8.12497C3.59379 8.82945 3.87364 9.50508 4.37179 10.0032C4.86993 10.5014 5.54556 10.7812 6.25004 10.7812Z" fill="#919EAB"/>
</g>
</svg>
