<svg width="22" height="22" viewBox="0 0 22 22" fill="none" xmlns="http://www.w3.org/2000/svg">
<g id="vuesax/outline/clipboard-text">
<g id="vuesax/outline/clipboard-text_2">
<g id="clipboard-text">
<path id="Vector" d="M13.7499 11.8708H7.33325C6.95742 11.8708 6.64575 11.5592 6.64575 11.1833C6.64575 10.8075 6.95742 10.4958 7.33325 10.4958H13.7499C14.1258 10.4958 14.4374 10.8075 14.4374 11.1833C14.4374 11.5592 14.1258 11.8708 13.7499 11.8708Z" fill="#637381"/>
<path id="Vector_2" d="M11.3483 15.5375H7.33325C6.95742 15.5375 6.64575 15.2258 6.64575 14.85C6.64575 14.4741 6.95742 14.1625 7.33325 14.1625H11.3483C11.7241 14.1625 12.0358 14.4741 12.0358 14.85C12.0358 15.2258 11.7241 15.5375 11.3483 15.5375Z" fill="#637381"/>
<path id="Vector_3" d="M12.8333 6.18748H9.16659C8.28659 6.18748 6.64575 6.18748 6.64575 3.66665C6.64575 1.14581 8.28659 1.14581 9.16659 1.14581H12.8333C13.7133 1.14581 15.3541 1.14581 15.3541 3.66665C15.3541 4.54665 15.3541 6.18748 12.8333 6.18748ZM9.16659 2.52081C8.25909 2.52081 8.02075 2.52081 8.02075 3.66665C8.02075 4.81248 8.25909 4.81248 9.16659 4.81248H12.8333C13.9791 4.81248 13.9791 4.57415 13.9791 3.66665C13.9791 2.52081 13.7408 2.52081 12.8333 2.52081H9.16659Z" fill="#637381"/>
<path id="Vector_4" d="M13.75 20.8546H8.25C3.09833 20.8546 2.0625 18.4896 2.0625 14.6671V9.16705C2.0625 4.98705 3.575 3.19955 7.29667 3.00705C7.66333 2.98872 8.0025 3.27289 8.02083 3.65789C8.03917 4.04289 7.74583 4.35455 7.37 4.37289C4.76667 4.51955 3.4375 5.29872 3.4375 9.16705V14.6671C3.4375 18.0587 4.10667 19.4796 8.25 19.4796H13.75C17.8933 19.4796 18.5625 18.0587 18.5625 14.6671V9.16705C18.5625 5.29872 17.2333 4.51955 14.63 4.37289C14.2542 4.35455 13.9608 4.02455 13.9792 3.64872C13.9975 3.27289 14.3275 2.97955 14.7033 2.99789C18.425 3.19955 19.9375 4.98705 19.9375 9.15789V14.6579C19.9375 18.4896 18.9017 20.8546 13.75 20.8546Z" fill="#637381"/>
</g>
</g>
</g>
</svg>
