<svg width="18" height="18" viewBox="0 0 18 18" fill="none" xmlns="http://www.w3.org/2000/svg">
<g id="vuesax/outline/refresh-2">
<g id="vuesax/outline/refresh-2_2">
<g id="refresh-2">
<path id="Vector (Stroke)" fill-rule="evenodd" clip-rule="evenodd" d="M9 2.0625C5.14213 2.0625 2.0625 5.16919 2.0625 9C2.0625 9.31066 1.81066 9.5625 1.5 9.5625C1.18934 9.5625 0.9375 9.31066 0.9375 9C0.9375 4.55081 4.51787 0.9375 9 0.9375C11.6683 0.9375 13.6664 2.052 14.9863 3.15306C15.3548 3.46051 15.6718 3.76789 15.9375 4.05151V1.92C15.9375 1.60934 16.1893 1.3575 16.5 1.3575C16.8107 1.3575 17.0625 1.60934 17.0625 1.92V5.67C17.0625 5.98066 16.8107 6.2325 16.5 6.2325H13.17C12.8593 6.2325 12.6075 5.98066 12.6075 5.67C12.6075 5.35934 12.8593 5.1075 13.17 5.1075H15.3745C15.0945 4.78304 14.7247 4.39992 14.2656 4.01694C13.0861 3.033 11.3342 2.0625 9 2.0625ZM16.5 8.4375C16.8107 8.4375 17.0625 8.68934 17.0625 9C17.0625 13.4507 13.4507 17.0625 9 17.0625C6.73466 17.0625 4.93836 15.9223 3.73585 14.8316C3.41665 14.5421 3.13571 14.253 2.895 13.9841V16.08C2.895 16.3907 2.64316 16.6425 2.3325 16.6425C2.02184 16.6425 1.77 16.3907 1.77 16.08V12.33C1.77 12.0193 2.02184 11.7675 2.3325 11.7675H5.7225C6.03316 11.7675 6.285 12.0193 6.285 12.33C6.285 12.6407 6.03316 12.8925 5.7225 12.8925H3.44033C3.71092 13.2215 4.06382 13.6103 4.49165 13.9984C5.58788 14.9927 7.12534 15.9375 9 15.9375C12.8293 15.9375 15.9375 12.8293 15.9375 9C15.9375 8.68934 16.1893 8.4375 16.5 8.4375Z" fill="#637381"/>
</g>
</g>
</g>
</svg>
