<svg width="16" height="17" viewBox="0 0 16 17" fill="none" xmlns="http://www.w3.org/2000/svg">
<g id="icon/ic_remove" opacity="0.24">
<path id="Vector" d="M7.99235 1.76807C4.31902 1.76807 1.32568 4.7614 1.32568 8.43473C1.32568 12.1081 4.31902 15.1014 7.99235 15.1014C11.6657 15.1014 14.659 12.1081 14.659 8.43473C14.659 4.7614 11.6657 1.76807 7.99235 1.76807ZM10.2324 9.96807C10.4257 10.1614 10.4257 10.4814 10.2324 10.6747C10.1323 10.7747 10.0057 10.8214 9.87902 10.8214C9.75235 10.8214 9.62568 10.7747 9.52568 10.6747L7.99235 9.1414L6.45902 10.6747C6.35902 10.7747 6.23235 10.8214 6.10568 10.8214C5.97902 10.8214 5.85235 10.7747 5.75235 10.6747C5.55902 10.4814 5.55902 10.1614 5.75235 9.96807L7.28568 8.43473L5.75235 6.9014C5.55902 6.70807 5.55902 6.38807 5.75235 6.19473C5.94568 6.0014 6.26568 6.0014 6.45902 6.19473L7.99235 7.72807L9.52568 6.19473C9.71902 6.0014 10.039 6.0014 10.2324 6.19473C10.4257 6.38807 10.4257 6.70807 10.2324 6.9014L8.69902 8.43473L10.2324 9.96807Z" fill="#212B36"/>
</g>
</svg>
