<svg width="49" height="43" viewBox="0 0 49 43" fill="none" xmlns="http://www.w3.org/2000/svg">
<path d="M27.94 1.00002C25.1319 0.919823 22.3362 1.40369 19.7184 2.42299C17.1005 3.44228 14.7137 4.97631 12.6992 6.93429C10.6846 8.89227 9.08326 11.2344 7.98984 13.8222C6.89642 16.4099 6.33316 19.1907 6.33336 22H2.1567C1.1067 22 0.593364 23.26 1.34003 23.9833L7.85003 30.4933C8.3167 30.96 9.04003 30.96 9.5067 30.4933L16.04 23.9833C16.74 23.26 16.2267 22 15.1767 22H11C11 12.9233 18.4667 5.52668 27.5667 5.66668C36.2234 5.78335 43.5267 13.0867 43.6667 21.7667C43.8067 30.89 36.4334 38.3334 27.3334 38.3334C23.6234 38.3334 20.2167 37.0967 17.4634 34.9967C16.53 34.2967 15.2234 34.3667 14.4067 35.2067C13.4034 36.21 13.4967 37.8667 14.6167 38.7067C18.2694 41.4948 22.7381 43.0035 27.3334 43C39.14 43 48.66 33.27 48.3334 21.4167C48.03 10.45 38.8834 1.30335 27.94 1.00002ZM32 19.6667V17.3333C32 14.7667 29.9 12.6667 27.3334 12.6667C24.7667 12.6667 22.6667 14.7667 22.6667 17.3333V19.6667C21.3834 19.6667 20.3334 20.7167 20.3334 22V29C20.3334 30.2833 21.3834 31.3333 22.6667 31.3333H32C33.2834 31.3333 34.3334 30.2833 34.3334 29V22C34.3334 20.7167 33.2834 19.6667 32 19.6667ZM29.6667 19.6667H25V17.3333C25 16.05 26.05 15 27.3334 15C28.6167 15 29.6667 16.05 29.6667 17.3333V19.6667Z" fill="#637381"/>
</svg>
