<svg width="22" height="22" viewBox="0 0 22 22" fill="none" xmlns="http://www.w3.org/2000/svg">
<g id="vuesax/outline/refresh-2">
<g id="vuesax/outline/refresh-2_2">
<g id="refresh-2">
<path id="Vector (Stroke)" fill-rule="evenodd" clip-rule="evenodd" d="M10.9999 2.52081C6.28474 2.52081 2.52075 6.31788 2.52075 11C2.52075 11.3797 2.21295 11.6875 1.83325 11.6875C1.45356 11.6875 1.14575 11.3797 1.14575 11C1.14575 5.56208 5.52176 1.14581 10.9999 1.14581C14.2611 1.14581 16.7033 2.50798 18.3165 3.85372C18.7669 4.22949 19.1544 4.60517 19.4791 4.95183V2.34665C19.4791 1.96695 19.7869 1.65915 20.1666 1.65915C20.5463 1.65915 20.8541 1.96695 20.8541 2.34665V6.92998C20.8541 7.30968 20.5463 7.61748 20.1666 7.61748H16.0966C15.7169 7.61748 15.4091 7.30968 15.4091 6.92998C15.4091 6.55028 15.7169 6.24248 16.0966 6.24248H18.7909C18.4488 5.84592 17.9968 5.37766 17.4357 4.90957C15.9941 3.70698 13.8529 2.52081 10.9999 2.52081ZM20.1666 10.3125C20.5463 10.3125 20.8541 10.6203 20.8541 11C20.8541 16.4397 16.4396 20.8541 10.9999 20.8541C8.23116 20.8541 6.0357 19.4606 4.56595 18.1275C4.17583 17.7737 3.83246 17.4203 3.53825 17.0916V19.6533C3.53825 20.033 3.23045 20.3408 2.85075 20.3408C2.47106 20.3408 2.16325 20.033 2.16325 19.6533V15.07C2.16325 14.6903 2.47106 14.3825 2.85075 14.3825H6.99409C7.37378 14.3825 7.68159 14.6903 7.68159 15.07C7.68159 15.4497 7.37378 15.7575 6.99409 15.7575H4.20476C4.53548 16.1595 4.96681 16.6348 5.48972 17.1091C6.82956 18.3243 8.70867 19.4791 10.9999 19.4791C15.6802 19.4791 19.4791 15.6803 19.4791 11C19.4791 10.6203 19.7869 10.3125 20.1666 10.3125Z" fill="#637381"/>
</g>
</g>
</g>
</svg>
