<svg width="20" height="20" viewBox="0 0 20 20" fill="none" xmlns="http://www.w3.org/2000/svg">
<g id="vuesax/outline/routing-2">
<g id="vuesax/outline/routing-2_2">
<g id="routing-2">
<path id="Vector" d="M4.59163 5.41667C4.1333 5.41667 3.7583 5.04167 3.7583 4.58333C3.7583 4.125 4.12497 3.75 4.59163 3.75H4.59997C5.0583 3.75 5.4333 4.125 5.4333 4.58333C5.4333 5.04167 5.0583 5.41667 4.59163 5.41667Z" fill="white"/>
<path id="Vector_2" d="M15.4251 16.25C14.9668 16.25 14.5918 15.875 14.5918 15.4166C14.5918 14.9583 14.9585 14.5833 15.4251 14.5833H15.4335C15.8918 14.5833 16.2668 14.9583 16.2668 15.4166C16.2668 15.875 15.8918 16.25 15.4251 16.25Z" fill="white"/>
<path id="Vector_3" d="M4.55876 8.12502C2.60876 8.12502 1.01709 6.53335 1.01709 4.58335C1.01709 2.63335 2.60876 1.04169 4.55876 1.04169C6.50876 1.04169 8.10042 2.63335 8.10042 4.58335C8.10042 6.53335 6.51709 8.12502 4.55876 8.12502ZM4.55876 2.29169C3.29209 2.29169 2.26709 3.31669 2.26709 4.58335C2.26709 5.85002 3.29209 6.87502 4.55876 6.87502C5.82542 6.87502 6.85042 5.85002 6.85042 4.58335C6.85042 3.31669 5.82542 2.29169 4.55876 2.29169Z" fill="white"/>
<path id="Vector_4" d="M16.6423 18.9583H14.1423C12.8756 18.9583 11.8506 17.9333 11.8506 16.6667V14.1667C11.8506 12.9 12.8756 11.875 14.1423 11.875H16.6423C17.9089 11.875 18.9339 12.9 18.9339 14.1667V16.6667C18.9339 17.9333 17.9089 18.9583 16.6423 18.9583ZM14.1423 13.125C13.5673 13.125 13.1006 13.5917 13.1006 14.1667V16.6667C13.1006 17.2417 13.5673 17.7083 14.1423 17.7083H16.6423C17.2173 17.7083 17.6839 17.2417 17.6839 16.6667V14.1667C17.6839 13.5917 17.2173 13.125 16.6423 13.125H14.1423Z" fill="white"/>
<path id="Vector_5" d="M9.99954 16.4584H7.76621C6.79954 16.4584 5.95788 15.875 5.62454 14.975C5.28288 14.075 5.53288 13.0834 6.25788 12.4417L12.9162 6.61669C13.3162 6.26669 13.3245 5.79169 13.2079 5.46669C13.0829 5.14169 12.7662 4.79169 12.2329 4.79169H9.99954C9.65788 4.79169 9.37454 4.50835 9.37454 4.16669C9.37454 3.82502 9.65788 3.54169 9.99954 3.54169H12.2329C13.1995 3.54169 14.0412 4.12502 14.3745 5.02502C14.7162 5.92502 14.4662 6.91669 13.7412 7.55835L7.08288 13.3834C6.68288 13.7334 6.67454 14.2084 6.79121 14.5334C6.91621 14.8584 7.23288 15.2084 7.76621 15.2084H9.99954C10.3412 15.2084 10.6245 15.4917 10.6245 15.8334C10.6245 16.175 10.3412 16.4584 9.99954 16.4584Z" fill="white"/>
</g>
</g>
</g>
</svg>
