<svg width="16" height="16" viewBox="0 0 16 16" fill="none" xmlns="http://www.w3.org/2000/svg">
<g id="vuesax/outline/timer">
<g id="vuesax/outline/timer_2">
<g id="timer">
<path id="Vector" d="M10.1605 15.1666H5.84045C4.58045 15.1666 3.66045 14.64 3.30712 13.7333C2.94045 12.7866 3.28045 11.6133 4.16045 10.82L7.25379 7.99998L4.16045 5.17998C3.28045 4.38665 2.94045 3.21331 3.30712 2.26665C3.66045 1.35331 4.58045 0.833313 5.84045 0.833313H10.1605C11.4205 0.833313 12.3405 1.35998 12.6938 2.26665C13.0605 3.21331 12.7205 4.38665 11.8405 5.17998L8.74712 7.99998L11.8471 10.82C12.7205 11.6133 13.0671 12.7866 12.7005 13.7333C12.3405 14.64 11.4205 15.1666 10.1605 15.1666ZM8.00045 8.67331L4.83378 11.5533C4.27378 12.0666 4.02712 12.8133 4.24045 13.3666C4.44045 13.88 5.00712 14.1666 5.84045 14.1666H10.1605C10.9938 14.1666 11.5605 13.8866 11.7605 13.3666C11.9738 12.8133 11.7338 12.0666 11.1671 11.5533L8.00045 8.67331ZM5.84045 1.83331C5.00712 1.83331 4.44045 2.11331 4.24045 2.63331C4.02712 3.18665 4.26712 3.93331 4.83378 4.44665L8.00045 7.32665L11.1671 4.44665C11.7271 3.93331 11.9738 3.18665 11.7605 2.63331C11.5605 2.11998 10.9938 1.83331 10.1605 1.83331H5.84045Z" fill="#637381"/>
</g>
</g>
</g>
</svg>
