<svg width="22" height="22" viewBox="0 0 22 22" fill="none" xmlns="http://www.w3.org/2000/svg">
<g id="Group">
<path id="Vector" d="M16.5 6.56326C16.445 6.55409 16.3808 6.55409 16.3258 6.56326C15.0608 6.51742 14.0525 5.48159 14.0525 4.19825C14.0525 2.88742 15.1067 1.83325 16.4175 1.83325C17.7283 1.83325 18.7825 2.89659 18.7825 4.19825C18.7733 5.48159 17.765 6.51742 16.5 6.56326Z" stroke="#637381" stroke-width="1.5" stroke-linecap="round" stroke-linejoin="round"/>
<path id="Vector_2" d="M15.5553 13.2367C16.8112 13.4476 18.1953 13.2276 19.167 12.5767C20.4595 11.7151 20.4595 10.3034 19.167 9.44173C18.1862 8.7909 16.7837 8.57089 15.5278 8.79089" stroke="#637381" stroke-width="1.5" stroke-linecap="round" stroke-linejoin="round"/>
<path id="Vector_3" d="M5.47122 6.56326C5.52622 6.55409 5.59039 6.55409 5.64539 6.56326C6.91039 6.51742 7.91872 5.48159 7.91872 4.19825C7.91872 2.88742 6.86456 1.83325 5.55372 1.83325C4.24289 1.83325 3.18872 2.89659 3.18872 4.19825C3.19789 5.48159 4.20622 6.51742 5.47122 6.56326Z" stroke="#637381" stroke-width="1.5" stroke-linecap="round" stroke-linejoin="round"/>
<path id="Vector_4" d="M6.41625 13.2365C5.16041 13.4473 3.77625 13.2273 2.80458 12.5765C1.51208 11.7148 1.51208 10.3032 2.80458 9.44149C3.78541 8.79066 5.18791 8.57065 6.44374 8.79065" stroke="#637381" stroke-width="1.5" stroke-linecap="round" stroke-linejoin="round"/>
<path id="Vector_5" d="M11 13.4114C10.945 13.4022 10.8808 13.4022 10.8258 13.4114C9.56082 13.3656 8.55249 12.3297 8.55249 11.0464C8.55249 9.73556 9.60666 8.6814 10.9175 8.6814C12.2283 8.6814 13.2825 9.74473 13.2825 11.0464C13.2733 12.3297 12.265 13.3747 11 13.4114Z" stroke="#637381" stroke-width="1.5" stroke-linecap="round" stroke-linejoin="round"/>
<path id="Vector_6" d="M8.33314 16.2986C7.04064 17.1602 7.04064 18.5719 8.33314 19.4336C9.79981 20.4144 12.2015 20.4144 13.6681 19.4336C14.9606 18.5719 14.9606 17.1602 13.6681 16.2986C12.2106 15.3269 9.79981 15.3269 8.33314 16.2986Z" stroke="#637381" stroke-width="1.5" stroke-linecap="round" stroke-linejoin="round"/>
</g>
</svg>
