<svg width="22" height="22" viewBox="0 0 22 22" fill="none" xmlns="http://www.w3.org/2000/svg">
<g id="vuesax/outline/security-user">
<g id="vuesax/outline/security-user_2">
<g id="security-user">
<path id="Vector" d="M11.0003 20.8635C10.0011 20.8635 9.01113 20.5702 8.23196 19.9927L4.29028 17.0502C3.24528 16.271 2.42944 14.6485 2.42944 13.3468V6.53601C2.42944 5.12434 3.46529 3.62101 4.79446 3.12601L9.36862 1.41185C10.2761 1.07268 11.7061 1.07268 12.6136 1.41185L17.197 3.12601C18.5261 3.62101 19.5619 5.12434 19.5619 6.53601V13.3468C19.5619 14.6485 18.7461 16.271 17.7011 17.0502L13.7595 19.9927C12.9895 20.5702 11.9994 20.8635 11.0003 20.8635ZM9.85445 2.69517L5.28029 4.40934C4.49196 4.70267 3.80444 5.69268 3.80444 6.53601V13.3468C3.80444 14.2177 4.41862 15.4368 5.10612 15.9502L9.04778 18.8927C10.1019 19.681 11.8894 19.681 12.9436 18.8927L16.8853 15.9502C17.582 15.4277 18.1869 14.2085 18.1869 13.3468V6.53601C18.1869 5.70184 17.4995 4.71184 16.7111 4.40934L12.1369 2.69517C11.5319 2.46601 10.4686 2.46601 9.85445 2.69517Z" fill="#637381"/>
<path id="Vector_2" d="M11 10.6975C10.9817 10.6975 10.9633 10.6975 10.9358 10.6975C9.60666 10.6608 8.63501 9.64332 8.63501 8.40582C8.63501 7.14082 9.67082 6.10498 10.9358 6.10498C12.2008 6.10498 13.2367 7.14082 13.2367 8.40582C13.2275 9.65249 12.2558 10.6608 11.0183 10.7066C11.0092 10.6975 11.0092 10.6975 11 10.6975ZM10.9358 7.47998C10.4225 7.47998 10.01 7.89249 10.01 8.40582C10.01 8.90999 10.4042 9.3133 10.8992 9.33164C10.8992 9.33164 10.945 9.33164 11 9.33164C11.4858 9.30414 11.8617 8.90082 11.8617 8.40582C11.8708 7.89249 11.4492 7.47998 10.9358 7.47998Z" fill="#637381"/>
<path id="Vector_3" d="M11.0006 15.9041C10.2123 15.9041 9.41482 15.6933 8.80065 15.2808C8.18648 14.8774 7.83813 14.2816 7.83813 13.6491C7.83813 13.0166 8.18648 12.4208 8.80065 12.0083C10.0382 11.1833 11.9723 11.1924 13.2006 12.0083C13.8148 12.4116 14.1632 13.0074 14.1632 13.6399C14.1632 14.2724 13.8148 14.8683 13.2006 15.2808C12.5865 15.6933 11.789 15.9041 11.0006 15.9041ZM9.56147 13.1449C9.33231 13.2916 9.20397 13.4749 9.21313 13.6399C9.21313 13.8049 9.34147 13.9883 9.56147 14.1349C10.3315 14.6483 11.6698 14.6483 12.4398 14.1349C12.669 13.9883 12.7973 13.8049 12.7973 13.6399C12.7973 13.4749 12.669 13.2916 12.449 13.1449C11.679 12.6408 10.3315 12.6408 9.56147 13.1449Z" fill="#637381"/>
</g>
</g>
</g>
</svg>
