<svg width="18" height="18" viewBox="0 0 18 18" fill="none" xmlns="http://www.w3.org/2000/svg">
<g id="vuesax/outline/send">
<g id="send">
<path id="Vector" d="M4.05746 16.3126C3.21746 16.3126 2.68496 16.0276 2.34746 15.6901C1.68746 15.0301 1.22246 13.6276 2.70746 10.6501L3.35996 9.35261C3.44246 9.18011 3.44246 8.82011 3.35996 8.64761L2.70746 7.35011C1.21496 4.37261 1.68746 2.96261 2.34746 2.31011C2.99996 1.65011 4.40996 1.17761 7.37996 2.67011L13.8 5.88011C15.3975 6.67511 16.275 7.78511 16.275 9.00011C16.275 10.2151 15.3975 11.3251 13.8075 12.1201L7.38746 15.3301C5.93246 16.0576 4.85246 16.3126 4.05746 16.3126ZM4.05746 2.81261C3.65246 2.81261 3.33746 2.91011 3.14246 3.10511C2.59496 3.64511 2.81246 5.04761 3.71246 6.84011L4.36496 8.14511C4.60496 8.63261 4.60496 9.36761 4.36496 9.85511L3.71246 11.1526C2.81246 12.9526 2.59496 14.3476 3.14246 14.8876C3.68246 15.4351 5.08496 15.2176 6.88496 14.3176L13.305 11.1076C14.4825 10.5226 15.15 9.75011 15.15 8.99261C15.15 8.23511 14.475 7.46261 13.2975 6.87761L6.87746 3.67511C5.73746 3.10511 4.75496 2.81261 4.05746 2.81261Z" fill="#292D32"/>
<path id="Vector_2" d="M8.12959 9.5625H4.07959C3.77209 9.5625 3.51709 9.3075 3.51709 9C3.51709 8.6925 3.77209 8.4375 4.07959 8.4375H8.12959C8.43709 8.4375 8.69209 8.6925 8.69209 9C8.69209 9.3075 8.43709 9.5625 8.12959 9.5625Z" fill="#292D32"/>
</g>
</g>
</svg>
