<svg width="22" height="22" viewBox="0 0 22 22" fill="none" xmlns="http://www.w3.org/2000/svg">
<g id="circum:medical-clipboard">
<path id="Vector" d="M17.2804 1.59501H15.3293V1.00853C15.3235 0.869418 15.289 0.732788 15.2276 0.606592C15.1663 0.480395 15.0793 0.367151 14.9719 0.273447C14.8645 0.179744 14.7387 0.107451 14.6018 0.0607751C14.465 0.0140989 14.3198 -0.00602902 14.1748 0.00156225H7.82507C7.68003 -0.00602902 7.53486 0.0140989 7.39801 0.0607751C7.26116 0.107451 7.13537 0.179744 7.02793 0.273447C6.9205 0.367151 6.83358 0.480395 6.77223 0.606592C6.71088 0.732788 6.67633 0.869418 6.67057 1.00853V1.59501H4.71948C3.95401 1.59501 3.21988 1.88647 2.67861 2.40527C2.13734 2.92407 1.83325 3.62772 1.83325 4.36141V19.2336C1.83325 19.9673 2.13734 20.6709 2.67861 21.1897C3.21988 21.7085 3.95401 22 4.71948 22H17.2804C18.0458 22 18.78 21.7085 19.3212 21.1897C19.8625 20.6709 20.1666 19.9673 20.1666 19.2336V4.36141C20.1666 3.62772 19.8625 2.92407 19.3212 2.40527C18.78 1.88647 18.0458 1.59501 17.2804 1.59501ZM7.82507 1.10812L14.1748 1.11919V2.35854C14.1748 3.03354 13.3782 3.59789 12.443 3.59789H9.5568C8.61012 3.59789 7.82507 3.03354 7.82507 2.35854V1.10812ZM19.0121 19.2336C19.0088 19.6728 18.8253 20.0932 18.5012 20.4038C18.1772 20.7144 17.7386 20.8903 17.2804 20.8934H4.71948C4.2602 20.8934 3.81972 20.7186 3.49496 20.4073C3.17019 20.096 2.98774 19.6738 2.98774 19.2336V4.36141C2.98774 3.9212 3.17019 3.49901 3.49496 3.18773C3.81972 2.87645 4.2602 2.70157 4.71948 2.70157H6.70521C6.86274 3.3015 7.23383 3.82989 7.75444 4.19555C8.27505 4.56121 8.91251 4.7412 9.5568 4.70445H12.443C13.0873 4.7412 13.7248 4.56121 14.2454 4.19555C14.766 3.82989 15.1371 3.3015 15.2946 2.70157H17.2804C17.7396 2.70157 18.1801 2.87645 18.5049 3.18773C18.8296 3.49901 19.0121 3.9212 19.0121 4.36141V19.2336Z" fill="#637381"/>
<path id="Vector_2" d="M13.75 11C13.75 11.1459 13.6921 11.2858 13.5889 11.3889C13.4858 11.4921 13.3459 11.55 13.2 11.55H11.55V13.2C11.55 13.3459 11.4921 13.4858 11.3889 13.5889C11.2858 13.6921 11.1459 13.75 11 13.75C10.8541 13.75 10.7142 13.6921 10.6111 13.5889C10.5079 13.4858 10.45 13.3459 10.45 13.2V11.55H8.8C8.65413 11.55 8.51424 11.4921 8.41109 11.3889C8.30795 11.2858 8.25 11.1459 8.25 11C8.25 10.8541 8.30795 10.7142 8.41109 10.6111C8.51424 10.5079 8.65413 10.45 8.8 10.45H10.45V8.8C10.45 8.65413 10.5079 8.51424 10.6111 8.41109C10.7142 8.30795 10.8541 8.25 11 8.25C11.1452 8.25227 11.2837 8.31094 11.3864 8.4136C11.4891 8.51626 11.5477 8.65484 11.55 8.8V10.45H13.2C13.3452 10.4523 13.4837 10.5109 13.5864 10.6136C13.6891 10.7163 13.7477 10.8548 13.75 11Z" fill="#637381"/>
</g>
</svg>
