<svg width="30" height="30" viewBox="0 0 30 30" fill="none" xmlns="http://www.w3.org/2000/svg">
<path d="M10.5417 22.125C10.2361 21.7639 10.0833 21.3539 10.0833 20.895C10.0833 20.4372 10.2361 20.0556 10.5417 19.75L13.625 16.6667H1.66667C1.19444 16.6667 0.798889 16.5067 0.48 16.1867C0.16 15.8678 0 15.4722 0 15C0 14.5278 0.16 14.1317 0.48 13.8117C0.798889 13.4928 1.19444 13.3333 1.66667 13.3333H13.625L10.5417 10.25C10.2083 9.91667 10.0417 9.52111 10.0417 9.06333C10.0417 8.60444 10.2083 8.20833 10.5417 7.875C10.8472 7.54167 11.2294 7.375 11.6883 7.375C12.1461 7.375 12.5278 7.52778 12.8333 7.83333L18.8333 13.8333C19 14 19.1183 14.1806 19.1883 14.375C19.2572 14.5694 19.2917 14.7778 19.2917 15C19.2917 15.2222 19.2572 15.4306 19.1883 15.625C19.1183 15.8194 19 16 18.8333 16.1667L12.8333 22.1667C12.5 22.5 12.1111 22.6528 11.6667 22.625C11.2222 22.5972 10.8472 22.4306 10.5417 22.125ZM16.6667 30C16.1944 30 15.7989 29.84 15.48 29.52C15.16 29.2011 15 28.8056 15 28.3333C15 27.8611 15.16 27.4656 15.48 27.1467C15.7989 26.8267 16.1944 26.6667 16.6667 26.6667H26.6667V3.33333H16.6667C16.1944 3.33333 15.7989 3.17333 15.48 2.85333C15.16 2.53444 15 2.13889 15 1.66667C15 1.19444 15.16 0.798333 15.48 0.478333C15.7989 0.159444 16.1944 0 16.6667 0H26.6667C27.5833 0 28.3683 0.326111 29.0217 0.978333C29.6739 1.63167 30 2.41667 30 3.33333V26.6667C30 27.5833 29.6739 28.3683 29.0217 29.0217C28.3683 29.6739 27.5833 30 26.6667 30H16.6667Z" fill="#637381"/>
</svg>
