<svg width="20" height="20" viewBox="0 0 20 20" fill="none" xmlns="http://www.w3.org/2000/svg">
<g id="prime:money-bill">
<path id="Vector" d="M16.6666 3.33331H3.33329C2.89204 3.33591 2.46956 3.51884 2.15754 3.84241C1.84552 4.16599 1.66913 4.60411 1.66663 5.06171V14.9383C1.66913 15.3959 1.84552 15.834 2.15754 16.1575C2.46956 16.4811 2.89204 16.6641 3.33329 16.6666H16.6666C17.1079 16.6641 17.5304 16.4811 17.8424 16.1575C18.1544 15.834 18.3308 15.3959 18.3333 14.9383V5.06171C18.3308 4.60411 18.1544 4.16599 17.8424 3.84241C17.5304 3.51884 17.1079 3.33591 16.6666 3.33331ZM16.9047 5.06171V6.71109H16.7047C16.5909 6.72586 16.4757 6.72586 16.3619 6.71109H16.2381C16.1305 6.68867 16.0252 6.6556 15.9238 6.61232H15.8095C15.6735 6.54401 15.5508 6.45026 15.4476 6.33578C15.3063 6.19114 15.194 6.01893 15.1172 5.82908C15.0404 5.63923 15.0005 5.4355 15 5.22961C15.0002 5.09249 15.0195 4.95612 15.0571 4.82467H16.6666C16.7282 4.82462 16.7873 4.84927 16.8317 4.89346C16.8761 4.93765 16.9023 4.99795 16.9047 5.06171ZM3.33329 4.81479H4.94282C4.98046 4.94624 4.9997 5.08261 4.99996 5.21973C4.9994 5.42562 4.95957 5.62936 4.88274 5.81921C4.80592 6.00906 4.69363 6.18126 4.55234 6.32591C4.44664 6.43744 4.32447 6.5308 4.19044 6.60245H4.06663C3.97338 6.65012 3.87392 6.68339 3.77139 6.70121H3.63805C3.52421 6.71598 3.40904 6.71598 3.2952 6.70121H3.0952V5.06171C3.0952 4.99622 3.12028 4.93342 3.16493 4.88711C3.20959 4.84081 3.27015 4.81479 3.33329 4.81479ZM3.0952 14.9383V13.2889H3.2952C3.40904 13.2741 3.52421 13.2741 3.63805 13.2889H3.76186C3.8705 13.3067 3.97625 13.3399 4.07615 13.3876H4.19044C4.32447 13.4593 4.44664 13.5526 4.55234 13.6642C4.69363 13.8088 4.80592 13.981 4.88274 14.1709C4.95957 14.3607 4.9994 14.5645 4.99996 14.7703C4.9997 14.9075 4.98046 15.0438 4.94282 15.1753H3.33329C3.27176 15.1753 3.2126 15.1507 3.16821 15.1065C3.12383 15.0623 3.09766 15.002 3.0952 14.9383ZM6.39996 15.1852C6.40975 15.0504 6.40975 14.915 6.39996 14.7802C6.40353 14.3792 6.32856 13.9816 6.17958 13.6115C6.03061 13.2414 5.81074 12.9065 5.53329 12.6271C5.39309 12.4799 5.23642 12.3506 5.06663 12.242L4.90472 12.1333C4.79349 12.0738 4.67901 12.021 4.56186 11.9753L4.37139 11.8963C4.20626 11.8459 4.03744 11.8096 3.86663 11.7876C3.76846 11.7775 3.66956 11.7775 3.57139 11.7876H3.0952V8.24195H3.90472C4.03394 8.21911 4.16129 8.1861 4.28567 8.14319L4.4952 8.07405C4.64075 8.02252 4.7811 7.95636 4.91425 7.87652L5.06663 7.78763C5.24437 7.66646 5.41024 7.52753 5.56186 7.37282C5.83931 7.09344 6.05918 6.75856 6.20816 6.38846C6.35713 6.01837 6.4321 5.62076 6.42853 5.21973C6.43832 5.08494 6.43832 4.94958 6.42853 4.81479H13.6285C13.6187 4.94958 13.6187 5.08494 13.6285 5.21973C13.625 5.62076 13.6999 6.01837 13.8489 6.38846C13.9979 6.75856 14.2177 7.09344 14.4952 7.37282C14.6443 7.53042 14.8105 7.66962 14.9904 7.78763L15.1428 7.87652C15.276 7.95636 15.4163 8.02252 15.5619 8.07405L15.7714 8.14319C15.8991 8.18324 16.0297 8.21296 16.1619 8.23208H16.9619V11.7481H16.4857C16.3875 11.7383 16.2886 11.7383 16.1904 11.7481C16.0196 11.7701 15.8508 11.8064 15.6857 11.8568L15.4952 11.9358C15.3679 11.9868 15.2438 12.0462 15.1238 12.1136L14.9619 12.2222C14.7921 12.3309 14.6354 12.4602 14.4952 12.6074C14.2177 12.8868 13.9979 13.2216 13.8489 13.5917C13.6999 13.9618 13.625 14.3594 13.6285 14.7605C13.6187 14.8953 13.6187 15.0306 13.6285 15.1654L6.39996 15.1852ZM16.6666 15.1852H15.0571C15.0195 15.0537 15.0002 14.9173 15 14.7802C15.0005 14.5743 15.0404 14.3706 15.1172 14.1808C15.194 13.9909 15.3063 13.8187 15.4476 13.6741C15.5508 13.5596 15.6735 13.4658 15.8095 13.3975H15.9238C16.0257 13.3556 16.1308 13.3225 16.2381 13.2987H16.3619C16.4757 13.284 16.5909 13.284 16.7047 13.2987H16.9047V14.9383C16.9047 15.0037 16.8796 15.0665 16.835 15.1128C16.7903 15.1592 16.7298 15.1852 16.6666 15.1852Z" fill="#919EAB"/>
<path id="Vector_2" d="M10 7.08331C9.42318 7.08331 8.85927 7.25437 8.37963 7.57486C7.89999 7.89535 7.52615 8.35087 7.30539 8.88382C7.08464 9.41677 7.02688 10.0032 7.13942 10.569C7.25196 11.1348 7.52974 11.6545 7.93765 12.0624C8.34555 12.4703 8.86525 12.7481 9.43103 12.8606C9.99681 12.9731 10.5833 12.9154 11.1162 12.6946C11.6492 12.4739 12.1047 12.1 12.4252 11.6204C12.7456 11.1407 12.9167 10.5768 12.9167 9.99998C12.9167 9.22643 12.6094 8.48457 12.0624 7.93758C11.5155 7.3906 10.7736 7.08331 10 7.08331ZM10 11.6666C9.67041 11.6666 9.34817 11.5689 9.07409 11.3858C8.80001 11.2026 8.58639 10.9423 8.46024 10.6378C8.3341 10.3332 8.30109 9.99813 8.3654 9.67483C8.42971 9.35153 8.58844 9.05456 8.82153 8.82147C9.05462 8.58838 9.35159 8.42965 9.67489 8.36534C9.99819 8.30103 10.3333 8.33403 10.6378 8.46018C10.9424 8.58633 11.2027 8.79995 11.3858 9.07403C11.569 9.34811 11.6667 9.67034 11.6667 9.99998C11.6667 10.442 11.4911 10.8659 11.1786 11.1785C10.866 11.4911 10.4421 11.6666 10 11.6666Z" fill="#919EAB"/>
</g>
</svg>
