<svg width="22" height="22" viewBox="0 0 22 22" fill="none" xmlns="http://www.w3.org/2000/svg">
<path d="M16.9098 2.37872H15.1213V1.84111C15.1161 1.71359 15.0844 1.58835 15.0282 1.47267C14.9719 1.35699 14.8922 1.25318 14.7938 1.16729C14.6953 1.08139 14.58 1.01512 14.4545 0.972336C14.3291 0.92955 14.196 0.911099 14.0631 0.918058H8.2425C8.10954 0.911099 7.97647 0.92955 7.85103 0.972336C7.72559 1.01512 7.61027 1.08139 7.51179 1.16729C7.41331 1.25318 7.33364 1.35699 7.2774 1.47267C7.22116 1.58835 7.18948 1.71359 7.18421 1.84111V2.37872H5.39571C4.69402 2.37872 4.02108 2.64589 3.52491 3.12146C3.02874 3.59703 2.75 4.24203 2.75 4.91459V18.5474C2.75 19.22 3.02874 19.865 3.52491 20.3406C4.02108 20.8161 4.69402 21.0833 5.39571 21.0833H16.9098C17.6115 21.0833 18.2845 20.8161 18.7806 20.3406C19.2768 19.865 19.5556 19.22 19.5556 18.5474V4.91459C19.5556 4.24203 19.2768 3.59703 18.7806 3.12146C18.2845 2.64589 17.6115 2.37872 16.9098 2.37872ZM8.2425 1.93241L14.0631 1.94255V3.07862C14.0631 3.69737 13.3328 4.21469 12.4756 4.21469H9.82992C8.96213 4.21469 8.2425 3.69737 8.2425 3.07862V1.93241ZM18.4973 18.5474C18.4942 18.9501 18.326 19.3354 18.029 19.6201C17.7319 19.9048 17.3299 20.066 16.9098 20.0689H5.39571C4.9747 20.0689 4.57093 19.9086 4.27323 19.6233C3.97553 19.338 3.80828 18.951 3.80828 18.5474V4.91459C3.80828 4.51106 3.97553 4.12405 4.27323 3.83871C4.57093 3.55337 4.9747 3.39307 5.39571 3.39307H7.21596C7.36036 3.943 7.70053 4.42736 8.17776 4.76255C8.65498 5.09774 9.23932 5.26273 9.82992 5.22904H12.4756C13.0662 5.26273 13.6506 5.09774 14.1278 4.76255C14.605 4.42736 14.9452 3.943 15.0896 3.39307H16.9098C17.3309 3.39307 17.7346 3.55337 18.0323 3.83871C18.33 4.12405 18.4973 4.51106 18.4973 4.91459V18.5474Z" fill="#637381"/>
<path fill-rule="evenodd" clip-rule="evenodd" d="M11.4583 8.03689C10.576 8.03689 9.72984 8.34571 9.10598 8.89543C8.48212 9.44514 8.13164 10.1907 8.13164 10.9681C8.13164 11.7455 8.48212 12.4911 9.10598 13.0408C9.72984 13.5905 10.576 13.8994 11.4583 13.8994C12.3405 13.8994 13.1867 13.5905 13.8105 13.0408C14.4344 12.4911 14.7849 11.7455 14.7849 10.9681C14.7849 10.1907 14.4344 9.44514 13.8105 8.89543C13.1867 8.34571 12.3405 8.03689 11.4583 8.03689ZM7.33326 10.9681C7.33325 10.3657 7.50319 9.77269 7.82778 9.24248C8.15237 8.71227 8.62144 8.26146 9.1928 7.9306C9.76416 7.59974 10.4199 7.3992 11.101 7.34703C11.7821 7.29486 12.4673 7.39268 13.0949 7.6317C13.7225 7.87073 14.2728 8.24345 14.6963 8.71636C15.1199 9.18926 15.4034 9.74752 15.5214 10.3409C15.6394 10.9343 15.5881 11.5443 15.3722 12.1159C15.1563 12.6875 14.7825 13.2028 14.2845 13.6156C14.2987 13.639 14.3097 13.6637 14.3175 13.6892L14.6635 14.8003C14.8248 15.3195 14.9552 15.7374 15.0143 16.0619C15.0723 16.3799 15.084 16.7072 14.8823 16.9736C14.7673 17.1251 14.6108 17.2494 14.4267 17.3319C14.0913 17.482 13.7257 17.4084 13.3983 17.2991C13.0641 17.1884 12.6447 16.9957 12.1294 16.7588L12.1044 16.7476C11.7191 16.5708 11.6185 16.5309 11.5216 16.522C11.4795 16.518 11.437 16.518 11.3949 16.522C11.298 16.5309 11.198 16.5708 10.8121 16.7476L10.7871 16.7588C10.2719 16.9957 9.85243 17.188 9.51817 17.2991C9.19083 17.4084 8.82517 17.482 8.48985 17.3319C8.30568 17.2488 8.1488 17.1255 8.03424 16.9736C7.83251 16.7072 7.84422 16.3799 7.90224 16.0619C7.96132 15.7374 8.09172 15.3195 8.25353 14.8003L8.59896 13.6888C8.60684 13.6634 8.61791 13.6388 8.63196 13.6156C8.22138 13.2761 7.89426 12.866 7.67087 12.4106C7.44747 11.9552 7.33256 11.4642 7.33326 10.9681ZM9.30793 14.0705L9.03009 14.9644C8.85977 15.5104 8.74214 15.8912 8.69051 16.1735C8.63729 16.4666 8.67721 16.5548 8.6985 16.5825C8.73699 16.6344 8.78995 16.6767 8.85232 16.7054C8.86456 16.7105 8.94067 16.7396 9.23661 16.6411C9.5203 16.5468 9.89661 16.3743 10.4432 16.1238L10.4981 16.0985C10.8004 15.9592 11.0436 15.8476 11.3103 15.8222C11.4088 15.8129 11.5078 15.8129 11.6062 15.8222C11.8723 15.8471 12.1161 15.9592 12.4184 16.0985L12.4733 16.1238C13.0194 16.3743 13.3962 16.5468 13.6799 16.6411C13.9758 16.7396 14.0525 16.7105 14.0642 16.7054C14.1267 16.6767 14.1799 16.6344 14.2185 16.5825C14.2398 16.5544 14.2792 16.4666 14.226 16.1735C14.1744 15.8912 14.0562 15.5104 13.8869 14.9644L13.6086 14.0705C12.9614 14.4197 12.2171 14.6039 11.4583 14.6029C10.6994 14.6039 9.95511 14.4197 9.30793 14.0705Z" fill="#637381"/>
<path d="M11.6548 9.36364V13H11.2145V9.82528H11.1932L10.3054 10.4148V9.96733L11.2145 9.36364H11.6548Z" fill="#637381"/>
</svg>
