<svg width="22" height="22" viewBox="0 0 22 22" fill="none" xmlns="http://www.w3.org/2000/svg">
<g id="vuesax/outline/user-tag">
<g id="vuesax/outline/user-tag_2">
<g id="user-tag">
<path id="Vector" d="M9.84344 19.497L9.84186 19.4954L8.27481 17.9467L9.84344 19.497ZM9.84344 19.497C10.487 20.1274 11.5222 20.1274 12.1657 19.497L12.1673 19.4954M9.84344 19.497L12.1673 19.4954M12.1673 19.4954L13.7343 17.9467L12.1673 19.4954ZM2.9375 4.55558C2.9375 3.1553 4.09304 2.02061 5.5 2.02061H16.5C17.9055 2.02061 19.0625 3.14467 19.0625 4.55558V14.5564C19.0625 15.9567 17.907 17.0914 16.5 17.0914H15.8125C15.0383 17.0914 14.2841 17.405 13.7348 17.9462L2.9375 4.55558ZM2.9375 4.55558V14.5564M2.9375 4.55558V14.5564M2.9375 14.5564C2.9375 15.9674 4.09451 17.0914 5.5 17.0914M2.9375 14.5564L5.5 17.0914M5.5 17.0914H6.19668M5.5 17.0914H6.19668M6.19668 17.0914C6.9709 17.0914 7.72505 17.405 8.27434 17.9462L6.19668 17.0914ZM9.57522 19.7671L9.57313 19.765L8.0077 18.2179C8.00737 18.2176 8.00703 18.2172 8.0067 18.2169C7.52428 17.735 6.86427 17.4756 6.19668 17.4756H5.5C3.87515 17.4756 2.5625 16.1652 2.5625 14.5656V4.56476C2.5625 2.96522 3.87515 1.65479 5.5 1.65479H16.5C18.1249 1.65479 19.4375 2.96522 19.4375 4.56476V14.5656C19.4375 16.1652 18.1249 17.4756 16.5 17.4756H15.8033C15.1301 17.4756 14.4737 17.748 13.9966 18.2137L13.9944 18.2158L12.4269 19.765L12.4248 19.7671C12.0372 20.1546 11.5156 20.3539 11 20.3539C10.4844 20.3539 9.96276 20.1546 9.57522 19.7671Z" fill="#637381" stroke="#637381"/>
<path id="Vector_2" d="M10.9999 9.85404C9.44153 9.85404 8.17651 8.58902 8.17651 7.03069C8.17651 5.47236 9.44153 4.2074 10.9999 4.2074C12.5582 4.2074 13.8232 5.47236 13.8232 7.03069C13.8232 8.58902 12.5582 9.85404 10.9999 9.85404ZM10.9999 5.5824C10.2024 5.5824 9.55151 6.23319 9.55151 7.03069C9.55151 7.82819 10.2024 8.47904 10.9999 8.47904C11.7974 8.47904 12.4482 7.82819 12.4482 7.03069C12.4482 6.23319 11.7974 5.5824 10.9999 5.5824Z" fill="#637381"/>
<path id="Vector_3" d="M14.6666 15.0429C14.2908 15.0429 13.9791 14.7312 13.9791 14.3554C13.9791 13.0904 12.6408 12.0546 10.9999 12.0546C9.35909 12.0546 8.02075 13.0904 8.02075 14.3554C8.02075 14.7312 7.70909 15.0429 7.33325 15.0429C6.95742 15.0429 6.64575 14.7312 6.64575 14.3554C6.64575 12.3295 8.59825 10.6796 10.9999 10.6796C13.4016 10.6796 15.3541 12.3295 15.3541 14.3554C15.3541 14.7312 15.0424 15.0429 14.6666 15.0429Z" fill="#637381"/>
</g>
</g>
</g>
</svg>
