<svg width="22" height="22" viewBox="0 0 22 22" fill="none" xmlns="http://www.w3.org/2000/svg">
<g id="vuesax/linear/ticket-discount">
<g id="vuesax/linear/ticket-discount_2">
<g id="ticket-discount">
<path id="Vector" d="M17.8749 11.4583C17.8749 10.1933 18.9016 9.16663 20.1666 9.16663V8.24996C20.1666 4.58329 19.2499 3.66663 15.5833 3.66663H6.41659C2.74992 3.66663 1.83325 4.58329 1.83325 8.24996V8.70829C3.09825 8.70829 4.12492 9.73496 4.12492 11C4.12492 12.265 3.09825 13.2916 1.83325 13.2916V13.75C1.83325 17.4166 2.74992 18.3333 6.41659 18.3333H15.5833C19.2499 18.3333 20.1666 17.4166 20.1666 13.75C18.9016 13.75 17.8749 12.7233 17.8749 11.4583Z" stroke="#637381" stroke-width="1.5" stroke-linecap="round" stroke-linejoin="round"/>
<path id="Vector_2" d="M8.25 13.5209L13.75 8.02087" stroke="#637381" stroke-width="1.5" stroke-linecap="round" stroke-linejoin="round"/>
<path id="Vector_3" d="M13.745 13.5208H13.7533" stroke="#637381" stroke-width="2" stroke-linecap="round" stroke-linejoin="round"/>
<path id="Vector_4" d="M8.24505 8.47921H8.25328" stroke="#637381" stroke-width="2" stroke-linecap="round" stroke-linejoin="round"/>
</g>
</g>
</g>
</svg>
