<svg width="17" height="16" viewBox="0 0 17 16" fill="none" xmlns="http://www.w3.org/2000/svg">
<g id="vuesax/outline/tick-circle">
<g id="tick-circle">
<path id="Vector" d="M8.50004 15.1668C4.54671 15.1668 1.33337 11.9535 1.33337 8.00016C1.33337 4.04683 4.54671 0.833496 8.50004 0.833496C12.4534 0.833496 15.6667 4.04683 15.6667 8.00016C15.6667 11.9535 12.4534 15.1668 8.50004 15.1668ZM8.50004 1.8335C5.10004 1.8335 2.33337 4.60016 2.33337 8.00016C2.33337 11.4002 5.10004 14.1668 8.50004 14.1668C11.9 14.1668 14.6667 11.4002 14.6667 8.00016C14.6667 4.60016 11.9 1.8335 8.50004 1.8335Z" fill="#229A16"/>
<path id="Vector_2" d="M7.55297 10.3867C7.41964 10.3867 7.29297 10.3334 7.19964 10.2401L5.31297 8.3534C5.11964 8.16007 5.11964 7.84007 5.31297 7.64673C5.5063 7.4534 5.8263 7.4534 6.01964 7.64673L7.55297 9.18007L10.9796 5.7534C11.173 5.56007 11.493 5.56007 11.6863 5.7534C11.8796 5.94673 11.8796 6.26673 11.6863 6.46006L7.9063 10.2401C7.81297 10.3334 7.6863 10.3867 7.55297 10.3867Z" fill="#229A16"/>
</g>
</g>
</svg>
