<svg width="18" height="18" viewBox="0 0 18 18" fill="none" xmlns="http://www.w3.org/2000/svg">
<g id="vuesax/outline/task-square">
<g id="vuesax/outline/task-square_2">
<g id="task-square">
<path id="Vector" d="M13.2144 7.21509H9.27686C8.96936 7.21509 8.71436 6.96009 8.71436 6.65259C8.71436 6.34509 8.96936 6.09009 9.27686 6.09009H13.2144C13.5219 6.09009 13.7769 6.34509 13.7769 6.65259C13.7769 6.96009 13.5294 7.21509 13.2144 7.21509Z" fill="#637381"/>
<path id="Vector_2" d="M5.34041 7.78523C5.19791 7.78523 5.05541 7.73273 4.94291 7.62023L4.38041 7.05773C4.16291 6.84023 4.16291 6.48023 4.38041 6.26273C4.59791 6.04523 4.95791 6.04523 5.17541 6.26273L5.34041 6.42773L6.63041 5.13773C6.84791 4.92023 7.20791 4.92023 7.42541 5.13773C7.64291 5.35523 7.64291 5.71523 7.42541 5.93273L5.73791 7.62023C5.63291 7.72523 5.49041 7.78523 5.34041 7.78523Z" fill="#637381"/>
<path id="Vector_3" d="M13.2144 12.4651H9.27686C8.96936 12.4651 8.71436 12.2101 8.71436 11.9026C8.71436 11.5951 8.96936 11.3401 9.27686 11.3401H13.2144C13.5219 11.3401 13.7769 11.5951 13.7769 11.9026C13.7769 12.2101 13.5294 12.4651 13.2144 12.4651Z" fill="#637381"/>
<path id="Vector_4" d="M5.34041 13.0352C5.19791 13.0352 5.05541 12.9827 4.94291 12.8702L4.38041 12.3077C4.16291 12.0902 4.16291 11.7302 4.38041 11.5127C4.59791 11.2952 4.95791 11.2952 5.17541 11.5127L5.34041 11.6777L6.63041 10.3877C6.84791 10.1702 7.20791 10.1702 7.42541 10.3877C7.64291 10.6052 7.64291 10.9652 7.42541 11.1827L5.73791 12.8702C5.63291 12.9752 5.49041 13.0352 5.34041 13.0352Z" fill="#637381"/>
<path id="Vector_5" d="M11.25 17.0625H6.75C2.6775 17.0625 0.9375 15.3225 0.9375 11.25V6.75C0.9375 2.6775 2.6775 0.9375 6.75 0.9375H11.25C15.3225 0.9375 17.0625 2.6775 17.0625 6.75V11.25C17.0625 15.3225 15.3225 17.0625 11.25 17.0625ZM6.75 2.0625C3.2925 2.0625 2.0625 3.2925 2.0625 6.75V11.25C2.0625 14.7075 3.2925 15.9375 6.75 15.9375H11.25C14.7075 15.9375 15.9375 14.7075 15.9375 11.25V6.75C15.9375 3.2925 14.7075 2.0625 11.25 2.0625H6.75Z" fill="#637381"/>
</g>
</g>
</g>
</svg>
