<svg width="24" height="24" viewBox="0 0 24 24" fill="none" xmlns="http://www.w3.org/2000/svg">
<g clip-path="url(#clip0_54_10)">
<path d="M7.26923 -1.96341e-05C7.02988 0.0317302 6.8125 0.155996 6.66369 0.346134L3.51877 4.29783L1.44185 2.91321C1.33955 2.84451 1.22469 2.79668 1.10386 2.77248C0.983036 2.74827 0.858618 2.74816 0.737749 2.77216C0.616879 2.79615 0.501938 2.84378 0.399519 2.9123C0.2971 2.98083 0.20922 3.0689 0.140922 3.17147C0.0726235 3.27404 0.0252508 3.38908 0.00152202 3.51001C-0.0222068 3.63093 -0.0218245 3.75534 0.00264685 3.87612C0.0271182 3.99689 0.075197 4.11164 0.144124 4.21379C0.213052 4.31594 0.301471 4.40347 0.404309 4.47136L3.17354 6.31752C3.36763 6.44675 3.60343 6.49773 3.83357 6.46023C4.06371 6.42273 4.27113 6.29952 4.41416 6.11537L8.10646 1.49998C8.22397 1.35664 8.2956 1.18125 8.31203 0.996636C8.32847 0.812021 8.28895 0.626734 8.19862 0.464892C8.10828 0.30305 7.97132 0.172149 7.80556 0.0892293C7.6398 0.00630934 7.45291 -0.0247897 7.26923 -1.96341e-05ZM11.0769 2.76921V4.61537H24V2.76921H11.0769ZM7.26923 8.30767C7.02988 8.33942 6.8125 8.46369 6.66369 8.65383L3.51877 12.6055L1.44185 11.2209C1.23522 11.0832 0.982358 11.0332 0.738878 11.0819C0.495398 11.1307 0.281248 11.2741 0.14354 11.4808C0.00583125 11.6874 -0.044156 11.9402 0.00457457 12.1837C0.0533052 12.4272 0.196762 12.6413 0.403386 12.7791L3.17262 14.6252C3.36671 14.7544 3.60251 14.8054 3.83265 14.7679C4.06279 14.7304 4.27021 14.6072 4.41323 14.4231L8.10554 9.80767C8.22295 9.66439 8.29453 9.4891 8.31099 9.30459C8.32744 9.12009 8.288 8.93489 8.19779 8.7731C8.10759 8.61131 7.97079 8.4804 7.80519 8.39739C7.63958 8.31439 7.45284 8.28312 7.26923 8.30767ZM11.0769 11.0769V12.9231H24V11.0769H11.0769ZM7.26923 16.6154C7.02988 16.6471 6.8125 16.7714 6.66369 16.9615L3.51877 20.9132L1.44185 19.5286C1.33954 19.4604 1.2248 19.413 1.10418 19.3892C0.983568 19.3654 0.859437 19.3655 0.738878 19.3896C0.495398 19.4384 0.281248 19.5818 0.14354 19.7884C0.00583125 19.9951 -0.044156 20.2479 0.00457457 20.4914C0.0533052 20.7349 0.196762 20.949 0.403386 21.0868L3.17262 22.9329C3.36671 23.0621 3.60251 23.1131 3.83265 23.0756C4.06279 23.0381 4.27021 22.9149 4.41323 22.7308L8.10554 18.1154C8.22295 17.9721 8.29453 17.7968 8.31099 17.6123C8.32744 17.4278 8.288 17.2426 8.19779 17.0808C8.10759 16.919 7.97079 16.7881 7.80519 16.7051C7.63958 16.6221 7.45284 16.5908 7.26923 16.6154ZM11.0769 19.3846V21.2308H24V19.3846H11.0769Z" fill="#637381"/>
</g>
<defs>
<clipPath id="clip0_54_10">
<rect width="24" height="24" fill="white"/>
</clipPath>
</defs>
</svg>
