<svg width="20" height="20" viewBox="0 0 20 20" fill="none" xmlns="http://www.w3.org/2000/svg">
<g id="solar:users-group-two-rounded-outline">
<g id="Group">
<path id="Vector" fill-rule="evenodd" clip-rule="evenodd" d="M9.99984 1.04169C8.95002 1.04169 7.9432 1.45872 7.20087 2.20106C6.45854 2.94339 6.0415 3.9502 6.0415 5.00002C6.0415 6.04984 6.45854 7.05665 7.20087 7.79898C7.9432 8.54132 8.95002 8.95835 9.99984 8.95835C11.0497 8.95835 12.0565 8.54132 12.7988 7.79898C13.5411 7.05665 13.9582 6.04984 13.9582 5.00002C13.9582 3.9502 13.5411 2.94339 12.7988 2.20106C12.0565 1.45872 11.0497 1.04169 9.99984 1.04169ZM7.2915 5.00002C7.2915 4.28173 7.57685 3.59285 8.08476 3.08494C8.59267 2.57703 9.28154 2.29169 9.99984 2.29169C10.7181 2.29169 11.407 2.57703 11.9149 3.08494C12.4228 3.59285 12.7082 4.28173 12.7082 5.00002C12.7082 5.71832 12.4228 6.40719 11.9149 6.9151C11.407 7.42301 10.7181 7.70835 9.99984 7.70835C9.28154 7.70835 8.59267 7.42301 8.08476 6.9151C7.57685 6.40719 7.2915 5.71832 7.2915 5.00002Z" fill="#919EAB"/>
<path id="Vector_2" d="M15 2.70837C14.8342 2.70837 14.6753 2.77422 14.5581 2.89143C14.4408 3.00864 14.375 3.16761 14.375 3.33337C14.375 3.49913 14.4408 3.65811 14.5581 3.77532C14.6753 3.89253 14.8342 3.95837 15 3.95837C16.1475 3.95837 16.875 4.71337 16.875 5.41671C16.875 6.12004 16.1475 6.87504 15 6.87504C14.8342 6.87504 14.6753 6.94089 14.5581 7.0581C14.4408 7.17531 14.375 7.33428 14.375 7.50004C14.375 7.6658 14.4408 7.82477 14.5581 7.94198C14.6753 8.05919 14.8342 8.12504 15 8.12504C16.6142 8.12504 18.125 7.01421 18.125 5.41671C18.125 3.81921 16.6142 2.70837 15 2.70837ZM5.625 3.33337C5.625 3.16761 5.55915 3.00864 5.44194 2.89143C5.32473 2.77422 5.16576 2.70837 5 2.70837C3.38583 2.70837 1.875 3.81921 1.875 5.41671C1.875 7.01421 3.38583 8.12504 5 8.12504C5.16576 8.12504 5.32473 8.05919 5.44194 7.94198C5.55915 7.82477 5.625 7.6658 5.625 7.50004C5.625 7.33428 5.55915 7.17531 5.44194 7.0581C5.32473 6.94089 5.16576 6.87504 5 6.87504C3.85333 6.87504 3.125 6.12004 3.125 5.41671C3.125 4.71337 3.85333 3.95837 5 3.95837C5.16576 3.95837 5.32473 3.89253 5.44194 3.77532C5.55915 3.65811 5.625 3.49913 5.625 3.33337Z" fill="#919EAB"/>
<path id="Vector_3" fill-rule="evenodd" clip-rule="evenodd" d="M10 10.2084C8.51333 10.2084 7.13833 10.6084 6.1175 11.2892C5.10083 11.9675 4.375 12.9725 4.375 14.1667C4.375 15.3609 5.10083 16.3667 6.1175 17.0442C7.13833 17.7242 8.51333 18.125 10 18.125C11.4867 18.125 12.8617 17.725 13.8825 17.0442C14.8992 16.3659 15.625 15.3609 15.625 14.1667C15.625 12.9725 14.8983 11.9667 13.8825 11.2892C12.8617 10.6092 11.4867 10.2084 10 10.2084ZM5.625 14.1667C5.625 13.52 6.01833 12.8584 6.81083 12.33C7.6 11.8042 8.72583 11.4584 10 11.4584C11.275 11.4584 12.4 11.8042 13.1892 12.33C13.9817 12.8584 14.375 13.52 14.375 14.1667C14.375 14.8134 13.9817 15.475 13.1892 16.0034C12.4 16.5292 11.2742 16.875 10 16.875C8.725 16.875 7.6 16.5292 6.81083 16.0034C6.01833 15.475 5.625 14.8134 5.625 14.1667Z" fill="#919EAB"/>
<path id="Vector_4" d="M16.0558 11.5334C16.0732 11.453 16.1064 11.377 16.1533 11.3095C16.2002 11.242 16.26 11.1844 16.3292 11.1401C16.3984 11.0957 16.4757 11.0654 16.5566 11.051C16.6375 11.0365 16.7205 11.0382 16.8008 11.0559C17.6016 11.2317 18.3241 11.5492 18.8608 11.9884C19.3966 12.4267 19.7916 13.03 19.7916 13.75C19.7916 14.4709 19.3966 15.0734 18.8608 15.5117C18.3241 15.9509 17.6024 16.2684 16.8008 16.4442C16.7205 16.4618 16.6376 16.4635 16.5568 16.449C16.4759 16.4346 16.3987 16.4044 16.3295 16.3602C16.2603 16.3159 16.2006 16.2584 16.1536 16.1911C16.1066 16.1237 16.0734 16.0477 16.0558 15.9675C16.0381 15.8873 16.0365 15.8044 16.0509 15.7236C16.0653 15.6427 16.0955 15.5655 16.1398 15.4963C16.1841 15.4271 16.2415 15.3673 16.3089 15.3204C16.3762 15.2734 16.4522 15.2401 16.5324 15.2225C17.1933 15.0784 17.7208 14.8292 18.0691 14.5442C18.4174 14.2592 18.5416 13.98 18.5416 13.75C18.5416 13.52 18.4174 13.2417 18.0691 12.9559C17.7208 12.6709 17.1933 12.4225 16.5324 12.2775C16.4522 12.26 16.3762 12.2267 16.3088 12.1798C16.2414 12.1328 16.1839 12.073 16.1397 12.0038C16.0954 11.9346 16.0652 11.8574 16.0508 11.7765C16.0364 11.6957 16.0381 11.6127 16.0558 11.5325V11.5334ZM3.19992 11.0559C3.36192 11.0205 3.53134 11.0509 3.6709 11.1405C3.81045 11.23 3.90872 11.3714 3.94408 11.5334C3.97945 11.6954 3.94901 11.8648 3.85946 12.0043C3.76991 12.1439 3.62859 12.2422 3.46658 12.2775C2.80658 12.4217 2.27908 12.6709 1.93075 12.9559C1.58242 13.2409 1.45825 13.52 1.45825 13.75C1.45825 13.98 1.58242 14.2584 1.93075 14.5442C2.27908 14.8292 2.80658 15.0775 3.46742 15.2225C3.62942 15.2581 3.77065 15.3566 3.86005 15.4963C3.94944 15.636 3.97967 15.8055 3.94408 15.9675C3.9085 16.1295 3.81002 16.2708 3.67031 16.3602C3.53059 16.4495 3.36109 16.4798 3.19908 16.4442C2.39742 16.2684 1.67575 15.9509 1.13909 15.5117C0.603252 15.0734 0.208252 14.47 0.208252 13.75C0.208252 13.0292 0.603252 12.4267 1.13909 11.9884C1.67575 11.5492 2.39825 11.2317 3.19992 11.0559Z" fill="#919EAB"/>
</g>
</g>
</svg>
