<svg width="22" height="22" viewBox="0 0 22 22" fill="none" xmlns="http://www.w3.org/2000/svg">
<g id="arcticons:galaxy-themes">
<path id="Vector" d="M3.19287 6.69858V2.76837C4.8022 3.59355 6.58322 4.02816 8.39175 4.03704C11.3627 4.03704 12.322 2.52087 15.633 2.52087C16.7205 2.5855 17.7913 2.81851 18.8074 3.21158V6.69858M3.19287 6.69858V11.9905C3.19287 13.5378 4.9877 13.6616 6.62762 13.6616C8.26754 13.6616 9.6242 14.3523 9.6242 15.9047C9.6242 16.6059 9.16541 16.7553 9.16541 17.8388C9.16541 18.9223 9.74062 19.4792 11.0001 19.4792C12.2596 19.4792 12.8348 18.9228 12.8348 17.8393C12.8348 16.7558 12.376 16.6055 12.376 15.9051C12.376 14.3527 13.7327 13.6616 15.3726 13.6616C17.0125 13.6616 18.8074 13.5374 18.8074 11.9905V6.69858M3.19287 6.69858H18.8074" stroke="#637381" stroke-linecap="round" stroke-linejoin="round"/>
</g>
</svg>
