<svg width="22" height="22" viewBox="0 0 22 22" fill="none" xmlns="http://www.w3.org/2000/svg">
<g id="vuesax/outline/car">
<g id="vuesax/outline/car_2">
<g id="car">
<path id="Vector" d="M18.333 10.7709H3.66633C3.4555 10.7709 3.263 10.6792 3.13467 10.5142C3.00633 10.3584 2.95133 10.1384 2.99717 9.93674L4.033 4.98674C4.37217 3.38257 5.05966 1.90674 7.78217 1.90674H14.2263C16.9488 1.90674 17.6363 3.39174 17.9755 4.98674L19.0113 9.9459C19.0572 10.1476 19.0022 10.3584 18.8738 10.5234C18.7363 10.6792 18.5438 10.7709 18.333 10.7709ZM4.50967 9.3959H17.4805L16.6188 5.2709C16.3622 4.07007 16.0597 3.28174 14.2172 3.28174H7.78217C5.93967 3.28174 5.63717 4.07007 5.3805 5.2709L4.50967 9.3959Z" fill="#637381"/>
<path id="Vector_2" d="M18.2963 20.8542H16.573C15.088 20.8542 14.8038 20.0017 14.6205 19.4425L14.4371 18.8925C14.1988 18.1959 14.1713 18.1042 13.3463 18.1042H8.65296C7.82796 18.1042 7.77296 18.26 7.56213 18.8925L7.3788 19.4425C7.1863 20.0109 6.9113 20.8542 5.4263 20.8542H3.70296C2.9788 20.8542 2.28213 20.5517 1.7963 20.02C1.31963 19.4975 1.09046 18.8009 1.15463 18.1042L1.66796 12.5217C1.80546 11.0092 2.2088 9.39587 5.1513 9.39587H16.848C19.7905 9.39587 20.1846 11.0092 20.3313 12.5217L20.8446 18.1042C20.9088 18.8009 20.6796 19.4975 20.203 20.02C19.7171 20.5517 19.0205 20.8542 18.2963 20.8542ZM8.65296 16.7292H13.3463C15.0146 16.7292 15.4088 17.4717 15.7388 18.4434L15.9313 19.0117C16.0871 19.4792 16.0871 19.4884 16.5821 19.4884H18.3055C18.6446 19.4884 18.9655 19.3509 19.1946 19.1034C19.4146 18.865 19.5155 18.5625 19.488 18.2417L18.9746 12.6592C18.8555 11.4217 18.7088 10.78 16.8663 10.78H5.1513C3.29963 10.78 3.15296 11.4217 3.04296 12.6592L2.52963 18.2417C2.50213 18.5625 2.60296 18.865 2.82296 19.1034C3.04296 19.3509 3.37296 19.4884 3.71213 19.4884H5.43546C5.93046 19.4884 5.93046 19.4792 6.0863 19.0209L6.26963 18.4617C6.4988 17.7284 6.83796 16.7292 8.65296 16.7292Z" fill="#637381"/>
<path id="Vector_3" d="M3.66667 8.02087H2.75C2.37417 8.02087 2.0625 7.70921 2.0625 7.33337C2.0625 6.95754 2.37417 6.64587 2.75 6.64587H3.66667C4.0425 6.64587 4.35417 6.95754 4.35417 7.33337C4.35417 7.70921 4.0425 8.02087 3.66667 8.02087Z" fill="#637381"/>
<path id="Vector_4" d="M19.2499 8.02087H18.3333C17.9574 8.02087 17.6458 7.70921 17.6458 7.33337C17.6458 6.95754 17.9574 6.64587 18.3333 6.64587H19.2499C19.6258 6.64587 19.9374 6.95754 19.9374 7.33337C19.9374 7.70921 19.6258 8.02087 19.2499 8.02087Z" fill="#637381"/>
<path id="Vector_5" d="M11 5.27083C10.6242 5.27083 10.3125 4.95917 10.3125 4.58333V2.75C10.3125 2.37417 10.6242 2.0625 11 2.0625C11.3758 2.0625 11.6875 2.37417 11.6875 2.75V4.58333C11.6875 4.95917 11.3758 5.27083 11 5.27083Z" fill="#637381"/>
<path id="Vector_6" d="M12.375 5.27087H9.625C9.24917 5.27087 8.9375 4.95921 8.9375 4.58337C8.9375 4.20754 9.24917 3.89587 9.625 3.89587H12.375C12.7508 3.89587 13.0625 4.20754 13.0625 4.58337C13.0625 4.95921 12.7508 5.27087 12.375 5.27087Z" fill="#637381"/>
<path id="Vector_7" d="M8.25 14.4375H5.5C5.12417 14.4375 4.8125 14.1258 4.8125 13.75C4.8125 13.3742 5.12417 13.0625 5.5 13.0625H8.25C8.62583 13.0625 8.9375 13.3742 8.9375 13.75C8.9375 14.1258 8.62583 14.4375 8.25 14.4375Z" fill="#637381"/>
<path id="Vector_8" d="M16.5 14.4375H13.75C13.3742 14.4375 13.0625 14.1258 13.0625 13.75C13.0625 13.3742 13.3742 13.0625 13.75 13.0625H16.5C16.8758 13.0625 17.1875 13.3742 17.1875 13.75C17.1875 14.1258 16.8758 14.4375 16.5 14.4375Z" fill="#637381"/>
</g>
</g>
</g>
</svg>
