<svg width="24" height="24" viewBox="0 0 24 24" fill="none" xmlns="http://www.w3.org/2000/svg">
<g id="icon/ic_alert">
<path id="Shape" fill-rule="evenodd" clip-rule="evenodd" d="M22.5601 16.2997L14.8901 3.57969C14.2598 2.59369 13.1703 1.99707 12.0001 1.99707C10.8299 1.99707 9.74038 2.59369 9.1101 3.57969L1.4401 16.2997C0.888647 17.2189 0.869586 18.3626 1.3901 19.2997C1.99207 20.3548 3.11533 21.0043 4.3301 20.9997H19.6701C20.8766 21.0126 21.9979 20.3794 22.6101 19.3397C23.1462 18.3923 23.1271 17.2289 22.5601 16.2997ZM12.0001 16.9997C11.4478 16.9997 11.0001 16.552 11.0001 15.9997C11.0001 15.4474 11.4478 14.9997 12.0001 14.9997C12.5524 14.9997 13.0001 15.4474 13.0001 15.9997C13.0001 16.552 12.5524 16.9997 12.0001 16.9997ZM12.0001 13.9997C12.5524 13.9997 13.0001 13.552 13.0001 12.9997V8.99969C13.0001 8.44741 12.5524 7.99969 12.0001 7.99969C11.4478 7.99969 11.0001 8.44741 11.0001 8.99969V12.9997C11.0001 13.552 11.4478 13.9997 12.0001 13.9997Z" fill="#FFC107"/>
</g>
</svg>
