<svg width="16" height="16" viewBox="0 0 16 16" fill="none" xmlns="http://www.w3.org/2000/svg">
<g id="vuesax/outline/wallet">
<g id="wallet">
<path id="Vector" d="M3.46648 6.97329C3.33982 6.97329 3.20648 6.91996 3.11315 6.82662C2.97315 6.67996 2.92648 6.46663 3.00648 6.27996L4.24648 3.31996C4.27315 3.25996 4.28648 3.21996 4.30648 3.18663C5.29315 0.913292 6.55315 0.359959 8.77982 1.21329C8.90648 1.25996 9.00648 1.35996 9.05982 1.48663C9.11315 1.61329 9.11315 1.75329 9.05982 1.87996L7.10648 6.41329C7.02648 6.59996 6.84648 6.71329 6.64648 6.71329H4.74648C4.36648 6.71329 4.00648 6.78662 3.65982 6.93329C3.59982 6.95996 3.53315 6.97329 3.46648 6.97329ZM7.07315 1.83329C6.24648 1.83329 5.73982 2.37329 5.21315 3.59996C5.20648 3.61996 5.19315 3.63996 5.18648 3.65996L4.31315 5.73329C4.45982 5.71996 4.59982 5.71329 4.74648 5.71329H6.31315L7.91982 1.97996C7.60648 1.87996 7.32648 1.83329 7.07315 1.83329Z" fill="#637381"/>
<path id="Vector_2" d="M12.1933 6.8467C12.1467 6.8467 12.0933 6.84004 12.0467 6.8267C11.7933 6.75337 11.5267 6.71337 11.2467 6.71337H6.64666C6.47999 6.71337 6.31999 6.6267 6.22666 6.4867C6.13999 6.3467 6.11999 6.1667 6.18666 6.01337L8.11999 1.5267C8.21999 1.2867 8.51332 1.12004 8.75999 1.2067C8.83999 1.23337 8.91332 1.2667 8.99332 1.30004L10.5667 1.96004C11.4867 2.34004 12.1 2.74004 12.5 3.22004C12.58 3.31337 12.6467 3.41337 12.7133 3.52004C12.7867 3.63337 12.8533 3.7667 12.9 3.9067C12.92 3.95337 12.9533 4.04004 12.9733 4.13337C13.16 4.7667 13.0667 5.54004 12.6667 6.54004C12.58 6.7267 12.3933 6.8467 12.1933 6.8467ZM7.40666 5.71337H11.2533C11.4667 5.71337 11.6733 5.73337 11.88 5.7667C12.0667 5.1867 12.1067 4.74004 12 4.38004C11.9867 4.32004 11.9733 4.29337 11.9667 4.2667C11.9267 4.16004 11.9 4.10004 11.8667 4.0467C11.82 3.97337 11.7867 3.91337 11.7333 3.85337C11.4467 3.5067 10.94 3.1867 10.18 2.87337L8.86666 2.3267L7.40666 5.71337Z" fill="#637381"/>
<path id="Vector_3" d="M10.6 15.1668H5.4C5.21333 15.1668 5.04 15.1535 4.86667 15.1335C2.52667 14.9802 1.19333 13.6402 1.03333 11.2735C1.01333 11.1268 1 10.9468 1 10.7668V9.46683C1 7.96683 1.89333 6.6135 3.27333 6.0135C3.74667 5.8135 4.24 5.7135 4.75333 5.7135H11.26C11.64 5.7135 12.0067 5.76683 12.3467 5.8735C13.9133 6.34683 15.0133 7.82683 15.0133 9.46683V10.7668C15.0133 10.9135 15.0067 11.0535 15 11.1868C14.8533 13.7935 13.3333 15.1668 10.6 15.1668ZM4.74667 6.7135C4.36667 6.7135 4.00667 6.78683 3.66 6.9335C2.64667 7.3735 1.99333 8.36683 1.99333 9.46683V10.7668C1.99333 10.9068 2.00667 11.0468 2.02 11.1802C2.14667 13.0802 3.08 14.0135 4.95333 14.1402C5.12 14.1602 5.25333 14.1735 5.39333 14.1735H10.5933C12.7933 14.1735 13.8733 13.2068 13.98 11.1402C13.9867 11.0202 13.9933 10.9002 13.9933 10.7668V9.46683C13.9933 8.26017 13.1867 7.18017 12.04 6.82683C11.7867 6.7535 11.52 6.7135 11.24 6.7135H4.74667Z" fill="#637381"/>
<path id="Vector_4" d="M1.49335 9.96666C1.22001 9.96666 0.993347 9.73999 0.993347 9.46666V7.51332C0.993347 5.41332 2.48001 3.59999 4.53335 3.19999C4.71335 3.16666 4.90001 3.23332 5.02001 3.37332C5.13335 3.51332 5.16668 3.71332 5.09335 3.87999L3.92668 6.66666C3.87335 6.78666 3.78001 6.87999 3.66668 6.93332C2.65335 7.37332 2.00001 8.36666 2.00001 9.46666C1.99335 9.73999 1.77335 9.96666 1.49335 9.96666ZM3.73335 4.54666C2.88001 5.02666 2.26001 5.86666 2.06668 6.84666C2.36001 6.54666 2.70001 6.29332 3.08668 6.10666L3.73335 4.54666Z" fill="#637381"/>
<path id="Vector_5" d="M14.5061 9.96664C14.2328 9.96664 14.0061 9.73997 14.0061 9.46664C14.0061 8.25997 13.1994 7.17997 12.0528 6.82664C11.9194 6.78664 11.8061 6.69331 11.7461 6.56664C11.6861 6.43997 11.6794 6.29331 11.7328 6.16664C12.0461 5.38664 12.1261 4.81997 11.9994 4.37997C11.9861 4.31997 11.9728 4.29331 11.9661 4.26664C11.8794 4.07331 11.9261 3.84664 12.0794 3.69997C12.2328 3.55331 12.4661 3.51997 12.6528 3.61997C14.1061 4.37997 15.0061 5.87331 15.0061 7.51331V9.46664C15.0061 9.73997 14.7794 9.96664 14.5061 9.96664ZM12.8328 6.05997C13.2528 6.25331 13.6261 6.52664 13.9394 6.85331C13.8128 6.19997 13.4994 5.60664 13.0394 5.13997C13.0061 5.41997 12.9394 5.72664 12.8328 6.05997Z" fill="#637381"/>
</g>
</g>
</svg>
